<mxfile host="Electron" agent="Mozilla/5.0 (Windows NT 10.0; Win64; x64) AppleWebKit/537.36 (KHTML, like Gecko) draw.io/27.0.9 Chrome/134.0.6998.205 Electron/35.4.0 Safari/537.36" version="27.0.9" pages="4">
  <diagram name="Page-1" id="iaL-8Vjs-7kvGO5bC5Na">
    <mxGraphModel dx="1426" dy="849" grid="1" gridSize="10" guides="1" tooltips="1" connect="1" arrows="1" fold="1" page="1" pageScale="1" pageWidth="850" pageHeight="1100" math="0" shadow="0">
      <root>
        <mxCell id="0" />
        <mxCell id="1" parent="0" />
        <mxCell id="BhFjMK_NR8C3ZRT4xDxa-1" value="Battery&amp;nbsp;&amp;nbsp;&lt;div&gt;(6V)&lt;/div&gt;" style="rounded=0;whiteSpace=wrap;html=1;" parent="1" vertex="1">
          <mxGeometry x="190" y="80" width="120" height="60" as="geometry" />
        </mxCell>
        <mxCell id="BhFjMK_NR8C3ZRT4xDxa-2" value="ESP32" style="rounded=0;whiteSpace=wrap;html=1;" parent="1" vertex="1">
          <mxGeometry x="190" y="250" width="120" height="60" as="geometry" />
        </mxCell>
        <mxCell id="BhFjMK_NR8C3ZRT4xDxa-3" value="IMU&lt;div&gt;Pololu MinIMUv2&lt;/div&gt;" style="rounded=0;whiteSpace=wrap;html=1;" parent="1" vertex="1">
          <mxGeometry x="380" y="250" width="120" height="60" as="geometry" />
        </mxCell>
        <mxCell id="BhFjMK_NR8C3ZRT4xDxa-4" value="FS-iA10B&lt;div&gt;Receiver&lt;/div&gt;" style="rounded=0;whiteSpace=wrap;html=1;" parent="1" vertex="1">
          <mxGeometry x="20" y="250" width="120" height="60" as="geometry" />
        </mxCell>
        <mxCell id="BhFjMK_NR8C3ZRT4xDxa-5" value="" style="endArrow=classic;html=1;rounded=0;exitX=0.5;exitY=1;exitDx=0;exitDy=0;entryX=0.5;entryY=0;entryDx=0;entryDy=0;" parent="1" source="BhFjMK_NR8C3ZRT4xDxa-1" target="BhFjMK_NR8C3ZRT4xDxa-2" edge="1">
          <mxGeometry width="50" height="50" relative="1" as="geometry">
            <mxPoint x="330" y="330" as="sourcePoint" />
            <mxPoint x="380" y="280" as="targetPoint" />
          </mxGeometry>
        </mxCell>
        <mxCell id="BhFjMK_NR8C3ZRT4xDxa-6" value="3V3" style="endArrow=classic;html=1;rounded=0;exitX=1;exitY=0.5;exitDx=0;exitDy=0;entryX=0;entryY=0.5;entryDx=0;entryDy=0;" parent="1" source="BhFjMK_NR8C3ZRT4xDxa-2" target="BhFjMK_NR8C3ZRT4xDxa-3" edge="1">
          <mxGeometry width="50" height="50" relative="1" as="geometry">
            <mxPoint x="400" y="390" as="sourcePoint" />
            <mxPoint x="400" y="500" as="targetPoint" />
          </mxGeometry>
        </mxCell>
        <mxCell id="BhFjMK_NR8C3ZRT4xDxa-7" value="3V3" style="endArrow=classic;html=1;rounded=0;exitX=0;exitY=0.5;exitDx=0;exitDy=0;entryX=1;entryY=0.5;entryDx=0;entryDy=0;" parent="1" source="BhFjMK_NR8C3ZRT4xDxa-2" target="BhFjMK_NR8C3ZRT4xDxa-4" edge="1">
          <mxGeometry width="50" height="50" relative="1" as="geometry">
            <mxPoint x="360" y="380" as="sourcePoint" />
            <mxPoint x="430" y="380" as="targetPoint" />
          </mxGeometry>
        </mxCell>
        <mxCell id="BhFjMK_NR8C3ZRT4xDxa-8" value="DC Motor Driver" style="rounded=0;whiteSpace=wrap;html=1;" parent="1" vertex="1">
          <mxGeometry x="380" y="140" width="120" height="60" as="geometry" />
        </mxCell>
        <mxCell id="ed69AptcHZ25_4YGdl1S-1" value="" style="rounded=0;whiteSpace=wrap;html=1;fillColor=none;" parent="1" vertex="1">
          <mxGeometry y="50" width="530" height="290" as="geometry" />
        </mxCell>
        <mxCell id="ed69AptcHZ25_4YGdl1S-2" value="Battery&amp;nbsp;&amp;nbsp;&lt;div&gt;(6V)&lt;/div&gt;" style="rounded=0;whiteSpace=wrap;html=1;" parent="1" vertex="1">
          <mxGeometry x="190" y="450" width="120" height="60" as="geometry" />
        </mxCell>
        <mxCell id="ed69AptcHZ25_4YGdl1S-3" value="ESP32" style="rounded=0;whiteSpace=wrap;html=1;" parent="1" vertex="1">
          <mxGeometry x="190" y="620" width="120" height="60" as="geometry" />
        </mxCell>
        <mxCell id="ed69AptcHZ25_4YGdl1S-4" value="IMU&lt;div&gt;Pololu MinIMUv2&lt;/div&gt;" style="rounded=0;whiteSpace=wrap;html=1;" parent="1" vertex="1">
          <mxGeometry x="380" y="620" width="120" height="60" as="geometry" />
        </mxCell>
        <mxCell id="ed69AptcHZ25_4YGdl1S-5" value="FS-iA10B&lt;div&gt;Receiver&lt;/div&gt;" style="rounded=0;whiteSpace=wrap;html=1;" parent="1" vertex="1">
          <mxGeometry x="20" y="620" width="120" height="60" as="geometry" />
        </mxCell>
        <mxCell id="ed69AptcHZ25_4YGdl1S-6" value="" style="endArrow=classic;html=1;rounded=0;exitX=0.5;exitY=1;exitDx=0;exitDy=0;entryX=0.5;entryY=0;entryDx=0;entryDy=0;" parent="1" source="ed69AptcHZ25_4YGdl1S-2" target="ed69AptcHZ25_4YGdl1S-3" edge="1">
          <mxGeometry width="50" height="50" relative="1" as="geometry">
            <mxPoint x="330" y="700" as="sourcePoint" />
            <mxPoint x="380" y="650" as="targetPoint" />
          </mxGeometry>
        </mxCell>
        <mxCell id="ed69AptcHZ25_4YGdl1S-7" value="3V3" style="endArrow=classic;html=1;rounded=0;exitX=1;exitY=0.5;exitDx=0;exitDy=0;entryX=0;entryY=0.5;entryDx=0;entryDy=0;" parent="1" source="ed69AptcHZ25_4YGdl1S-3" target="ed69AptcHZ25_4YGdl1S-4" edge="1">
          <mxGeometry width="50" height="50" relative="1" as="geometry">
            <mxPoint x="400" y="760" as="sourcePoint" />
            <mxPoint x="400" y="870" as="targetPoint" />
          </mxGeometry>
        </mxCell>
        <mxCell id="ed69AptcHZ25_4YGdl1S-8" value="3V3" style="endArrow=classic;html=1;rounded=0;exitX=0;exitY=0.5;exitDx=0;exitDy=0;entryX=1;entryY=0.5;entryDx=0;entryDy=0;" parent="1" source="ed69AptcHZ25_4YGdl1S-3" target="ed69AptcHZ25_4YGdl1S-5" edge="1">
          <mxGeometry width="50" height="50" relative="1" as="geometry">
            <mxPoint x="360" y="750" as="sourcePoint" />
            <mxPoint x="430" y="750" as="targetPoint" />
          </mxGeometry>
        </mxCell>
        <mxCell id="ed69AptcHZ25_4YGdl1S-9" value="DC Motor Driver" style="rounded=0;whiteSpace=wrap;html=1;" parent="1" vertex="1">
          <mxGeometry x="380" y="510" width="120" height="60" as="geometry" />
        </mxCell>
        <mxCell id="ed69AptcHZ25_4YGdl1S-10" value="" style="rounded=0;whiteSpace=wrap;html=1;fillColor=none;" parent="1" vertex="1">
          <mxGeometry y="420" width="530" height="290" as="geometry" />
        </mxCell>
      </root>
    </mxGraphModel>
  </diagram>
  <diagram id="CYUUIMMDBPCrafMRUi-Y" name="SoftwareArch">
    <mxGraphModel dx="1426" dy="849" grid="1" gridSize="10" guides="1" tooltips="1" connect="1" arrows="1" fold="1" page="1" pageScale="1" pageWidth="850" pageHeight="1100" math="0" shadow="0">
      <root>
        <mxCell id="0" />
        <mxCell id="1" parent="0" />
        <mxCell id="Cysf4esAAwEoWoJcV5Uq-1" value="MAVLink" style="rounded=0;whiteSpace=wrap;html=1;" vertex="1" parent="1">
          <mxGeometry x="230" y="230" width="120" height="60" as="geometry" />
        </mxCell>
        <mxCell id="Cysf4esAAwEoWoJcV5Uq-2" value="WebSocket" style="rounded=0;whiteSpace=wrap;html=1;" vertex="1" parent="1">
          <mxGeometry x="660" y="170" width="120" height="60" as="geometry" />
        </mxCell>
        <mxCell id="Cysf4esAAwEoWoJcV5Uq-3" value="Grafana" style="rounded=0;whiteSpace=wrap;html=1;" vertex="1" parent="1">
          <mxGeometry x="870" y="170" width="120" height="60" as="geometry" />
        </mxCell>
        <mxCell id="Cysf4esAAwEoWoJcV5Uq-17" style="edgeStyle=orthogonalEdgeStyle;rounded=0;orthogonalLoop=1;jettySize=auto;html=1;exitX=1;exitY=0.5;exitDx=0;exitDy=0;entryX=0;entryY=0.75;entryDx=0;entryDy=0;" edge="1" parent="1" source="Cysf4esAAwEoWoJcV5Uq-4" target="Cysf4esAAwEoWoJcV5Uq-1">
          <mxGeometry relative="1" as="geometry" />
        </mxCell>
        <mxCell id="Cysf4esAAwEoWoJcV5Uq-4" value="IMU" style="rounded=0;whiteSpace=wrap;html=1;" vertex="1" parent="1">
          <mxGeometry x="50" y="290" width="120" height="60" as="geometry" />
        </mxCell>
        <mxCell id="Cysf4esAAwEoWoJcV5Uq-5" value="&lt;div&gt;sbus&lt;/div&gt;RC Receiver" style="rounded=0;whiteSpace=wrap;html=1;" vertex="1" parent="1">
          <mxGeometry x="50" y="215" width="120" height="60" as="geometry" />
        </mxCell>
        <mxCell id="Cysf4esAAwEoWoJcV5Uq-18" style="edgeStyle=orthogonalEdgeStyle;rounded=0;orthogonalLoop=1;jettySize=auto;html=1;exitX=1;exitY=0.5;exitDx=0;exitDy=0;entryX=0.5;entryY=1;entryDx=0;entryDy=0;" edge="1" parent="1" source="Cysf4esAAwEoWoJcV5Uq-7" target="Cysf4esAAwEoWoJcV5Uq-1">
          <mxGeometry relative="1" as="geometry" />
        </mxCell>
        <mxCell id="Cysf4esAAwEoWoJcV5Uq-7" value="EncoderReader" style="rounded=0;whiteSpace=wrap;html=1;" vertex="1" parent="1">
          <mxGeometry x="50" y="370" width="120" height="60" as="geometry" />
        </mxCell>
        <mxCell id="Cysf4esAAwEoWoJcV5Uq-8" value="ControlLoop" style="rounded=0;whiteSpace=wrap;html=1;" vertex="1" parent="1">
          <mxGeometry x="400" y="300" width="120" height="60" as="geometry" />
        </mxCell>
        <mxCell id="Cysf4esAAwEoWoJcV5Uq-9" value="Telemetry" style="rounded=0;whiteSpace=wrap;html=1;" vertex="1" parent="1">
          <mxGeometry x="400" y="170" width="120" height="60" as="geometry" />
        </mxCell>
        <mxCell id="Cysf4esAAwEoWoJcV5Uq-11" value="" style="endArrow=classic;html=1;rounded=0;exitX=1;exitY=0.5;exitDx=0;exitDy=0;entryX=0;entryY=0.25;entryDx=0;entryDy=0;" edge="1" parent="1" source="Cysf4esAAwEoWoJcV5Uq-5" target="Cysf4esAAwEoWoJcV5Uq-1">
          <mxGeometry width="50" height="50" relative="1" as="geometry">
            <mxPoint x="330" y="330" as="sourcePoint" />
            <mxPoint x="380" y="280" as="targetPoint" />
          </mxGeometry>
        </mxCell>
        <mxCell id="Cysf4esAAwEoWoJcV5Uq-20" style="edgeStyle=orthogonalEdgeStyle;rounded=0;orthogonalLoop=1;jettySize=auto;html=1;exitX=1;exitY=0.75;exitDx=0;exitDy=0;entryX=0;entryY=0.5;entryDx=0;entryDy=0;" edge="1" parent="1" source="Cysf4esAAwEoWoJcV5Uq-1" target="Cysf4esAAwEoWoJcV5Uq-8">
          <mxGeometry relative="1" as="geometry">
            <mxPoint x="380" y="485" as="sourcePoint" />
            <mxPoint x="440" y="440" as="targetPoint" />
          </mxGeometry>
        </mxCell>
        <mxCell id="Cysf4esAAwEoWoJcV5Uq-21" style="edgeStyle=orthogonalEdgeStyle;rounded=0;orthogonalLoop=1;jettySize=auto;html=1;exitX=1;exitY=0.25;exitDx=0;exitDy=0;entryX=0;entryY=0.5;entryDx=0;entryDy=0;" edge="1" parent="1" source="Cysf4esAAwEoWoJcV5Uq-1" target="Cysf4esAAwEoWoJcV5Uq-9">
          <mxGeometry relative="1" as="geometry">
            <mxPoint x="430" y="220" as="sourcePoint" />
            <mxPoint x="480" y="275" as="targetPoint" />
          </mxGeometry>
        </mxCell>
        <mxCell id="Cysf4esAAwEoWoJcV5Uq-22" style="edgeStyle=orthogonalEdgeStyle;rounded=0;orthogonalLoop=1;jettySize=auto;html=1;exitX=1;exitY=0.5;exitDx=0;exitDy=0;" edge="1" parent="1" source="Cysf4esAAwEoWoJcV5Uq-9" target="Cysf4esAAwEoWoJcV5Uq-2">
          <mxGeometry relative="1" as="geometry">
            <mxPoint x="660" y="395" as="sourcePoint" />
            <mxPoint x="710" y="350" as="targetPoint" />
          </mxGeometry>
        </mxCell>
        <mxCell id="Cysf4esAAwEoWoJcV5Uq-23" style="edgeStyle=orthogonalEdgeStyle;rounded=0;orthogonalLoop=1;jettySize=auto;html=1;exitX=1;exitY=0.5;exitDx=0;exitDy=0;entryX=0;entryY=0.5;entryDx=0;entryDy=0;" edge="1" parent="1" source="Cysf4esAAwEoWoJcV5Uq-2" target="Cysf4esAAwEoWoJcV5Uq-3">
          <mxGeometry relative="1" as="geometry">
            <mxPoint x="690" y="370" as="sourcePoint" />
            <mxPoint x="790" y="310" as="targetPoint" />
          </mxGeometry>
        </mxCell>
        <mxCell id="Cysf4esAAwEoWoJcV5Uq-26" value="" style="image;points=[];aspect=fixed;html=1;align=center;shadow=0;dashed=0;image=img/lib/allied_telesis/computer_and_terminals/Personal_Computer_with_Server.svg;" vertex="1" parent="1">
          <mxGeometry x="688.8" y="80" width="62.400000000000006" height="62.400000000000006" as="geometry" />
        </mxCell>
        <mxCell id="Cysf4esAAwEoWoJcV5Uq-27" value="" style="rounded=0;whiteSpace=wrap;html=1;fillColor=none;" vertex="1" parent="1">
          <mxGeometry x="651.2" y="155" width="348.8" height="115" as="geometry" />
        </mxCell>
        <mxCell id="Cysf4esAAwEoWoJcV5Uq-28" value="" style="image;aspect=fixed;html=1;points=[];align=center;fontSize=12;image=img/lib/azure2/other/Grafana.svg;" vertex="1" parent="1">
          <mxGeometry x="900" y="85" width="68" height="52.800000000000004" as="geometry" />
        </mxCell>
      </root>
    </mxGraphModel>
  </diagram>
  <diagram id="SM9jhcOwgfz62ch274oC" name="Harness">
    <mxGraphModel dx="1188" dy="708" grid="1" gridSize="10" guides="1" tooltips="1" connect="1" arrows="1" fold="1" page="1" pageScale="1" pageWidth="850" pageHeight="1100" math="0" shadow="0">
      <root>
        <mxCell id="0" />
        <mxCell id="1" parent="0" />
        <mxCell id="aIkuYK8QXwVc8mq0X_w5-2" value="ESP32&lt;div&gt;(Board : DOIT-DEVKIT-V1)&lt;/div&gt;" style="rounded=0;whiteSpace=wrap;html=1;labelPosition=center;verticalLabelPosition=top;align=center;verticalAlign=bottom;" parent="1" vertex="1">
          <mxGeometry x="150" y="50" width="150" height="450" as="geometry" />
        </mxCell>
        <mxCell id="aIkuYK8QXwVc8mq0X_w5-3" value="IMU&lt;div&gt;Pololu MinIMUv2&lt;/div&gt;" style="rounded=0;whiteSpace=wrap;html=1;" parent="1" vertex="1">
          <mxGeometry x="440" y="160" width="120" height="60" as="geometry" />
        </mxCell>
        <mxCell id="aIkuYK8QXwVc8mq0X_w5-4" value="FS-iA10B&lt;div&gt;Receiver&lt;/div&gt;" style="rounded=0;whiteSpace=wrap;html=1;" parent="1" vertex="1">
          <mxGeometry x="440" y="50" width="100" height="40" as="geometry" />
        </mxCell>
        <mxCell id="aIkuYK8QXwVc8mq0X_w5-12" value="HardwareSerial_2" style="edgeStyle=orthogonalEdgeStyle;rounded=0;orthogonalLoop=1;jettySize=auto;html=1;exitX=1;exitY=0.5;exitDx=0;exitDy=0;entryX=0;entryY=0.5;entryDx=0;entryDy=0;startArrow=classicThin;startFill=1;" parent="1" source="aIkuYK8QXwVc8mq0X_w5-10" target="aIkuYK8QXwVc8mq0X_w5-11" edge="1">
          <mxGeometry relative="1" as="geometry" />
        </mxCell>
        <mxCell id="aIkuYK8QXwVc8mq0X_w5-10" value="D16" style="rounded=0;whiteSpace=wrap;html=1;" parent="1" vertex="1">
          <mxGeometry x="240" y="100" width="60" height="20" as="geometry" />
        </mxCell>
        <mxCell id="aIkuYK8QXwVc8mq0X_w5-11" value="Signal" style="rounded=0;whiteSpace=wrap;html=1;" parent="1" vertex="1">
          <mxGeometry x="440" y="90" width="100" height="40" as="geometry" />
        </mxCell>
        <mxCell id="aIkuYK8QXwVc8mq0X_w5-44" style="edgeStyle=orthogonalEdgeStyle;rounded=0;orthogonalLoop=1;jettySize=auto;html=1;entryX=0;entryY=0.5;entryDx=0;entryDy=0;fillColor=#a20025;strokeColor=#6F0000;exitX=1;exitY=0.5;exitDx=0;exitDy=0;" parent="1" source="aIkuYK8QXwVc8mq0X_w5-18" target="aIkuYK8QXwVc8mq0X_w5-13" edge="1">
          <mxGeometry relative="1" as="geometry">
            <mxPoint x="390" y="180" as="sourcePoint" />
          </mxGeometry>
        </mxCell>
        <mxCell id="Q_Ax5hJaPmwDY98neo3T-23" value="3V3" style="edgeLabel;html=1;align=center;verticalAlign=middle;resizable=0;points=[];" vertex="1" connectable="0" parent="aIkuYK8QXwVc8mq0X_w5-44">
          <mxGeometry x="-0.1381" y="1" relative="1" as="geometry">
            <mxPoint as="offset" />
          </mxGeometry>
        </mxCell>
        <mxCell id="aIkuYK8QXwVc8mq0X_w5-13" value="VIN" style="rounded=0;whiteSpace=wrap;html=1;" parent="1" vertex="1">
          <mxGeometry x="440" y="220" width="120" height="20" as="geometry" />
        </mxCell>
        <mxCell id="aIkuYK8QXwVc8mq0X_w5-45" value="3V3_RTN" style="edgeStyle=orthogonalEdgeStyle;rounded=0;orthogonalLoop=1;jettySize=auto;html=1;exitX=0;exitY=0.5;exitDx=0;exitDy=0;entryX=1;entryY=0.5;entryDx=0;entryDy=0;" parent="1" source="aIkuYK8QXwVc8mq0X_w5-14" target="aIkuYK8QXwVc8mq0X_w5-19" edge="1">
          <mxGeometry relative="1" as="geometry" />
        </mxCell>
        <mxCell id="aIkuYK8QXwVc8mq0X_w5-14" value="GND" style="rounded=0;whiteSpace=wrap;html=1;" parent="1" vertex="1">
          <mxGeometry x="440" y="240" width="120" height="20" as="geometry" />
        </mxCell>
        <mxCell id="aIkuYK8QXwVc8mq0X_w5-15" value="SCL" style="rounded=0;whiteSpace=wrap;html=1;" parent="1" vertex="1">
          <mxGeometry x="440" y="260" width="120" height="20" as="geometry" />
        </mxCell>
        <mxCell id="aIkuYK8QXwVc8mq0X_w5-16" value="SDA" style="rounded=0;whiteSpace=wrap;html=1;" parent="1" vertex="1">
          <mxGeometry x="440" y="280" width="120" height="20" as="geometry" />
        </mxCell>
        <mxCell id="aIkuYK8QXwVc8mq0X_w5-18" value="3v3" style="rounded=0;whiteSpace=wrap;html=1;" parent="1" vertex="1">
          <mxGeometry x="240" y="220" width="60" height="20" as="geometry" />
        </mxCell>
        <mxCell id="aIkuYK8QXwVc8mq0X_w5-19" value="GND" style="rounded=0;whiteSpace=wrap;html=1;" parent="1" vertex="1">
          <mxGeometry x="240" y="240" width="60" height="20" as="geometry" />
        </mxCell>
        <mxCell id="aIkuYK8QXwVc8mq0X_w5-20" value="D22" style="rounded=0;whiteSpace=wrap;html=1;" parent="1" vertex="1">
          <mxGeometry x="240" y="260" width="60" height="20" as="geometry" />
        </mxCell>
        <mxCell id="aIkuYK8QXwVc8mq0X_w5-21" value="D21" style="rounded=0;whiteSpace=wrap;html=1;" parent="1" vertex="1">
          <mxGeometry x="240" y="280" width="60" height="20" as="geometry" />
        </mxCell>
        <mxCell id="aIkuYK8QXwVc8mq0X_w5-47" style="edgeStyle=orthogonalEdgeStyle;rounded=0;orthogonalLoop=1;jettySize=auto;html=1;exitX=0;exitY=0.5;exitDx=0;exitDy=0;entryX=1;entryY=0.5;entryDx=0;entryDy=0;" parent="1" source="aIkuYK8QXwVc8mq0X_w5-15" target="aIkuYK8QXwVc8mq0X_w5-20" edge="1">
          <mxGeometry relative="1" as="geometry">
            <mxPoint x="500" y="280" as="sourcePoint" />
            <mxPoint x="360" y="280" as="targetPoint" />
          </mxGeometry>
        </mxCell>
        <mxCell id="aIkuYK8QXwVc8mq0X_w5-48" style="edgeStyle=orthogonalEdgeStyle;rounded=0;orthogonalLoop=1;jettySize=auto;html=1;exitX=0;exitY=0.5;exitDx=0;exitDy=0;entryX=1;entryY=0.5;entryDx=0;entryDy=0;" parent="1" source="aIkuYK8QXwVc8mq0X_w5-16" target="aIkuYK8QXwVc8mq0X_w5-21" edge="1">
          <mxGeometry relative="1" as="geometry">
            <mxPoint x="550" y="320" as="sourcePoint" />
            <mxPoint x="410" y="320" as="targetPoint" />
          </mxGeometry>
        </mxCell>
        <mxCell id="mkZb7But-M1EcUp0jY2--2" value="DC Motor Driver" style="rounded=0;whiteSpace=wrap;html=1;labelPosition=center;verticalLabelPosition=top;align=center;verticalAlign=bottom;" parent="1" vertex="1">
          <mxGeometry x="440" y="343" width="190" height="270" as="geometry" />
        </mxCell>
        <mxCell id="mkZb7But-M1EcUp0jY2--6" value="D17" style="rounded=0;whiteSpace=wrap;html=1;" parent="1" vertex="1">
          <mxGeometry x="240" y="363" width="60" height="20" as="geometry" />
        </mxCell>
        <mxCell id="mkZb7But-M1EcUp0jY2--7" value="D18" style="rounded=0;whiteSpace=wrap;html=1;" parent="1" vertex="1">
          <mxGeometry x="240" y="383" width="60" height="20" as="geometry" />
        </mxCell>
        <mxCell id="mkZb7But-M1EcUp0jY2--10" value="IN1" style="rounded=0;whiteSpace=wrap;html=1;" parent="1" vertex="1">
          <mxGeometry x="440" y="363" width="60" height="20" as="geometry" />
        </mxCell>
        <mxCell id="mkZb7But-M1EcUp0jY2--11" value="IN2" style="rounded=0;whiteSpace=wrap;html=1;" parent="1" vertex="1">
          <mxGeometry x="440" y="383" width="60" height="20" as="geometry" />
        </mxCell>
        <mxCell id="mkZb7But-M1EcUp0jY2--13" style="edgeStyle=orthogonalEdgeStyle;rounded=0;orthogonalLoop=1;jettySize=auto;html=1;exitX=1;exitY=0.5;exitDx=0;exitDy=0;startArrow=none;startFill=0;entryX=0;entryY=0.5;entryDx=0;entryDy=0;" parent="1" source="mkZb7But-M1EcUp0jY2--6" target="mkZb7But-M1EcUp0jY2--10" edge="1">
          <mxGeometry relative="1" as="geometry">
            <mxPoint x="370" y="343" as="sourcePoint" />
            <mxPoint x="410" y="373" as="targetPoint" />
          </mxGeometry>
        </mxCell>
        <mxCell id="mkZb7But-M1EcUp0jY2--14" style="edgeStyle=orthogonalEdgeStyle;rounded=0;orthogonalLoop=1;jettySize=auto;html=1;exitX=1;exitY=0.5;exitDx=0;exitDy=0;startArrow=none;startFill=0;entryX=0;entryY=0.5;entryDx=0;entryDy=0;" parent="1" source="mkZb7But-M1EcUp0jY2--7" target="mkZb7But-M1EcUp0jY2--11" edge="1">
          <mxGeometry relative="1" as="geometry">
            <mxPoint x="370" y="403" as="sourcePoint" />
            <mxPoint x="510" y="403" as="targetPoint" />
          </mxGeometry>
        </mxCell>
        <mxCell id="mkZb7But-M1EcUp0jY2--15" value="D19" style="rounded=0;whiteSpace=wrap;html=1;" parent="1" vertex="1">
          <mxGeometry x="240" y="423" width="60" height="20" as="geometry" />
        </mxCell>
        <mxCell id="mkZb7But-M1EcUp0jY2--16" value="D23" style="rounded=0;whiteSpace=wrap;html=1;" parent="1" vertex="1">
          <mxGeometry x="240" y="443" width="60" height="20" as="geometry" />
        </mxCell>
        <mxCell id="mkZb7But-M1EcUp0jY2--17" value="IN3" style="rounded=0;whiteSpace=wrap;html=1;" parent="1" vertex="1">
          <mxGeometry x="440" y="423" width="60" height="20" as="geometry" />
        </mxCell>
        <mxCell id="mkZb7But-M1EcUp0jY2--18" value="IN4" style="rounded=0;whiteSpace=wrap;html=1;" parent="1" vertex="1">
          <mxGeometry x="440" y="443" width="60" height="20" as="geometry" />
        </mxCell>
        <mxCell id="mkZb7But-M1EcUp0jY2--19" style="edgeStyle=orthogonalEdgeStyle;rounded=0;orthogonalLoop=1;jettySize=auto;html=1;exitX=1;exitY=0.5;exitDx=0;exitDy=0;startArrow=none;startFill=0;entryX=0;entryY=0.5;entryDx=0;entryDy=0;" parent="1" source="mkZb7But-M1EcUp0jY2--15" target="mkZb7But-M1EcUp0jY2--17" edge="1">
          <mxGeometry relative="1" as="geometry">
            <mxPoint x="370" y="403" as="sourcePoint" />
            <mxPoint x="410" y="433" as="targetPoint" />
          </mxGeometry>
        </mxCell>
        <mxCell id="mkZb7But-M1EcUp0jY2--20" style="edgeStyle=orthogonalEdgeStyle;rounded=0;orthogonalLoop=1;jettySize=auto;html=1;exitX=1;exitY=0.5;exitDx=0;exitDy=0;startArrow=none;startFill=0;entryX=0;entryY=0.5;entryDx=0;entryDy=0;" parent="1" source="mkZb7But-M1EcUp0jY2--16" target="mkZb7But-M1EcUp0jY2--18" edge="1">
          <mxGeometry relative="1" as="geometry">
            <mxPoint x="370" y="463" as="sourcePoint" />
            <mxPoint x="510" y="463" as="targetPoint" />
          </mxGeometry>
        </mxCell>
        <mxCell id="mkZb7But-M1EcUp0jY2--21" value="+" style="rounded=0;whiteSpace=wrap;html=1;" parent="1" vertex="1">
          <mxGeometry x="440" y="543" width="60" height="20" as="geometry" />
        </mxCell>
        <mxCell id="mkZb7But-M1EcUp0jY2--22" value="-" style="rounded=0;whiteSpace=wrap;html=1;" parent="1" vertex="1">
          <mxGeometry x="440" y="563" width="60" height="20" as="geometry" />
        </mxCell>
        <mxCell id="mkZb7But-M1EcUp0jY2--23" style="edgeStyle=orthogonalEdgeStyle;rounded=0;orthogonalLoop=1;jettySize=auto;html=1;entryX=0;entryY=0.5;entryDx=0;entryDy=0;fillColor=#a20025;strokeColor=#6F0000;exitX=1;exitY=0.5;exitDx=0;exitDy=0;" parent="1" source="mkZb7But-M1EcUp0jY2--24" edge="1">
          <mxGeometry relative="1" as="geometry">
            <mxPoint x="390" y="503" as="sourcePoint" />
            <mxPoint x="440" y="553" as="targetPoint" />
          </mxGeometry>
        </mxCell>
        <mxCell id="Q_Ax5hJaPmwDY98neo3T-22" value="6V" style="edgeLabel;html=1;align=center;verticalAlign=middle;resizable=0;points=[];" vertex="1" connectable="0" parent="mkZb7But-M1EcUp0jY2--23">
          <mxGeometry x="-0.0226" y="-2" relative="1" as="geometry">
            <mxPoint as="offset" />
          </mxGeometry>
        </mxCell>
        <mxCell id="mkZb7But-M1EcUp0jY2--24" value="PIL +&amp;nbsp;" style="rounded=0;whiteSpace=wrap;html=1;" parent="1" vertex="1">
          <mxGeometry x="240" y="543" width="60" height="20" as="geometry" />
        </mxCell>
        <mxCell id="mkZb7But-M1EcUp0jY2--25" value="PIL -" style="rounded=0;whiteSpace=wrap;html=1;" parent="1" vertex="1">
          <mxGeometry x="240" y="563" width="60" height="20" as="geometry" />
        </mxCell>
        <mxCell id="mkZb7But-M1EcUp0jY2--26" value="6V_RTN" style="edgeStyle=orthogonalEdgeStyle;rounded=0;orthogonalLoop=1;jettySize=auto;html=1;exitX=1;exitY=0.5;exitDx=0;exitDy=0;startArrow=none;startFill=0;entryX=0;entryY=0.5;entryDx=0;entryDy=0;" parent="1" source="mkZb7But-M1EcUp0jY2--25" target="mkZb7But-M1EcUp0jY2--22" edge="1">
          <mxGeometry relative="1" as="geometry">
            <mxPoint x="360" y="603" as="sourcePoint" />
            <mxPoint x="500" y="603" as="targetPoint" />
          </mxGeometry>
        </mxCell>
        <mxCell id="Q_Ax5hJaPmwDY98neo3T-3" value="MOTOR_1 (+)" style="rounded=0;whiteSpace=wrap;html=1;" vertex="1" parent="1">
          <mxGeometry x="540" y="363" width="90" height="20" as="geometry" />
        </mxCell>
        <mxCell id="Q_Ax5hJaPmwDY98neo3T-7" value="MOTOR_1 (-)" style="rounded=0;whiteSpace=wrap;html=1;" vertex="1" parent="1">
          <mxGeometry x="540" y="383" width="90" height="20" as="geometry" />
        </mxCell>
        <mxCell id="Q_Ax5hJaPmwDY98neo3T-8" value="MOTOR_2 (+)" style="rounded=0;whiteSpace=wrap;html=1;" vertex="1" parent="1">
          <mxGeometry x="540" y="423" width="90" height="20" as="geometry" />
        </mxCell>
        <mxCell id="Q_Ax5hJaPmwDY98neo3T-9" value="MOTOR_2 (-)" style="rounded=0;whiteSpace=wrap;html=1;" vertex="1" parent="1">
          <mxGeometry x="540" y="443" width="90" height="20" as="geometry" />
        </mxCell>
        <mxCell id="Q_Ax5hJaPmwDY98neo3T-12" value="MOTOR_1 (+)" style="rounded=0;whiteSpace=wrap;html=1;" vertex="1" parent="1">
          <mxGeometry x="740" y="363" width="90" height="20" as="geometry" />
        </mxCell>
        <mxCell id="Q_Ax5hJaPmwDY98neo3T-13" value="MOTOR_1 (-)" style="rounded=0;whiteSpace=wrap;html=1;" vertex="1" parent="1">
          <mxGeometry x="740" y="383" width="90" height="20" as="geometry" />
        </mxCell>
        <mxCell id="Q_Ax5hJaPmwDY98neo3T-14" value="MOTOR_2 (+)" style="rounded=0;whiteSpace=wrap;html=1;" vertex="1" parent="1">
          <mxGeometry x="740" y="423" width="90" height="20" as="geometry" />
        </mxCell>
        <mxCell id="Q_Ax5hJaPmwDY98neo3T-15" value="MOTOR_2 (-)" style="rounded=0;whiteSpace=wrap;html=1;" vertex="1" parent="1">
          <mxGeometry x="740" y="443" width="90" height="20" as="geometry" />
        </mxCell>
        <mxCell id="Q_Ax5hJaPmwDY98neo3T-16" style="edgeStyle=orthogonalEdgeStyle;rounded=0;orthogonalLoop=1;jettySize=auto;html=1;fillColor=#a20025;strokeColor=#6F0000;exitX=1;exitY=0.5;exitDx=0;exitDy=0;entryX=0;entryY=0.5;entryDx=0;entryDy=0;" edge="1" parent="1" source="Q_Ax5hJaPmwDY98neo3T-3" target="Q_Ax5hJaPmwDY98neo3T-12">
          <mxGeometry relative="1" as="geometry">
            <mxPoint x="710" y="513" as="sourcePoint" />
            <mxPoint x="690" y="373" as="targetPoint" />
          </mxGeometry>
        </mxCell>
        <mxCell id="Q_Ax5hJaPmwDY98neo3T-17" style="edgeStyle=orthogonalEdgeStyle;rounded=0;orthogonalLoop=1;jettySize=auto;html=1;fillColor=#a20025;strokeColor=#6F0000;exitX=1;exitY=0.5;exitDx=0;exitDy=0;entryX=0;entryY=0.5;entryDx=0;entryDy=0;" edge="1" parent="1" source="Q_Ax5hJaPmwDY98neo3T-8" target="Q_Ax5hJaPmwDY98neo3T-14">
          <mxGeometry relative="1" as="geometry">
            <mxPoint x="660" y="423" as="sourcePoint" />
            <mxPoint x="720" y="423" as="targetPoint" />
          </mxGeometry>
        </mxCell>
        <mxCell id="Q_Ax5hJaPmwDY98neo3T-18" style="edgeStyle=orthogonalEdgeStyle;rounded=0;orthogonalLoop=1;jettySize=auto;html=1;exitX=0;exitY=0.5;exitDx=0;exitDy=0;startArrow=none;startFill=0;entryX=1;entryY=0.5;entryDx=0;entryDy=0;" edge="1" parent="1" source="Q_Ax5hJaPmwDY98neo3T-13" target="Q_Ax5hJaPmwDY98neo3T-7">
          <mxGeometry relative="1" as="geometry">
            <mxPoint x="660" y="483" as="sourcePoint" />
            <mxPoint x="800" y="483" as="targetPoint" />
          </mxGeometry>
        </mxCell>
        <mxCell id="Q_Ax5hJaPmwDY98neo3T-20" value="MOTOR_1_RTN" style="edgeLabel;html=1;align=center;verticalAlign=middle;resizable=0;points=[];" vertex="1" connectable="0" parent="Q_Ax5hJaPmwDY98neo3T-18">
          <mxGeometry x="0.04" relative="1" as="geometry">
            <mxPoint as="offset" />
          </mxGeometry>
        </mxCell>
        <mxCell id="Q_Ax5hJaPmwDY98neo3T-19" style="edgeStyle=orthogonalEdgeStyle;rounded=0;orthogonalLoop=1;jettySize=auto;html=1;startArrow=none;startFill=0;entryX=1;entryY=0.5;entryDx=0;entryDy=0;exitX=0;exitY=0.5;exitDx=0;exitDy=0;" edge="1" parent="1" source="Q_Ax5hJaPmwDY98neo3T-15" target="Q_Ax5hJaPmwDY98neo3T-9">
          <mxGeometry relative="1" as="geometry">
            <mxPoint x="690" y="453" as="sourcePoint" />
            <mxPoint x="660" y="453" as="targetPoint" />
          </mxGeometry>
        </mxCell>
        <mxCell id="Q_Ax5hJaPmwDY98neo3T-21" value="MOTOR_2_RTN" style="edgeLabel;html=1;align=center;verticalAlign=middle;resizable=0;points=[];" vertex="1" connectable="0" parent="Q_Ax5hJaPmwDY98neo3T-19">
          <mxGeometry x="-0.0327" y="2" relative="1" as="geometry">
            <mxPoint as="offset" />
          </mxGeometry>
        </mxCell>
      </root>
    </mxGraphModel>
  </diagram>
  <diagram id="o7bAKtTVmdCoDaggFBLx" name="Dimensions">
    <mxGraphModel dx="1188" dy="708" grid="1" gridSize="10" guides="1" tooltips="1" connect="1" arrows="1" fold="1" page="1" pageScale="1" pageWidth="850" pageHeight="1100" math="0" shadow="0">
      <root>
        <mxCell id="0" />
        <mxCell id="1" parent="0" />
        <mxCell id="yoTMts93zcVNUG2bbSdW-12" value="" style="shape=image;verticalLabelPosition=bottom;labelBackgroundColor=default;verticalAlign=top;aspect=fixed;imageAspect=0;image=data:image/png,iVBORw0KGgoAAAANSUhEUgAAA3gAAAIBCAYAAAAbNB3zAAAAAXNSR0IArs4c6QAAAARnQU1BAACxjwv8YQUAAAAJcEhZcwAADsMAAA7DAcdvqGQAAP+lSURBVHhe7J0FgFzV1cfPusTd3UMSJI4EAgQLWiRogeBao3ylQikV2tLiUtxJgAQnCRY0QIy4ECFK3HV19ru/k7nL7LAyuzuzev7wMrMzb57c994553/sxtWvXz9PDAaDwWAwGAwGg8FQ7REffDUYDAaDwWAwGAwGQzWHETyDwWAwGAwGg8FgqCEokKK5c+fO4DuDwWAwGAwGg8FgMFQHNGjQIPjOIngGg8FgMBgMBoPBUGNgBM9gMBgMBoPBYDAYagiM4BkMBoPBYDAYDAZDDYERPIPBYDAYDAaDwWCoITCCZzAYDLUVeXmSFwhIwC288rfBYDAYDIbqDeuiaTAYDLUMmZmZsn79evnqq69k3ty5snrNGomPj5c+Bx0kPXv1kgEDBkjLli0lISEh+AuDwWAwGAxVGaFdNI3gGQwGQy1CTk6OrFixQt566y35+OOPZY0jd9u3b1eC16ZNG2nevLmceeaZMnz4cOnYsaPExcUFf2kwGAwGg6GqwqZJMBgMhlqK3bt3y/z58+W1116TlStXKok76aSTZMSIEdKqVSuZPXu2vP/++7JgwQIlgwaDwWAwGKoXjOAZDAZDLcLmzZtl3rx5smzZMk3FvO222+SRRx6Rhx9+WP7617/qZ5DATZs2SUZGhuzYsUM2btwoGzZsyF/4js/5nvo9FtI++SwrKyu4px+Rl5en6+7atUvX42+DwWAwGAyxgaVoGgwGQy3CwoUL5aWXXlJCd95558nVV18tBx98sCQmJio5W7VqleTm5krjxo01dfPJJ5+Ub775Rvbv36+/Zz2nN+TQQw+Vk08+WX9LeuecOXPkgw8+kLPPPlv69eun63lkZ2drOijE8qijjtLfpqSkBL81GAwGg8FQXliKpsFgMBQGukqGLDURTZo0kW7duimBmzFjhpK9t99+W7777jvJdgSvXbt20qlTJ10Pwrdu3Tr9Xf/+/ZXQkco5ePBg2bdvnxK6adOmaQSvUaNGmvL5ww8/6Heh2LNnj6xevVobu1DjV6Oat3CvBKOYFpk0GAwGQ1VAQkpKyh3B95qqYzAYDLUFpA2SuUDK4dq1a2XJkiVKeohYEclq3bq1JCUlaYSqpoDzSU5O1vecNwQOckftHcuWLVskLS1N6tatK9u2bZPPP/9c6tWrJ6eddpocffTRctBBB0mPHj2UAPId0bk+ffroOnTl5HeQOL73+P7772Xu3Ln6nno/onc1pXnLOkdap0yZIp9++qmeJymw3FOQXGoYIbMs1qzGYDAYDLHEP//5z+A7I3gGg6EGg4gK6YaQEKJRRJK2bt2qpIZOkosXLZLZc+bkk7rPHGEhKvXZZ58p+Tn88MMlPT1djfPQyF5VWjwiJRCkTpLG0blzZ33PNiB1kLzp06drbR4EEJLGuEFeGjZsKCeeeKKmY7Zo0UIXvn/nnXd0m0T0iAguX75c0zp5T/MWj6lTp2oEjy6dQ4cOjfhYfX1f+DlXpQWnwCuvvCJjxozR5jWMH/cWDgLuMwgfRJn6Q9JcuR/9uQHGwsifwWAwGMqLUIJnNXgGg6HGAIMbA5rISa5bIHW7Hanbu3evkjuahWB8Q0QwzPkbQoLxzTq+AQikbsiQISosITOh9WRVCRCD1NRUjZoRmSsNOE/OFwIC+Vq8eLGS3Pfee0+jdKNHj5YuXbrIPffco+PB39TWAcZ27Q8/yP33369E8corr1TS+OGHH2qt3eBBg+S8UaM08hlw1+PhRx7R/RxxxBFKFCMBx8c1IxLmSVFVBHWFTz31lE474RvMcE0YM6KajAvdSRlLFtJf27ZtK3Xq1MlfWJ97zEf7alLE2GAwGAwVg9AaPCN4BoOhRoCICISFed0gLKRc8p60OerC+JtICmmZ+STQvYZHiABkifTMYcOGqQFeVQ1uSMEhhxwixx13nLRv3z74aeTgfDl/xgFyAuG94YYblARffPHFOhfeAw88oJGoww47TIkKvyGyR70dETn2DXFjjBjre++9V7p36yZXONIHwUGv/O1vf9PGLBdeeKF07do1uPfiwbX84osvNO2T46qqgLiSfrp06dKfROVYGBcWrhUL6amMBdeL8evQoYNGO6l95G8+h7BbVM9gMBgMpYERPIPBUKNA1Gjy5Mly7LHHarohxjZROkgdjT1Iy0S+Qe48iSsOGOQIyu7du2u6YlU1tiGi1MWNGjVKjzUSMBbffvutTJgwQQYOHKi/h1gwLhDgyy+/XDtiQvCIthGlW7Roka4DMYEMsi7TKfDb3r1759fbMcasD0aOHCl9+/bV9Ndx48ZJr1699DhDFVBxIJ3xzTff1IgiRL2qgigjDgRSeiO5t7iXuG6kvZLK2rJlSyV3REKpbWT+QZrgQK7LQtoNBoPBUDthBM9gMNQoPPHEE/Liiy9qHTGGM/OxYXCzMG8bpAbix0LEhVdSMn3qX7hhDqkjne7cc8/VKBSRF78OBjrv/WtlfsZxERGjwyU1cZGAc//oo4/kX//6l6ZcXn7ZZUrW3IaVGP/yl79UXXDJJZdovdx9992n4wmZg4jwHZE6cMEFF2gE0TdtISr6+uuvKyEkMkVjFrp0Mv7UMxLt45gjAVFCiCZ1baTRRjomFf0Z5JNmM7Nmzcq/n0LBOixE5SB0TZs21bRfXvmb60ZktHmzZtLMvb/rrrs0jfMyd11oXmMwGAwGQyQwgmcwGGoUmKgbggcZIWpETZPW3+3erVEpCArExqdqskD0qL1j8bVeRPiIHEFCaBzy3//+VyMsofVtoYa+R2V+xrGR9hfp1AOcH81UODdSL4855hglEmyLukRqyRhD0ik5d2rwILnXXXedNlmBrBGVe/755zVKR6QJgsLvATVpTLvAuENS/vOf/yiBZHqFnj176jqRgHPlGpKq6VMfQWnGpiI+g9g99thjGm3kbzqQcv/5TqREPRk/SB3jRP0dRLmZI3QoY0gerymQZPd7xh3yR12jr3k0GAwGg6EkGMEzGAw1CuEED+O6OGCoQ1TodEjXQyJS1O1R6wX5I7oHmfn3v/+thnkowasJILJJt1DGi3P389YxbkQEr7nmGp3OYKsjxXf985+qNCB4ROsgWxDmRx99VMkidYqQPD9GfEdElfo5JlJ/8MEH5eabb5ZTTjlF58qraWBqCZqsTJo0SckctZssEDlq60i3ZEwZw0juIyN4BoPBYCgLjOAZDIYahdISPOCbi5BWSKQIsoIM9F01icIceuihVbrJSllB+iMRNrpmkq5JTR7jQBrlUUcdpbV5RJuoByNlMJTg+d+TOkkUj9oxUjUhJf67sWPHyvjx4/V31ED+9re/1RRPn8pZk+A7szKenC/1iBA9umhyvkSDWSK9h4zgGQwGg6EsCCV41ovZYDDUSmBwE1GBDGKQkzJHxAWCOGjQII3g+TnwahogHBCRI488Urtmkq4JOYbEEZEraWoIviMqRRMQ0mBJ7fRITEiQ1o4ckp5IFI91ICzFba86g6gk00pQr8g9Q/0c44ei9SSvpjkIDAaDwVC1YVrHYDDUekDiqGGjlo2IHY1aMND5rCYSPM7Jkzzq4pjzD4JCJ07ImI+0QXpPPfVUrZ8LbeLC7yFwRPyI9oWmXsY5MtPFkb/TTz9dzj//fH0lZbEmjiNgrKixYwwYE18PWVPP12AwGAxVH0bwDAaDwVAoiESdeeaZcvLJJ/+kSycEhpRN5sAjTTMU1J/RgOWWW26R448/XkmjER6DwWAwGCoGRvAMBoPBUCiIRBGVIqpZWIol0SrSEHkNBevyGzpE8n2kHT4NBoPBYDCUH0bwDAaDwWAwGAwGg6GGwAiewWAwGAwGg8FgMNQQGMEzGAwGg8FgMBgMhhoCI3gGg8FgMBgMBoPBUENgBM9gMBgMBoPBYDAYagiM4BkMBoPBYDAYDAZDDYERPIPBYDAYDAaDwWCoITCCZzAYDIYSsXfvXvn666/l+eefl48++kj2798f/MZgMBgMBkNVghE8g8FgMJSI3bt3yyeffCKPPPKIvPfee7Jv377gNwaDwWAwGKoSjOAZDAaDoUQEAgHJzMzUSF5GRobk5eUFvzEYDAaDwVCVYATPYDAYDCWiWbNmct1118mrr74qt912mzRs2DD4jcFgMBgMhqoEI3gGg8FgKBGJiYnStGlT6dKli7Rq1UoSEhKC3xgMBoPBYKhKMIJnMBgMhhKRnZ0tP/zwgyxYsEBWr14tOTk5wW8MBoPBYDBUJRjBMxgMBkOJoPZu6tSp8tJLL2mzFerwDAaDwWAwVD0YwTMYDAZDidizZ4989dVX8txzz8mHH35o0yQYDAaDwVBFYQTPYDAYDAaDwWAwGGoIjOAZDAZDJYBpB3Jzc0VsuoGYgGkcGF/G2WAwGAyG2gQjeAaDwRAjQDIgGDQkoWZty5YtsmTJEvn88891svApX34pWdnZNqdclMF4MhH7N998IxMnTpRPP/1U5s2bp+NPainXg+ti424wGAyGmggjeAaDwRAFQBboNLl7927ZvHmzdppctGiRTJ8+XZuSvP322/LKK6/ICy+8IE888YQ89dRT8v4HH+jk4UY0ogtP8CZPnizPPvusjje1g2PHjtXr8NFHHyn5W7hwoaxatUo2btwou3btkqysLLsWBoPBYKj2iKtfv36+Ntu5c2fwncFgMFQfPPLII/Liiy/KfffdJ3379pW0tLTgN9EFxn/oQgog0SCIAQsyFLKwfv16WbdunZKHlStXyvLly/U9JMKjQYMGctxxx8n9998vdevWlfj4svnbkpKSJDk5Oebz0q1Zs0b++9//ahfNY489Vh588EFp3rx58Nvog/FlTCHNpU2z5LpAsv/617/KpEmTNHLnwQTtzOPXsWNH6datm7Rr107/ZmnZsqU0adJEx5NxZe4/lri4uPwF+NdY4MILL9T5Bq+88krp169f8FODwWCougjkBiQnK1uyM7Ik18nshMQESUh2MtQtCUkHZKgh9sCu8DCCZzAYqj0qguBBOHyqJWl+PlIHgVu8eLEsXbpUNmzYINu3b5cdO3aoPCU6x28gHCxswyM1NVV69uwp559/vhKKsihASB0Tj/fv319atGgR/DQ2qGiCB7GbM2eOzJ8/X8ezNIAQ0vVzwoQJOm8f7z0YZ8aNBfKWkpIi9erVU8XYqFEjHUeIX9euXXVsW7duLenp6Xq9uE6e/MUKRvAMBkN1Ql4gT3Zt2iZr5y2TxZ/NkvULlkmTDq2l3aHdpd3B3aR1z06SmJJkJK8CYATPYDDUKFQEwYPAUcflyQPEA2LH5N8QEOaJg9BBTDypKy7yRMSuTp06SijKqvggGyeccIJcccUVctBBBwU/jQ0qmuCRYvnyyy/La6+9JitWrAh+GjkYfyJ3XBfeFwXG3kfqPOHjuhBVbdu2rfTq1UuJONeL8T744IOlT58+um4sYATPYDBUJ6xfvErmvPeFzHn3C9myYp1k7N4ryempUrdRfWnpyN2hPxsu/U46XNIb1HUCN/gjQ0xgBM9gMNQoxJzg5eXJBx98IO++95506tRJDX7IA+SOKB5pmZs2bZKtW7eqHIVUQFB8Q4/QyJ0HRIJtnXLKKWWO4EEyevfuLUcddZS0adMm+GlsUNEEj/RM6uRmzJhRIMUyEjDeXIPPPvtMli1bptciHIw3pI17hQgdpM7pQ2nWrJkupGqSssm48vesWbP0OnPuI0eO1GsWCxjBMxgM1QHI2T3bdsrUMe/L9Fc/lB/mLZPUeumSmJIseYGAZO7eL3EJCdK+f0859bbLpW2fLrJr03ZZM2ep7N+5W/qefLjUa9ZIUzgDObmyb8dumTthivt9irTt11VadG8nGbv2ue1Pkv07fszCgCQiv5t0bC0te3SQpp1aS52G9YJf1m4YwTMYDDUKFUHwxowdK2PGjJFhw4bJJZdcomQAEkI0b+3atbpQdwcJgPRBSjzho/aOBdLha8qIEEEWHnjggXLX4EEWa2oNHktZa/D+9re/yfvvv6/XwUfqGGsW0jKpx4PIQahYIHRE7SB11OShLBlbiDrNWmbOnCknnniiptXyeSxgBM9gMFQH5GbnyPfTFsik/7wg338zT+q3aCy9jh0oqfXrKGHbuHSNrJq5SNM3T3EEr//PhsuezTtkxrjJsmLaPBn5+8uly9B+UqdxA0f49srKbxfJu3972pG2jjLwvOOl2xH9ZNsPm+XB038l21ZvlLj4kDpopy9b9uwo3Y86RHqPGCw9jjpU6/7cCvp9bUUowUtwSuqO4Hu57bbbgu8MBoOh+oBOlXPnzpWTTjpJUx5jUSNFSiZLhw4dZMCAAUrwqMviFVJAJG3gwIEyePBgGTRokK7D33wOYWA9SAHk0/+OSOCZZ56p7/3npV0417KSw9IAgvr1119rmqqPPBL1ihU8IWPMCjvv4haia5A87gsIN38ThaOhyqGHHipHHHGEprYy9twzLPxNJJRUV9aD/HFNGF+29e233yqBpzYvlima48eP14jiYYcdFvO6SoPBYCgLcMBl78/WtMxFH0+T+Lh4jcgd/4sLpMfRh0nHIQdpdG7ftl2yZu4ScStIu77dpHH7FpK5Z58smzJXyVjTTm2kbpMGsm3NJkf8PpKNS1ZL7+MGStfD+0pavTqyb/su+fzJN/Q1tU661G3aUFLqpElKWorscORv84ofJC83IJ0G9JYk9xnErzbjn//8Z/CdTZNgMBgMUYOvq6MxBySAaN+oUaPkd7/7nTz++OPyzjvvyBtvvKFRu1/+8pdy/PHHK1HwXklDdMB4Qs4Y/5tuukkju9Tz0XTlySeflNtvv10uvfRSOfroozVKBqEjolcRRNlgMBiqPRzBy8nKkh8Wfq9pmnlOdO7btVcWfDhVZr7+qcx583NZv3DlgVVpwrJ+q+zZuE3S6qZr1K77sMNk4UdT5Yf5y2T3pu2yYdH3Mvvtz6XTkL7SxZG7hi2b6G89GrRuJsf/6gK57csn5XdfPCm3fvqYnHTLJVK/eWNZO2+5rHXHkZOZHVzbAEybGQwGQxQBuSBdksgPkSOIBimBRISIItGZEeJx1lln6TQJRKiM4EUXnmhD4M444wwZPny4RuZIKeU6QOaIkjH2XCeul10Dg8FgiAyQtqyMTFm3YLns275bdvywSeZP+ko+vPcl+eCeF9zyonz++HhZ9Ml0rcfbtnqDbFmzQTL3ZUjDVk2l14iBkpiaIsunLtCUzcWfz1a53ePIQ6RJu5ZalxcKvksJRvDqNWso9R0BbNyxpSTVSZG923bIbkceS5vKX9NhBM9gMBgqCJAISAV1X6RtkoIX69q52goioxA6oqmMN4TOSJzBYDCUH3nuv9ycXNmzZYdkO6KX5Yjb9rUbZd3C7/OXDUtWyc71WzSdM2P3Htm/a49kZ2ZrI5Z2/bpJh/69HEH8Xqa+8r6snv2ddBp8kLTt20XSaZhSgqzWefeI2OWJJNdJk/RG9S0DIww2GgaDwWCIGJCkWNWfGQwGg6E6IE7iE+J1OoR4pw/qNGkg7Q/rKf1GHlno0uekw6VFt/aS4tYnOtegZRPpc+IQR9KyZM2s73RqhYNPPUoatmmuk6OHg8jfDwuWy5z3vtRl9jufy/ffzJfs/VnSvHNbad6ljduuOUtDYQTPYDAYDMWC1Be6f9JshJRG0hzNW2owGAy1E/HxcZKcmiLNu7aXtPp1pEX3DnL0NefIFc/eIVc+9xddRj9zh1z2xJ/k54/+Xi5/8k8y8JzjpGHrpuokTEpOlq5D+mq6JoSvfrOG0nVoXyWAhc2Vt3vTNvnmxQny1KV3uOXP8uzov8qstz6VpNRk6TToIGncroUSTcOPMA1tMBgMhiJB/cTu3bu1g+T27du1fo2pKGI1D5zBYDAYqjrI5EiQZp3b6LQIGbv2yt4tOxxBS5P0hvWlTqP6Om3B7s3bZc3cZZKxc692u/TAabhl5TpN22RKhf279snmVeslNycnuMZPkZudK9n7MiRz736N/PU+frAcf/P5OqVCUnKSpeCHwQiewWAwGAqFKuGtW+Waa66RX//61/Lll19qXRtTP9Qmgofh4JvlGLE1GAy1HXCpxJQknZC8QYsmsmPtJvn2jcny/n0vy/TXPpAZr0+Wzx5/Q97561Py5p8flbfufFK+n75QsjOylNDt2bpDvn3zU029bNy+pdbUTRv7gezYsFVr+8JR3+1j2FVnybWv3iXn3/NraX9od230EsjNk9S66QcOyFAARvAMBoPBUCRIzVy6dKmsX79e5wA8+eSTdS44UjVrCzjXgw8+WEaMGKFzF1pjHIPBUKvhCFV8UqJ0HNBLuh15qBKwDd+tkqkvT5RP/zdePnl0nHzz8iT57tMZsnnZWp2jLjk9Tev2Mvbs06kNln05W5p3bScDzj1e2vTpIks+/VY/379zT3AnPyLZ/b5ljw7S58Shcuhpw7Smb9/O3bJmzhLZsX5LcC1DKIzgGQwGg6FIELliqoGLLrpILrvsMn1PFK82kRyidsyXx7yFPXr0MIJnMBhqPeKdHKTBSb9TjpA+Jx8uTTu2lj2bd8jyr+cpeaOrJs1XujoCeNjPhkuLbu0kPj5Bdm7YKos/meGI3n7pMqSvplh2H3aI5GRkybIp7nc/bNIoX2GgXq9ei8Zy0ElDtcEL8+itmrlYcrNzhLn5DD/CCJ7BYDAYCgWNVBo1aqQTg//zn/+Uyy+/XNMza1sXTVI0Sc9kLEKnW6D9t18MBoOhtgHC1WVoXzni0lPlyCvOkN4jBkurnp2kVa/O0u2oQ2XIhSfLiF9eID2GHSp1mzaQ/bv3ajfMRR9Pk7aHdJP2h3SXVj06Srt+3aXjoIMcOZwrP8xbptG5osQq+2x7cDedViE7M1O++2ymksbckBo/gxE8g8FgMBh+RFFWBZ+HfEfzmaysLMnIyJAcGgP474v6vcFgMNRAJKUkaYrlUaNPl1H//bXc8MZ/5IbX/y2XPPx/cvzNo6THUYdISp00Ece/1i9aKQs+nCZ7t++SQ04dJs07t5HE5ERp0r6lDDz3eMnYvV+/Xz1riROlRRM20uZ7HjNAm7ysnrNEZr75qU61YM62H2EEz2AwGAwGD1+sH07Ygp9D5rZt2yZz5s6V1157TZ566il5+623ZN68ebJt+3bJdcTPYDAYag2cbExMStRmJ/WaNpQm7Vq4paXOdZdWv64kpiTnZz3Ua9bIEbP+2v2y08Dekhac1JzJzzv27ynDrz9bDhoxWBq0aqr1enTjPO7mC+TYG89z6/fSbQC217xzaznszGPk8J+PlJbd2mtkz/AjjOAZDAaDwRAODBK/BLFp82b55ptvZMyYMfLYY4/JW47YffDBB/LauHHypCN6zz77rEybNk0JIHMGGgwGQ20BpAtSBtFioUYvLv5H+QnjaNiqiXQ74mA55LSjlMR5UsaUCpC/vicdLt2HHSqN2jbXer00R/wgcYeecbS07NlR1/WAULY/uLv+pl2/bjonnieSBiN4BoOhgkFK2759+7Q7o8FQ1cFUEfv375e1a9bI559/LhMmTJCvvvpKNjuyR01e27ZttRHNGvf9Rx99JOPHj5f58+fr3IGGmg3uDdJ09+zZo9cb2WbE3mAoHJAv5sxjUvIm7VsVnLvOvUL2Grdtod+nN6ir5DDBrUMaZ/MubTWaF4q4+HhJd5817dBKJ1BPsInOC8AInsFQSpDjjSLfsWOHEhWUfDhYB6Nw586dOjk0r0Up/lADgW2xHn/zG7ZRVcCx7d27N/+8y2LIMInpiu+/lyVLlui4GAxVEsG0TP8sLl++XCZMnKjk7Xt3/x522GHyxz/+UW7/05/kT27h9brrrpODDjpIPvvsM/nkk09kxYoV1c6JQfopzziyh2MvrJ7Fr8PziyxARhUmA/mM75BrvHq5uWvXLv1M6xarCLjO/nwyMzODnxYP5DaRWu6Nb7/9VmbMmCHfffedbNmypUyy0WAwGKKJhJSUlDuC7+W2224LvjMYDEUBw2T27NnyxhtvqPHXokULSU1NDX57ABhHpHJNdEbhF198ofOIMYcYnfjCUwgWLVokn376qcydO1e6d++uhsb7778vU6ZMUWOjc+fOwTUrFxg/H3/8sUyaNEnPz3cUjBQYeFu3bpV77r1XDeBmzZrpfGrRwPTp03X8TjrpJL0esZijjagMC9fx0EMP1aiNoRoD8lJYOk+Q1HC/bnf3PPcWdXbc+8yFN2rUKJ0LsF27dlK/fn2pW6eONGjYUNq0aSPdunWTDRs2qKFPp1HulXrumS90P0UAEslzBYnkXq5I/PDDDxqdnDx5sj6fyKvwjqnMh4i8IpI5c+ZMHafGjRv/RAZCAqdOnapyDJlGpJP1SWllfJo2barjVxVSqpBLjz76qBK1evXqSevWrYPfFA2I3XvvvaepuizoA+4ViF+nTp0KlfUGg8EQS9Dt2sMieAZDKcEcWBhCKPSXX35ZPbbhnm481JC7//3vf1qX89BDD6nnH+UfDjy/r7zyiqZ3AYwhDCi2P2vWLP2sKoBz+vrrr/VYMdTw8kcKH/1748031egjva0qefANtQz+eQ17bvmbZ5mI00xn7D///PMyduxYNdSvvPJKJXeQ+wYNGijxocaEqSQS3JKakqIk74ILLlADH8cN0byMzMyfyIeqCiLzCxculHHjxinR2+kIbgG485g7Z468/vrr8vTTT8uLL76ohBTSFx7F27hxo57/u+++q9vkeeeVvyF5mzZtqjLjQlSR68x5L1u2LPhp0UD+s/4zzzwjq1atklatWikZh9wzHo888oisXbu2UHlvMBgMFQEjeAZDKYFBl+SMOwwWiA6RrfCUHFJ3SNGiLgfCRkriunXr1IAKBdvgO7zBbDfFGYl8hvGDEcG2qwo4Ljzd/pz4OxJgxBHppMsgHm/ONdLfGgwxQWhkxZMM98p9ucXd458EHSyQNIz3U045RUYcf7z06tlTyR3Paj6C24IEpqWmSp+DDpIjjzxS/6bhyuLFizUSXx1IHvKHc8MBw7nj1Ak9bjqErnHEZeXKlUrqWI9oHPIuPB0VsgNZYh2iWTjG2B6/g/yRrllVxoRjR66xIKuKAsfLPcJ1xTHHNR45cqTceOONupBBACCwRPvD5b3BYDBUFIzgGQxlQMNGjTT9CsID2Qn31GIoQM5IXerRo4caBnh6w6NeGACQOQwF0hWTk2tWFyi8+owRkUi8/oUZjQZDpSDkOeM+5b5csnSpfPjhh7pAUEi5PO200+R4R+5I20txBK6455Oi/zp16sjAgQOlV69eGhkiMs8zHk6AqiIgYs2bN9dzgIjtdfLJR+Z4ZpFzOJ4grESsIL883ywQtlCQ2YAMJN0U2RaLtOmKBmNAdBdyx7UlmnvhhRfKueeeq9Fdorek8SLrIYHFkUWDwWCIJYzgGQxlAHUaGDcYbXivUfoeGAFEqzB6SNU66qijlLhBbsLTkiCH/JaoAISxKBAhxHPMEp4KFQ6+Zz2OjddIyBTrhP6mpH1ECowgopy0lSc1i7q10tTtGQwxhSNr3PvcpwsWLtRpD0g9JJ349NNPl0suuUSGDBmizzvk7Sco7Nly20Q28NxDbCCLODhw7kTyLFamg4c6OmQRzyiyKbSZEjIBEkc9MXICxxVNZZBpZCeEkxnOF0LI9qi/K+y8QuUO+ylufPiOdVg3kvUBx+zXj4ZcY5/cK5wvsqxnz57SpUsXTdcl+sl49OnTR2U66eysazAYwuCe22jZGIaiYQTPYCgDUOY0CMBowNPtjRsMDowa0i5JScKLj0cXI4CaDFKTMDY8+JvIAYYV0b5C4baJsYTnXL3qzvgsChggHAsGCDV/GF8YZcUJU77DIOFY8DzzW44pGvjyyy/lpZde0nSls88+W0aMGKHGr8FQ6XDPlRIM98ww/QHEjleibzfffLMcO3y4RrOKhPstZC7/1b93S6J79on+HX744dqshNouiFEkHRpxBhHtqgyix74hdxAW5AEExcsr5ARyiOwEZN/QoUN1rJBHq1ev/kk6eahsoyFTgbRWBy8rSeFEtvEaKhvDwbo4zdg/cor9IX+LArKQY2PbpMsTkS1vyiRj4McEeU0UkzHz4FwhflxndECo489gMBxAbk6u7N+5RwK5RvJiCSN4BkMZQApTy5YtVbmjyH1kDqMCowYjAK8/UTm67bVv316JFkZJaCoTvyWVCYMOT3co2B4G1ZdTpsjdd98tv/nNb+T//u//tHELJCzUGPLGEt0pH3zwQfntb3+rbdv/8Ic/yJNPPql1QIUZQxhAkK/HH39cfve738lNN92kv6UpDB3l+J5tlxUYinQDvPbaa+Wiiy7SJhQ1IVXLUDPAM0Sd2Ntvv63P4XHHHaf3KZ1r69St+xNSkg+eCU/AQomYJ3oONF0hgkfHTaJhNBfC6YKM0N8XAWq6jj32WCWGFQ2eTcgYso1jxaHkSQrH7R1GEBsiVZwfjizIWbhTCELL+jjDSP0MBbKI72hS9ec//1ll29/+9je9DshOHaMgWBd5R4r33//+d/nFL36hy5133pmfShvuwEJukiKJHLvllltUrtElHBK/YMECve5lkWuMD/IcOYy8HD58uLvcP15/jpWF9UjpDSV/BoNBlNTt2bpTVs50NkmmNSGKJYzgGQxlAASPSBTGEMYbUTOMDJQ7xg5pmxg2GGl4eps0aZIfIeM7jAvWJaoH2FZ4tABvszc+IWF4oUl3JI2MTm0YSBhC7JdjgNxhMFHz45sbkBb65ptv6jJnzpwCEQTeM93Dc889p/ugWQIGHU1Q2BakD6OUbZcVRDEwmo93C1FMPNyVmYJmMHgE3DOIA4PpD7jHISxEmEk9JApTJLkDJd3D7ntSOpkKYMjgwTLYLXSQpDMlZIV9FwUiY/3795eGDRsGP6k48GyyX4gb8odx8QQPUoRDijFD7uG0ggjixEE+EVlDFrGwDrIEYkeaOkQn9LknEsdYIGfYJgsdN5Ff3rEEkJEQOGTUa6+9ptMQEJFj4T3ZAUwpw749IKBkDrzwwgv6HQ1hkL04uZji5fnnn1dZ6PdRGnBPcE59+/bVJXwaC87Lk1oyN9ATBoPhR2Ts3iublq+VVd8ulmwjeDGFETyDoQyAqGC8YehgAGEMYYwQRcPYIBqAcscAIJ0JYwgPt/8OggfBwiBgW0S22F4oMEAwbvjdgAEDtEMbKZ98RjdKDCiMLraDtx1jB0KH0UXUgIJ/IgF4k0k9Y24rSB9g/5BLjCoMXI4VbzTNAtgPhJOpGqibw0AK95BHio4dO8pBvXvrMeHpN3JnqCrgnubZwolB9BxSRU0Vz0u07lMMfSI+dOHk/sehwgIJKSqChCzgeUEuVAbIPCCCyfGScYBs41iRc8w1ybjhsMJ5BRnklRRN5AmyiO9xYhGJQ/7h2AknyxBHInzIGWQUC7KUuUO5HvyWfbJ/Gpq8+uqrGpWDNJ111lma7o1MxBkFacPxhfzlN3xGF0sIIDKViOh5552njiaIO3LwnXfeUVlYVrlWGJDFnBOymHHhfgqPXBoMtR17t+2SDYtXycbvVklulnXTjiWM4BkMZQBGIMobYoQR4usyMHAwMPgM44UUTQieV/YYKXyHYYHhxHuMSYyqwpqPYPRgnJCSROokBIzUH4wpyCH7YxsYXpC+Qw45RK655hpNHyKNiGX06NEa6aPo38/xhDGE4YQRxPGRznnrrbfmpx5dffXVSs4geZDG0LTS0gAjkbnC3EkGPzEYqgZ4JngGeSZ5Nhs5ozwlBil1SW6bNN8gMuejS0SgeAYdI/kxXdO/VjIglpA2SBnRKJ8yyStRSOQFpBXZhNzq16+fElnGEcLMeRExQzaxLuuFg6gfRPZXv/qVyp1f/vKXcsIJJ+hviLTh3EJGkvEAWWPbEDXWRz6xkHJJZBQHFGPKb3Cw4bTiOJG9TF3g5SDr0/ESMs8UGGwbmR0tII9JC4XkQZCJ8FkEz2AIgZNxe7bukA1LV8n2HzZpimZRji5D+WEEz2AoAyAueIMxhki5whuMcYKBQSolQgsjCDIGcYN4oeyJvrFgMEHMiOhhZGBghnvsMUSI2FHDhiHFOnjE+ZyUJvZDaiiGBUYRRhBeagwu9sUxYmDR4h2yyX4hnwDDFk8zrxgiGJ9sF8OL3+J1J10Ng5RjxCNvMNQ0eOMCMlNol8woAAcOBOjEE09UOUC0i0myeV6ZV07BcVQRJwjplMgCjht5AclDrhF145iJLiKHkH+cF1MFIOOQgcgY1oVgQfaQJWwrHMhFZBVEkm3wN/ISeeNTZpGnyFaOgVRvyByZEDjXWDgGOpUSTYQw4/Rin8hGrifRPmQnx+llIfKUrqgcq18/WoBY4mTj2JG53bt3r7QorMFQFRFwds/2dZtl3eKVsm/HHtm3c4/kZlsUL1YwgmcwlAEYEBgMkCmMEowgjAUIE1MkYDiSpgMpgzSRKoSxA1nCYMHbjJebNEu2g4HDeqHwUUIW9oeRwmesh5ccksh+MLrwRuPxfuaZZ9Qjfv3112tUjle83UTq2DepTABiiJGD9/uLL77Q6CDebv+b3//+91rrx/HhkcYoNRhqEnieeLYgCDzDGoUnqhZtuGcUssR+ICmkgRLp4Vnk2VWKWYUi3MgY6oZx8uCEQk4wNpA30ssZM+8MYgwhfMgnZISXbRA84NM4wwGpYx/8nrGBVPIZ8gyCiCzjmuBYgohRH3zPPfdoJgMyiuWGG27QpinU/0HwSH3leJGrOK8gWzRvCZWFNHIhIsh6/I5zKg84XlJXqemjjpnjHTRokEYbkfeMi8FgOIDszGzZtnqjbFi4QrL2ZWgnTUvTjB1M+hgMZQBGCZ5hUq8wdDDU8NxiOBBNo2EKC0YLSh5lT7MBfgcZZD2MJYwhDCTSlfguFPzOG1F8F7qEAqMCgwZjgzRM6kvoOOcXiBoEECMNwsZ6kFFPMDHK+A1pS/43EyZMUKOF9dg+52cw1CQkuOeLyDjp0zyLpCLzTOTDPSdRQfB5hThBmphaAOIzceLE/HTEqgQvrzhWLyuQATiIkCHMaedTODknomqQV5xGyBNekXEQQZ9xEA5kWmiHycLkGsSJ7ASieBAx0sVpFhUq25B3fMcx8opc5RhY6JYJ6QpdH3LHdSY6CHHlWMsDtkMmxbPPPqvykrR2IpOkaCK7w8/JYKjNoHvmtjUbZdfGrZqeuX/XXovgxRBG8AyGMgLyBmnjFQKEUYOhiJHI5xhBnpxhCNGdj2id94azkJ4JEcQQKgyRGAgYQhhgrEsnQFKQSLkMXahvofEKKUsAL7k3LDHYwtdn/i6arpx66qlqAGPAGQw1Bo648LzgpDniiCM0yoSjw3eahdjEAuyHqD/PFpFxmooQ+Ypms4/yAuJGaqF3OkGekG0+nRwSg2zjO0gM8gP5RUYB6yELWSCJROl4LQvIUiAjgkge8of01nA5dfTRR2tTKF5J8USuQdqQt8jg8PWPPPJIJWBMYk9qemHRxUjBWJABAVGHeEJkaRaD/OW+MhgMBbFl5XrZunq9ZO3PkOyMLMnYvU9yjODFDEbwDIYyAuMGwwZjAm8wBiKeYwwdjI1wzzWfETHA+CHihoGHMQnp4/OyAmOMfWFwkVr51FNPaSvw0IU248yfR5MCwDFjhHBMp512mqZ2sk74b/BM8xvqbAxlgDMC83bskLxNGyXP3SN5RAyqkDFfa+GeFUAUCacIDhBIHVEiIkY8w36daALy5DtHUqNFmiYLJOonpNL/HSOyWRSQI8gHmqNAsoiikSbJ4lMyvWzjb0gcC7IM+eczA/iOKB4OsLIA+Ypsg4ThmCK9sigZxfx4ED1kGvWARB8vvvhilWuh64f+hkZS1PaVFYwLdXdsCxIKacSJRnMXg8FQEHlO79E9c+vKDZKXG5CsPftl3y6rwYsljOAZDGUEBgzkDGOIGhC6UlIHgqHma+5CwWcYlJBB6j+Y7wmjiPUK66AZKfBuYywCDDL2AWHMX5yRleSMJZ/yiQGHgUbdH6/8hnPAGPO/4ZjYDuv6xVBKOIWWu3KlZD39lGTcdptk/P2vkj1hwgGSZ6h8BO9r7n0i1sz9huOFVGUIV6yiasgNntlRo0bpe+pjfZv/AvDPXAU/ezomTk4g2yAukDVq6jhGZAiEyzcPYV3kBusSOWP8iGqRtsi6yDXGtyzgt2Q3IKcg3IwVBC5UtnEcfA6QbRBNIorIL36DDAuVa6HHUx6ZhoxnPJhoHaI3bNgwjcqyb5OVBkNB8Lzsd4SO6N2eLdsd2cvTOfD2b98tuVnR62RrKAgjeAZDGYEBg9FAHR5GA8YN6VZ4cPEgY/SEgloVFgxHmgaQ8kTaJqlQZTWCAJ520pEQohiLeNrZB4YGyyZHKP/z3/9qwwFqUgBGD8YT50DkkWMnvcn/hpRP5tWjkcErr7xSsDbJEBmcwZ47Y7oEJk6SwHsTJDBhouS+85bkbdmi31U1+MYW3D80AcF4JULB1Bqk81alNMKowj03PAuk+dF5kXnSZs2apanUsQLEo3fv3jo/Hs8dDUF4Dn9C8tyxVQaIupFKSiomtcV0pqS+DSLsU88BsgJi5deFDOK8YuyQi8g7ZExZAHmDCCPfqCHmPuQYvIxi4Vrdfvvt8s9//lNJJfKYrAruY2QaMhb49dnOE088IZdffrnW4yHnygJILL/nXMluuOmmm9TJVtZopcFQkwGh2/HDZtm6ar3s3UZjqTynT3Jl7/ZdNtl5DGEEz2AoIzAYMNTw2mL8YlBgpGHosITXYRDB43OMDxoAEMkjXQsDpqxGEMBrjTHl561j4l9qiXz3OUgdxgjH5sGx9e7VS8klhhOpS/wGA4jU0a+++kqJHVFJ6mA4T0MpkZsrgfnzJG+1G/ecDLScBL5bKIGNGyQvMzO4UtUAdZxcd675o48+Kg899JA8/PDD+QtpbdwLGMQ1iugFCRT3N+l6NEDheYp1A5R4JzsgI9RrQQyQBTyjRIMKkDy3XmUgwZE2Imc4qSBJEBlqznBI4RxC9nnwHtnDuOEIwjlAZgJykc/KCq5JO7cNCBQk891331WHA3IWOUW2BA2kkHnUM3NcddLTdX2ijMiz1157Ta8jjjde+T0RWj9he2kdazjRGAcmY2f/bINaPkgl9wrHQYqvT1VlXYOhtoP0TMgdJC9z7/78z/Zt3+NUY7Y+V4bowwiewVBGYNjgycaYQNGj0FHwGEUYG3i2Q+FThTB+MDgwCCB3GCWhBlNpwf77OSODaADHAKGjLuTFF19Uw5xIHPukWQr1RoAUrL79+mlLb7zONAlg/RdeeEHJHoYR3eZYn7mj2IehFHD3Q54jTXlMmZGTJXHdu0lcz54iGzdJwBmoVSlNE3K35LvvNIrE/ULkjpQ8HAQY01OmTNG6TsgfacWxjGxVJng2ud9pwsG9T4dGyI0aH9E2QNzzzjMPCYLkEelinCENjG9lGzxerhFFo3EKhIrjpf6usCgVjivGz3cRRh5C7sraYAVwDG3btZNjjjlGu1LiYGD+QGQUC/V1XCOOE9nmj42pKCB5ONLonMm6yDbkGrIRAkYkkpRcZHJpwHkht3kOeD4gcMh8SOPLL7+sspaF9+wbwm4w1HYEcgOyfvEK2bVpa/60CMi4vdt2SVZGplvBCF4sYATPYCgjPMHDkMG4wRuMgUFUrjCCR9SMlCPq3vgO44moXhoEL7gOIJrHdgqrX/HfYTixDY6B7WCsjB49WiMQGBwYNDQeeOyxxzRCh9FDE4D8pgLudxiVGLN0ymSbr776qtx9990avWFuPNa99Oc/1/QrjoN9+ePCu87fpYU/bxaf5lUTkecMv8CWLZI3f6FIekOJG3yExB98qMjmbZI7f4E2XqkKQMlivL83YYKMGzdOu8ByD1144YVyzTXXaCobDUGor4IA4ghYuGCB5FbBFNMygXs4eB9zPxK1YpJqng2MeFI1MejV/IgB6eJ5IAJEJ09qxhhj0v+ys7Jisr9IwbONTMNZxbPOcUKkkG3IgHDwHbINucRvkRHIRV5DgRwp6vlnH6zP4r/DAQYBvuiiizT1nejgvffeK//+979lzJgxemzILxqs6HG5fSMLcXZBDHFeIANJ4aTJFJkTdOO87tprNerIPoE/Zhb/WWGA4EHAfXSOyCvPzZ133il/+ctf8hcawtx3331KJg2GWg0nxnLds7J61hLZvWWHpmfqx06+7d66XbL3Z+R/ZoguEpxQvCP4Xm677bbgO4PBEAkwDEhbI40Rgwhj7YILLtBUJoyYUEDOMHBYeI+BQd0PEbIGIREyjBKfcoQxQl2QB8YFXnKMEIr62YYaJW6bzZs1U+Oc9UkZwuDC0LnWGTNnnXWWHhMGkQfHzjqsT/tw3mPA4d2+9NJL5Vpn4PNdPWfksS5RQI6L9+yH4w6vMywJRAMYKwxovOykiEYD1B6SdoWh5zubRhukqbFgaHLs4Sm4BeBIQe6C+RJ4402JHzxEEk4+SeLr15HcD94WadZSEg/rL/FROveyAgXLvUbUjlQ3jHPqmc477zwlHNx7nCfOgQEDBqhRyxhv275dP+P+Lk9qcVUE58MzwrNAEw3Omefa15Jx70cV7hoku3u1rtsH44mTBWLUyhFNSFPU9xch2C9R/hWObEK2iKBxT9AlEqdUOAnibwgqJIvjRy7RnZcIZeg9QuoicoTxJHuAyJ//nmgX31O/PGLECN0Px8G4kIKOzKHWmGuD8wknBJ0wcUD4ydYBr/zNvct9i0ON42CbOCwuueQS6dGzpz6/fnx5Dojasn1kIcdQGDhHnCAQRc4VWcC5hi9sh2PEWcDxGgy1FTwze7bukI8felW2rV4vAfc34NlLqZMuPY/pL827tJW4EDlhKDtwZnnEOQMtnzrbZMYGQ+lBfQjGCZ5+jENIEkZhYREq1mFdfgNo7oCXOpQMkloEkeIVIw9jxYPf4zWG6PkumKFkBq8y0Ra2D5GCJLIOxjvreYMmFAhgDBwMF/aJscZ+IW+hv6EZhJ/nCiOOpTBvflGAUECGOX/2gQFXWoJYFB555BGNWuI1h2QXS77KAnfsY8aO1agBHfOIlnL+hcKtG1ixQjKeeVryHv2fJFx2qSReeJHI7l2S+aub3esOSfnPfZJ42plYo8EfVTyo9Zo3b57cddddGmmAHN944416z3Dv+uvuoxZMfk/qGQ4GnIE4GHAu1DRwvtzj1LJ++eWX+iwTzWRKkQLExl1nRSHPVMRgG+73PHekbRNtYnyJrEOmkA2VCVJUfcoo19pH8EJJG2DMeLZZkCUAksPYhcocZAzrcH8h19im/57zZn98B0kKvbfYP2PEOhwP+0OusSA7w2Ut63N/e3kLqUQmsD7HBHkNvW58Tw2qJ4dFPdvsl+MgPZNX9lMYOCdkJwSwJj4jBkOk2LdzjyyfOk9euuFfsmXFuh8JnnvWGrZqJhc+8Fs55LSjJCGp6Mi5IXIg4zwsgmcwlBMYDhgEGAZ4pIuLbEAAeQBZlwVjozBvOAQLAhReI8Lv+Y4oFYZDuGHD3xwPhiHkkXX5m89DDa1QcKx+u+yTc/HbDv0Nf0PI2G5hx10S2BbbxaPN8ZWGHJaEKhXBcyQ71xG8nDdeJzQgic5QTxgwkAHUz2X2HIkfNFjiu/eQuBBiX5HAMMUQf//993WybYxxH+Xlfgi97rznWnFfMx0IjXsAc5P5lLyaBM6G8+Uex6FBijNOE6JYBZ5tzjtK5+6fW549SDdOHMaWe60oWVIRQFbxvHtHVFFOotBn28s2xjB8Xb8O54nMCf2eseXZRYaGP7+sx2dcE2SUr/ljG4WND+szpmyTfbE+x+9loVshuOYBIMs4R9Yr8rl28MfBOXCs/lzDl6LOw2CobcjYvVfWLlgu6xZ8r1MiMAceGZlJaSlam9fnxCHSqldHSUj8qUPcUHqERvAqT3MYDAZDDUQenv1NG0VWfS/SuZPEOWIQ54zLOGcsxx98CG41yVv7gwQceagsEIkgwgthJdJBShrkrihg2BIxpuMjRj8dComM1NQugZAG0vpI8SNq9fnnn6sDwUezooYg0WB8IT+kIZIaS6SK6CERrZ9MnWAwGAzVBETmGrVqKgePPFI6D+4rjdu2lMbtWkjvEYOl+7BDpV6zys1SqMkwgmcwGAxRRN6e3ZK3ZpXI2pUS16G9xDVtJnFEPpwBH9+tm8TVrSuBlSslsGY1TCv4qyAxdIY9zVlClzxHKogKRhMQPNLXfE0l0VsiIsWBiIyP8EJAfOpbjQOky5E40vhoMESdLISPaQxogEKqMt/rEg2wP7dA9Yj4UCtG/RYdTD/55BMllaRRGwwGQ3VDWv260nVoPzn2+nOl70lHSMtenaTjwIPktD9cIef++2bpOKi3pWfGCEbwDAZD5aAoIzmaxnMlILB5i+QuWS6yJ1cSBw2R+NatNT1T0tIlgeYNB/WSvI3rJW/pUiV1HrmzZknm889Lxn/uLrBkvfG65EIGowiiQrt379YOmkThSEsrKWXWpxHy6qcEqZEEz997jnTVd6TXT53AfGu05ee8lZSVFsH7mgggBPsn97jbJp+TLsv+qPl79dVXddoBoq0Gg8FQ3RAXHyeJycmS1qCuMo44t6Q3rCuN2jWXZp3aSLojgJWZhl6TYaNqMBgqB95IDhq++eBzFv95uCFcCKhVpIYmvK6nUrDBkbfFizQ6l7dtu3bTzP7yS8mZMkVyFy2mq43kbd4oeY605U+X4M4xzxGuPPdbWbVSZKVbli2RvK+/lLwlB34TTUAyaBJB0wsIHqStJCXL91q/5EBNGo1IaAwyfvx4efrpp7WmLzR9kfdECZmHjHnCqGWrFvD3H2/dORO1pLEO3Rqpj2O+uq1u3EqN4Ha5P5noXP9mvPzi4MeYVFi62RItZe63JUuW/EimQ8bYYDAYqjwQd+4la1+GOrGS66Q60pck8YlF9wYwlB9G8AwGQ+XBG7qhQt4bsIV9VwRoo06TEEheaZu/RBN5zggnPTNvqSN4jjgF3npLch56SHLu+a/k3H+/5D7xuORB8task8CaNRIgGgTcOSZ07SpJI0ZI0nmjJOmccyThiCMlvnMXiW/RUuIaFdGxs4zwUSQiebxHyUaqaFmflEEWCAkkkYnRaXEfmkrIe9ILaeJCOmd1VeSpKSkaTaOrJefO9AmzZs+WnDKSbh0/N/akekLastx9wt+hoM6RyCHpoRDjqVOnKpnOY71qOo4Gg6F6Aj1BZ266LePYQ27hGNRMhAiRm5OrBC8vkKcEj7TMA4nphljBCJ7BYKj26Nmzp4wcOVI71/koU2Ugzym/wNo1Ips3izRuLHlr10qeIz95CxZoVI+0TMdAHfnLlbx1G5TkecR37iyJw4+VpDPPksRTTpG4tu0k/tD+Et/vYIlvFN1CdIgZKZm+MyKKuiRl7Ykdr0RMqdmjmyCkmjFnbrDQlE0/rQYE0HdOrDZw5+hBFI/UVJqfMAUH9YdfffWVdhSNqAFKyLZItaRxCiRx8uTJMun99+Xjjz+WGTNmyOpVqzSqynXg+tCNEYJH904mXGfZtXt3cEsOIds1GAyGWAG5RE3wm2++qRP7M2UOmQw0nuJzUvbJ6ihSHjpZlZOVrZOak7KZUqeOzt1r/C62sGkSDAZD5SJoqAbcK17Bffv3q0KBLEAofEpbcREgUjMLm9ohmohkmoTcZUslMPkTyVu+QuKOGSbxw4dLXP/+EnfwwQeWfv0kzpGEPEcA49w5xrVtI4mDhxSMyhBVI3XyheckvktXSTjM/T7KBA+SxlhDNBhnCDKT2hcX/UR5Uw82m+iVe3/uuedqvRjvUfAoeqZOYFy4BhAhum0yv9hRRx2lRKUyyXepEXJNOB9a7kOI8WIzVQRjxYTdEGUIWZFwv2W8SVdlLOjI+e6772rTFpqoQO6WL18uO3ft0nuYhfsZ4l3XGUINGjaUL774Qg0o34I/f3+h943BYDCUEcgoFu/sQ/f6V+aupP74X//6l6bbQ+5w6JFdQOYGGRo4r9AFrI9zj9+yvQPbFsncu1+++3Sm7N++R1r16CSdBx9UvNw0lAmh0yQYwTMYDJUOlMFuZ8DSpRDlAfEg7Q/FgaFbJ2zy7cpAiQTPKbYcZ4jnfvW5xNdPk+Q/3iFJp50uiY7cJA49/MByuFuGDJHAhvUSWL5U4nJzJOGEkyQOYhU8tzxHcAMrvpfAF5+5dYdK/EEHaRfOaMMTPKJsEBU6RkIuigJKG8L27bff6jXxKbEocbbBXITUqjFXIoobxU+UinTD/o7kQkwq8/pFDKwRjjNonCiCx03kknOH0ELOunbtqtFJyF9RYHwwfJhzkMn4adbC+AwaNEhJNZFQmt2wPcaQaRkYK51zz93zRKUhh9Th0eCld+/eB+YfNOPIYDBEAZAynKqQNGQNqfWkZELsmJOTrAMIHanifM6CzKImmc9wWn300Ucq79ERfEcTL3QG20YG5u7ZL0u+mC37du2VFt3bS+dBvYN7N0QTRvAMBkPFwhvNHiHGM+Ru2fLlMmnSJBkzZox6ClEoGLREi0gDQUl4Q7qyvH7FEjx3PnTEzP3sM8lbuEDimrWQpPPOl/hGjSUuJeXANAl+cWQusHqV5C1ZJLJ/j8QfO0LimaIgGN2i8UqOI16BLVslYeBASWjXnpxK/S5a8ESLNEPOiTElwtamTRv9vDBAakgnJFUQYnLCCScoeeO3pGGStgiR86mYRKsmTpwoRx55pPTq1UuJTLUgeP4YefULcNc4wZ1rHUeCuR+J4mHoQI45Z77TdUPvdfceIr1o4UIld7w/5ZRTZNSoUTLEEX1SPhlLakiJDnK/M5YQSeYdJDpIpJBx9pFDnhdIHtM4FIDfp8FgMIQBuUEjLOQIuhVyRvYA2QHMuYmDCYIGUcMZRZYBC2mZb7/9ttZS42DCWeUjfbyHxEEMydjA0bdixQoleWwT4oc+nz1ntiz8brEs/2qupCQmSdeBB0nbvl2DR2aIJozgGQyGikeI0asvbsHgnecIBjn9GLcQONL8qHdiLjBIAV5EvIcoEuZr0whRqDFbQYZtSRG8vK1bJXfcOAmsWi3x7vgTTz5F4pKTf3p87u/Axk2St3iB5K1bK3Hdekm82yZEkLHJ+2Gt5Lzztn6WcPAhEt+0adTPEaLFAnlA0UP0iJCSqkl6YCiJRpnj1SXyhPInpfP8889XUuLTE/HWkr7JmEBM9Lq67XJNzzjjDJ00nO1WV3DOeKq/cQvXgvOB5BEBJaIHwWvsCFo+gQ2+0ogFD/grr7yir0xkTrMWJpXnN9zLvBKlY2E/EGjGk78h3IwvhA+DCgOKe5D9Q/oY//w7w+/bYDDUOkC2SOPGQUT2BFE09CYZF2TFILtxovLK38gZvofs0cAJ4kfGDLIemY9uQD4hh+gkDHDyIdtDwbosAB2CnOe36HL0NdkI6IQmdRvK3iUbpUHdetJlYB9p1bOj/sYQXRjBMxgMFQ8M0KAi4F+8idQevffee7Jo0SJVJESFiHAQCaKLIGQKA5poEPn+KA0iHZqy6UlIBRm2xRI8Z3znrlwpua++pjV0CSedLIn9BxR9bBkZEmAahGVLRRo2kQRHapkInd8G3JjkvPWmJBx3vCR07y5xdeoEfxRdQBwgCXhlGV+ipihkX8uI0oZUE6XCSKD2AkOAVM4LLrhArwPrsR2UPsYB15NIIIYGkVfSfmh+w3ZDSWN1A/cq9ykeaYwenBCcP6QWcgwBo9Mmxo1e8eB15/zxaD/zzDNKiI8//ngl0YxbKPgdY8QzgAHGb9g+zwHjhsFUz+0DIw7vONcEo4l1tFkBMIJnMNR4IJdxLiFziZzhOILMQdSQuUTlpk2bpgtEjrRvyBy6izppZAe/R5ciyyBv1PZ27NhRU87JtkDGo+NIIz/iiCM00wDnFdvACYU8Qk/gnCKlnN8ytQs6e8CAASq3+B0LmQqHHnKItK7fTLbNWymp6WnSeXAfada56GwRQ9lhBM9gMFQsMD49uXOvmY44oJRI/SAygjI588wzVaE0cEoHBQKxw4DFcEYBERFaS1dK93tqv+qS8leBpKFYgucUZu6S7yTw9VcS36GjJJx1lsS7Yy4KROvy1q+XwIqVIvUbaG1enDPgqb/LXbZccr/5WpJGnibxbdociALGAChsiAX1XKTXcG7UPTK+EBM+g9BhNJA6y3dEnqi9wwDgGvlIICSE1w8//FC6dOmiRgfphCh9olbh0c7qBoguhhP3H+dHhBlyzHlhPDFe3KOkEVM350keRBcSCDnEeYHhQ1S6MDCG/J40KYw17n0mPCcVk+2lOIMMowrjjNRX9seiqa/VmDwbDIbiwTOPDCK6xjQFyFccS8gWiBxyl7RKsizQp8hsnG1kvyDjcQZB0o455hiVQyeeeKI6m5jbc/jw4Vo7TcdeCBk6mHVxRNFEi98i59gnTlZkEJ+RYYOji9+RlYAj76STTpIRI0boNmmshZxkG82aNJV9W3bK0i9nS0qdNOl6xMHSuE3z4NkZoolQghfnGPwBq8uBG8dgMBhiBkcesnNy1PjH6H3ttdfkkksuUQXhuyxCFEJBahrKjXSSJ598UiNOGL6XXnqpkpMKiQy54x4zdqwSHZTh6NGj1XuZD3dO2VO/0Rq8+HbtJfHUU4uf2sAp7Jzp0yTnyy/FaU9JPm+UxLvtBai/++JzyXnyCUn97z0S36mzOKZ7gCDHCIwthgJk+6mnnlKjAJIXeh1Q6qe6czrvvPPUCODvUBBZwuC44oorNALru2ped911OmE33uLqDFImn3jiCSV5GEekqOKAoBkBE7nzOcT/mmuuUdLl6/EYByJyf/nLX+Suu+7S3xLtKw633HKLpizjCX/kkUcONFThWvDsZGfL6jVr5O9//7s+F6eddpo+O+kQ6BjeIwaDoXLAc45MRp6S6UK2BQ4gZDa6EPJHGiRp2zhD0aM4oXgPEcMRBclDT4YuyBQv48NfwwGxZL84Zdke+yLbAH3tszjCtxu6LebAW+LI3aR/Py8NWjWR439xgbTv1y34rSGa4Pp4WATPYDBUGCB31GVhwBIRggzgUdR2804J5SsFZ8y6P/Qt/6JEEFxE7TCq+S2pJhjTkI3wlLdYoNgInjvWeHd8Cd17SHwPtzRsWHxjFBQg63ftJgm9ekucI3fafMWRpFxHFPNmTpfE887Xz4vdThSAUvZNPYi4cS0gFSycK2T67LPPVg8tKTik9YQbAv5vSDikhsgfBPj000/XSBT7qM6ABJOmConFeMLDTWQNksd9uWXrVu0AC/BYa6qmGxPSmRgPUqXwZpPKVBTB86lX1OthwLEdxjzZ7cOPL+PItnkOGGueBSJ4bZzBVd3H2GCoDYCw+WYnPPOefHmQDQChQ54QncMJikwgak+6JSSL35FOSQSOjArkLM4jInRE4Mi0gIQhg5Hj1Ooiq8i6CCVkyJXQpSh4/UtNMAuZBmyXYw/fbmHbynMEb8PS1bL0s1lSv1kj6XXsQKnTqH7wW0M0YSmaBoOhQoFCIsoDQUJRoaRIAUE5QSiI8BRQCmHv+Q5l0tApGdaF3KHsUCwQCEhHrA3ckgheHOfgiB2plu5ggl8UAdanQYY7nzgIEwSVc6bAfcdO9/s4STz2+APbijEYW09U8PpCYOjSSGolHTBJtSG1kPOGTBQ2zmyDa4xHmW6aGCi+06YnO9UZ3Lt40DHMIMEs3qCBbOVkZ6vBhuOBMWQsMaow5vB+00kOYwvjiPTiwsbD7wODjvGDEJJGxbXRtd1v+F2Cu+fZFs8AtXpk3mDQ4eio7uNsMNRk4CjCSUQ3YhqeICOQB4DPcdogK3xDFNZDJhC5J2JGHa+vi0M2U9+GnOD5R49SD0ctrydfyKhoyATkHNtD53HMbLc0COQGZM3s7+T7qfOlcfuW0uu4gZqqaYg+jOAZDIbYwBn5GKKhyAsaudQE0HYZcgeJIHoHyfO1XJEABYNxyyvGrfdmQvAwqmNG8tzxYUhjsFOEjvcUhRd1uOOH8MV37CzaWdONTUWA8ec6YBiQ7sP14TwhMkT2GN9IiBrjT7MVvMekZmKQxOyaVDCIruG5Zmwwyqi1A0Ty0hy5wnij9oV7nTHE0FJy5sYM8sfC3z7q7MeF+xevPU1uSFumvTiND6hjgWSrMRUy7vyO3+PoIFKKp5/ngTHXaF8NGW+DoabAp1lC4D744AN14lBri0xFrhCxp37OzwFLOiTr81yTNQGRo9bN18nhYNTaNkf6cLpBupAtyIZoELpoI5CTK8u/nierZy+RFl3bSe/jBklicvTndjVYDZ7BYIglwkgenb5QWG+99ZbOpUMRNvVckKRSKSO2y4tbMKJRig8//LA2siA15awzz8yvC1BEWdERYWFh+6UhpbUJGCt4myEtjBFGR00B5wa47krOQu5zvlvjyNbESZO02yg1etznROyI7jEVyH/+8x8dD2rmhg4dqoYZ9xLjhfee+aiefvppJXvU1l100UUaBS2AkH0STaSrJxFxpk/4zW9+o578uo6kK+z+rDZAriDTeMVYx9ESLl94pojaQhYw/FnHUDYwln5hnP0SbbB9ZANkjeYnr7/+uj6vNCzhOvK8koGCDkNP4tiBuJFBQWTOd+v1UbNYHGNFIDsjSz564BWZ+fpk6Xfy4XLaH6+UuASTT7EAjm4Pi+AZDIbowCkzRYgSQon5Bh7U3f3sZz/TTlsosXwiFimC2+XfpORkjaZA6OjsRdMWDGONrDllGIuoEdvkmKuzoo01/BhB7kp9fas4ODeW/GvvX919z7yMqc7oJmpHihV1dyha0lrpfomRhvFOCicd74j0EbHjvsWTT40NDhB+R73jOeeco557xlGfq0L2mejGt4kzCDEgIXoQPhosNHT7sihe9QLRXSaU5t6gbpPrGHqvIUf5nKY7TEjNvQQ5MJQejCVOFfQFzZMgYT95tqME9sMzzfPNVCmfffZZPkkHBFW4lhC6q666SptY8exTW0cGBTIkmqmW+XDnHNTW5duu206AbYUt4dvMzXay76OpsmXlOmnTp4t0P+qQ4DeGaMNSNA0GQ/SBUPeCHUHvXojckXaG95Ii8FNHjpQO7dtHlO5XKIL74Ld0KsSYJR0ORUlBOpO8+iYhKOxoI6pKtoaCMapt44TBtssZi0SVqZvBqYGhQzomdTEQNV4hfBhtGH2sQzoWDgoMQVI/zz33XK1LxbijM6aOYhFjCYnjOWLBSITksW2iAIU1wjFUXXD9iOCS4cC9QEqeT7kDkDtqsYjw8h5CQHq7oXQgUkYK9Lhx4+T555+Xxx57TDvgEgHnOeLZiYbeQB6wTZ7J++67T3UgsgFC6ckdgLgx5QzE7rRTT1XdhTOICK0ndbF8jgsjY6UFBC8UhR0zBG/OhCmye8t2adevm86DZ4gNjOAZDIaYg7QUCsWZv476IDyTnTp31khHNJQW2yB1pbFTiET02B9NUIhoYOCSAqcRkLICkuoMr8Ca1ZLrjIDcTz91yyeSO22q5DIfnzO08khBDG8QU4PAWGKUQEKYYJtOkr5TJjVnGEUYojX1/DGmqSnEOKOpD44K7meayQDOHeOc+lIiK0ThmBeP7pYY6nwPcaNzJvejn1TYEz9SOP1cgaQZ0zjBr69jWtS4Bj/HGOUZYNvU461fv16NQ+omq/vUFLUJOKtWOAKH/OIach8gw5BfGOHMSYnjgAgQ9wf1rchUQ2SAVJECSf0baZKQPOq3eY5Jl6SOlRRZyBUOwzLLM3et9rr9ICPQfaRrIxdIwSZiyLX08M8upI6JwCH16Eaueczlqdu+7iHktViEkrhC1uV4w5dQ5GRly8zxkyVrf6a0P6SHdDgszDnB9sN+YygbjOAZDIbowysBJ6hRZCuc0kTBQRKITFAYXubIXRFgSyhJInkYuUxEzVxB7IN0OZYyeWSdQZDnjPRcR2ZyJ02Q3K+mSMAp7cDSJRJY8b3krlghgdUrJHPPbslMS5fUJk2CP6w5IOWPNEKiChiXkDvGFrJHgxuMIsgNRCJWEdPKhJ+knMgKhjUEF3LLZxA6xoZ1eOV7yB1NErjHmUaBRiiMIfclxjhkj7EitZgUZSIwpGHyXFBrx9+kHPP70oDtsg9+R0QQQ5btYKiSOmqGU9UH0RoIxtKgI4V7gnsGso78xKHCHJykckL+aLQBATREBpxR6AZSXJFhPIM4VegOTNQbWQYJY7x1CpQyOK2QhaRfTp02TWUBZQlklUDO0YfIR7ZPkzCcO6Th8syzaGfeHj2in4pZDCC9WZmZet+xIDeQV4wV5xIaaQT5xxV6fO49f/Fd/hL8PBS5juBNG/uB+zxeyV3bvl2D3zgE7Qb+rahzr8kwgmcwGKIO7+NDSNM5k6gH3ksMFSYzjza5U7A9t2A4Y9QSEYGIoLBRqkRKMH5Lu988Z7hD7rJfeE4CH06QOKfw43v3lfjD+kt8h44iW7dJ9tQvZfeCebIvOyDpTkmzjtY+RfscKwEYlZA42nVTP0LtGGMMaSC6hKFJNAujCGOIrpJlGeeqCO4bDByiKRhp77zzjpI4om8YZtzHGIsQP8aFmjsiAhBfHArUmF588cVaD0pUGULIewxy/wzgpWc8GTMWyGBZPff8xl8DjoF7HyOtW7dualDqPRk0ohQ14BrFEkRaIO4s3Ac8C9wTLIx1TO5xt02uEFElIsUQEMg/5INrybP47LPPqiOFeSkhgFxzQ2QgC4Fxfeqpp7R28YorrpDRo0dr2QDjTBTPp1D6BkiRZH8Qpef+4J4hGohMJI2WWkpkBISN595HBnkmBwwYoFPP0EWahktE7uk2HGsnGfcvpI2sBO5tMhOIFiMviP77DABkFqSULARIny6O+EH+iE7yyvmyHe5N5rZl0WfFbZ8l/FnJycyWr1+cIMlpqUrwWvfqpJ97hNoOhvLBumgaDIbYAUXiFgzg//3vf+qdvP3221XZxQRuX/riFjoWLly0SOsriLKgTG+66Sap50hJAeVZlCJhWyipWbMk+7VXJPeDSZL0q99IwlHDJK5FSzWWIa95WU6xf/O15LzyouydN1s2n3WBtLv8ckl3Sjxm51mBQMm/9NJLGoHF03zttdfmz1cIUO4YRE888YQaRRhKl7vzr5D0ohiDe2itI650vYTYDR48WCPQGN0QNIwkjCNqdx566CFNx8LYxuhmPQge66JPaaDCGBEpYHwwLqN+f3DPujHHqKLm9eWXX1aiRydOJkDmmhW4ImZEFQmMdaKgvp6Xe5+6SZxHXFMMde6BWACjm1qtBx54QK/l3XffrfcNxjadF2+44QYlJSzca2YMRw6e4wcffFCee+45ufHGG5Xg4axhDCEpREch0NTN/eMf/1DSBbkuDlwjyBH3DLqGa4RDiM9x9HDP4NyknpbnntRanERknCADuI/QSX6J9fWEgEHayELgHueY+Zt9cyxEiXlPhBFAXpHnyDZeWThunEYQYMaH80S+sOCkYuF7yGpzd/78jbzZv2uv3H3cddKsUxs58vLTpO/Jh+s+DNFH6H1rETyDwRB1QLbwYBLdQODgsYzEI1omoBjdgnpkbrL6wagIBjbpOJAVlHm6UzpMEq3rFwX3XWDzZsn9dLLkfjtTEkacKEmnjJT4Nm0lHkOZ37slLjVF4lGEcQmStXGzbP5uicT16Ccp7rOk1OSCBnU1A95YIq9cO7zPV155ZX5HNxQ5Bkqae23izpWOpXh9MaAwYKiHrO4EF4/1+Ndf11o6DGwaIGDkY7RgCHH+vMeAw4CBTPEZ9zgdMH2Uj8+Ylw5DCTJINFkjoO63xd6DpUVwWxiI7BPvOteDVD+iEzwP+dGeaO63BgLjnA6nGOtEbklPJirDs8AE/hA/SDT3PJEM1mfcfTob78tqqPM7ZBX3E91VuffISCC6RESIY7nwwgvz0woNkYPrRWQNQsb0JThtICIAUsN4E42HBI0cOVKJWUlEnmuOM4VGKug6rgl1dDh4mAaICB3dMHEyEsH3WQ7sl217whQ1cufuRYXfVvBv/iUFk3OkUyvkjn36aCLHzPFBdLnfOGbSV/08qKSTU9ML8cPBgSzh3Ln/uV85dyLMbJ+sB+QOz0gr95tmjtAGAnmyf+cemfLMO9K4bXPpNLC3NO3UWo8NcGw+Ysh2OQ5Is4+e+2eLZ81Dz7CIMSuwHuuE/K2IxlhXYVgEz2AwxBQIWTyF999/vyoyWkAzrw+KJeZw+0ZhoGg+DdZODRs2TE444YQD0yiUoLhz5s6RnJdflDxHDpNu/4sk9O4tcUFjoACc4sl1xtgeRwbWPviArLzsBmlw1GCp06L61uNx3VDcTMRLPQn1PszHpql+hShGDCeMHGrQGOMjDj9cGwVUZ6AH77v3XmnkDBoIG9HJwtLhIG4YNnfddZc6Emh8ccsttyiJ8yR3tzNaiCgTHYB8kV7HZMUQ51gAY4hUKwg6TR4GDRqknWsx0iDjJYHrTySJdDOIbqixFAlYPyrGaiUBg5J7mUYc1FMCH6HwUQpv6PJKRAaij/Huo3w+0sc1Jp05UocH1w5yx77pvEikjmlliCox3ycRl3vdfWn1d6UHuogIOq9///vfdWz9GFKH9tzzz2u2As/ov//9b81W4H1x4F554YUXtD4ZAnTmmWfqfYDzh/tEHTxO11TU88D9o3ty+/OvgGcZHYjjAucP5BVnHMfsnXasQ90gBBR5xz3sCRavkC6yNvjbp2byOe/ZJn/7hXXYJsSxXbt22mBl28r18sAZv5Eew/vLEZedJp0HHaTHBrivuS4+pRUbgVe/sC2eI+80S3GvyGP0jP/MRxn5m4UpZHQc3IJMUrnk9qXXIjguNRWhzh8jeAaDIepAoJLi9OKLL6pXD2/hBRdcoFGMmCu9oFGKZ3C+Uxyk5ZBSh2FN6k1JJC978mTJGfuyyK4dkvrEMxJHxKUIYkqtXub778vmUefLc4cdJdsP6irSuF6+UqmOQGETtYCQX3311aqoiwLnOH78eCUwEANqSYob2+oACC4RHOpGR40apU0XCgPnzroY3URYOnbsKH/605802uej1RhdpLCSqsk4sQ7TIDC2kRr+pQXEk/RZIlDUHWF4cu9jbOlTV8yzh3EGaf3000+1ztJ7z0sCY8FveS2MDFc2OA9vsBYHT7IwhpmWoCRgXJKmBqlnIXrLOEMQeO+jHxhdkVxvHFPUc5KOSft8Un6JbDz55JPajOP3v/+9Rlaq4hhXZYQTPJ5tnlGcGKQmvvrqqxp1YmLxm268UXa6MedzSCD6ojBwr0OcmN8OYsT2SemtLAdHgHs7uG//nKMDiT4jB3iPc4CGTj5VFHDPQ7KYOgInBU4Fn6aZD3euaLPQc/PPfOjCM8b2WM+Tsqx9GbJ+4ffy+EV/koPPGCaHXzKyQJMVxn327Nn63PmoOOAVsse9zrGyTZ4hrhuLJ3b+lYXPeda4bhBtjoGF7+hUWxvmBzWCZzAYYguEvxP0NDzBM4oixLAliqYkzwlcRYjCiCpQEm7bKHCMXYrr8YSTmoPBixFelMGVPWGC5Ix/TeICuZL61LNFkjuQ54zp3I8/lm0nnyK3JjWXKakB2ZqYc+C7EEVV3QDJIx3sd7/7nabpFAfIEN3paMjijYbqDowVzh2CV5SBB1iPc3/33XfVe0+taSdH4hL9/e2AwYORznoYUhhYREWJ8sQqoo0xR8oZ0UW88Tx7pF7hDS8OkENqCn0dH+cXCVgPcsK5YjxWlpFbFBh/FiIMnnwXBdYj9YzX4sA5egPUG5oYltwHkDrkHLVyyBzuIZ8SWBwYf5ryUPPKeBLxZUxxEEBKaN5DBKaqjW9VRzjBIw2TiBEkHocGJEOdkOefrwR60vvvaz0kDqvrr78+uJWfAufN888/r78ndfZ893vur0q5Pk7PoGt0Xjpe3X2Dg5OpIXhPhgHOunAHK8Rwkbvn0NPctzgVIKwFENxukV15g9+zf/9ceFB/t3LmQnnhmrtkwKgRMvTik6VVj47Bbw/Uc6OnkVmMJ89AaESQ7/kcfoITMTxiyAKxZMGp7Jth+QXSzSt1+KFyuabCCJ7BYKgQIJyJBuEhpX4FzzRGSxunSPKVTKjCcAqiUAVSRqBwaJqBAqPZBV3q8GKSMlqoV92tn/3ll5Lz0gsiWzZJ6jMvFB/Bc0ZYhiM4ay+8SP7qCN68Zumyt84BA5J9Vzdyx/FirJOeSZOOX/3qV2q4FAdSymhgQNSDMY0VaakocP4YCpw7JJfISWFgrDA2aIpBOiSRGwgeUTqfIuRBY55vZ81S4oRhCcGjFgjCpc8B90mU73uMIdLH2Ce1eNQSQtaLnTrB/Y6OeRAcnt1I71/2ReQJDzzGc1WL4iKDqEuEiFFnVBQwhHFKMW5EFYoD24Kk4yzCiKSRBpE7ts+CUenrNnkmIjX6SZejeQ/EAbLAPcJC2iaE8SfGt6FEhBM8rhlOPyLVkBq6WeIEoYMm15VoFmnqjDdR06LA80GtLumNPNdsG4JRkhMhZnDHwzHlOBmGPf/444/rseBkYPmJg8etiyOWLBscdcgwIniROCMKwG2nKIK3d/suWfrlbBn/+4dl8IUnyaBRJ0jzzgWfQX7nFw//Xl/dApGjPhz5zHPqSZ0nhzhE6PjM88FziWxG3/M3spZ0dZ7JSJ/D6gojeAaDoUKAcEbwUqOEAkHBDh8+XCN53bp21aYoCO98RFv4um2zdQxPIhOk0vGKt5Y6jHZtD8xPlg+3/9ylSw5MjzB9miT99jZJdIpRSV44nJLJXTBfdrz0knznjK+ll10lTYcfLQ3atNKvQxWWVyr8jfLzn4Oq9hmKkXRCFCdkHJLDGBWmGEl9pQ4FLzEKFC9xPmlxiHS/gN9Uhc/QgxBWDD8ieNSksE44MC6YJuKvf/2rkgHOn0Zl/K4wx8FuR4Ko7yLSyT5uvfVWTeH7idEVJWAIkWY2duxYff6453/+859rdzt97jw495Dzw3jyRlSkwJDCicNz9otf/EIjWYWNWWWBFEdIK+m21JUWBc4bss49TdSM+x6DiTRMIqGkYXJ9MYQhCdo0p27d/HQwDGMieSylJXYeRA7ZN84CIkwYqNxbGOscQ6WRh2qMcIJHd1mcONQQ8wyTwsi1942SuAeQgaRs/uEPfwhupXCg3yB477//fn6WSqiRXdFAlnFMNFNBLiOTIa5Elgu7FzlvGgixICNw7BXQiZHC7Zd96z5C9rNr0zaZO/Er+fDeMXL4pafIgHOOkybtWga/jRxs28skL6/5mwXyhy7CiYsTC4cWzyPOEp4hyDfPMNeTxjI8n1VJPkUTRvAMBkOFAWFMigVGJsYm70lTQxEijFXMxlLYogzc9vHyYYijiFF+dDsjbY2C81AjO+CUY/Y7b0vOG+Mlr2lTSb3+Rkno2k3iaPnsDDaFU4q5zqjNfe9t2fj6OPlq227p/Je/SGenTBtSv+D255UQ8MokXwGGoKp9RsRzgiPjkGG+pw6P6EQ4cUOp0syDWi/GlvbjvXv3LpACVN5jqYzPuD+pq2GaD7zepF2RFhdK2jCKiHLitMDwZmwwDKkzpWulbrOQfRFFIjpEO3WMSaJd2gAlBhEv9pfrSOjsOXM0/Qqyd9qpp8qxjrRDSDSS5xF2rKUFHR4ZM/b5F/ccQHwgN1UC7ph+74x0DHocFkQyw6+5B8YikUhkBKnd1CQRkWHhPQvRARbqlHQcgyQuWpPK42DBKMVZwD0IqeMe/OMf/1jg2TJEjnCCx3uuHemApO5DhCDVRK1JycRhMWHChIgIHimO30ydqs805PzXv/71gSh+JRFxzoluochl7hV0HGmnRckYHFU+Yo38pgNoNO+xHes2y4zXP5Epz7wtR44+Xfr/bLg0bNUs+G10gC6CrBP5Jg0VUsuzisPJN5kh5Zxnle+pgYYAVhkZFUWEEjybJsFgMMQUKAuUC4YKQhWPKQYMhjSpTBjHGM8xNVyCx+C98XjzqVFCMfiUDm/A73Gffb9qtSyeNUuyvpki6U4HxGdlS15GpuS5Y87bvFkCS5dIpjMKdn70gWxxhHDPGWdJzxNPlMbNm6tiR3FU14XjZ0oJDGLqgXjFo8tYYXxixNCAg5RMDCOuI15RjGe6xzGOhW23qi6QEgx77j9/7NwT1OZgHHC+fOZrRSB2fAepoe043nLSfknz4n6mmF8Rdj+zfe51xpLfEDXgXsSzTsQr2mB/HDf3PGmXeLFXrV6taYQN3P4KGHxhx1pa4P0nOolxCXGF/LDvygapsRnuuo0dM0ZWOKOX6BukvThZw3dcE9LzaMqEQYihT9OTHt276zaQF15ucZ66vXKOoQfb4tqQKkpHVO6pM844Q6MSVWFMqyOYaoIoG6/IKa4n0VYfoUU38Xww5QGfMf6MPSl9dAcuDjTu4D5ANvJ7HDY4BHQOuEoAMgr55B1UOFGLi6jjrCKrBTnP+ZZUcx0O5Ccoavt7t++WldMXysala6Tz4IOkdc/OklInup2W0U1cW+QQ6dIQbGQ4kTrvjEHGo7cgvzzffE8vAI6+qGOvjgidJsEInsFgiDkQoChOUptQrCggavI88fPEICaC1m/TKaJUJ/AR7kSkmJsMkodRihEF+UTZQWrGffapvD51quQ6pdd2wWxJcYRP1q6T3O+XS/ac2ZIxcYJsnzhR1u3eI3uPOU763nSTNHfKkXNUVGeF4Y4d4oEBCxGGxGH8QHYg50Q2UKQ0FkGpYkRggBK1qU6KkmvtPbyQVI7dG+14fzEOOFc/zxXnioFAvQrefgxGInJ0qKRxD4RAr78fg0LGAvKMQck9CCEiawbjgwhhTDz+7hh4xohWUCdHRz3Ok9RkjL58wlDIsUYKDCciXkS+eA/Zh0RWBTJCdILrSz0VDW4YZyIaXOPCwNhw73P8GIrc0/zN+BW4tjEEx8CCA4H7C2OV54umLXxuKD1CCR7Xn2eVZx0wphj73B/cx0T0uPbcN5EQPIBO454iUoRcQZ8gQyrjeiFTaPqCnCK9HIdEvl4qBBwvNao4stDPxTWVKgye4IHCznfPlh2y5IvZsmvDVuk6pJ+07NlBktKi24wLgsd1IzOHNFPSpz3B1uvrdHsLJ3NJTee5AvxdDxnovtejroRrFQsYwTMYDJUCjD6f6oTBScomilYNKWf4RjNtTIHy8dvh1S00wECh42klrYNIFK94Lkljez44J9JS99nW9h3lkGNHSJOcgCQsnC8Z07+R7d/OkA07dsmqPn1FRp0vHc47T9o4xaiTqIciGsdficDzCRFG4UOGIXWk8pCWCQlGkV522WWa6sr1K8pororAKMEQwiAgrYeIMsQLY4h7lIX3GHrcn0Tb/Bj4hh2cM81SSM0ktYn5mRSh95tHiBEEkYMwQLwgXJBMDEIcHfqLGNw37I8F7z7ktJ0jMJBMDFM1ysq4Twgdx096Gs0m2Bb3C9GumBDWUoKoK/cq6XY4lTBguV8xeCvD+I4EjCkpz5ANjG7SyUhn5/oZyoZQgkeEmTENjbBxL/j0fdbBScFrpAQPeaGZD26bEA0cBBDyynByQEyZdJx7COcTcq2444DgMecjzzHHTclCxHByTbt2OjCGhT1TSvC+nOtet0vXIw6WFt3bS2Jy0YSzLIDgcd5cQ3QWBA/Zlg93XMhbrg/XCedyQ6ffsENYD31QVeVBaWEEz2AwVBogAigdIhdETjAMMWqYWLqxE7o6V02osPXGcVkEsP8N2/Dv3SvCnFqp0GPAECRaQ2c10lV69uoll4weLUPPOksaDx8uuUOPlN0DhsoepzTTTxkpbdzSduBAaeQUeVKoce+Xag6uE8rPt3tHMRLJopgdA4laFVKdGEO+qy4KEoOGegzaoDN/H9efJgQHO1KC0vfnwfnjCCCCMtBdZ7qJ0jadiCWecaIqvjMb0b4C9234WPB3cGH7bBsCzX0GWcTZ4UligXEMvW/LAbaJgQOxIR0L45WIdWtHLPPv3TKAseQciOby/GAoQVYxiouLGlQUILQQcxrb4MQhgse15p6tqvcrpBSHA01rIHWMJc9ZVSDM1RWhBA9ZxrPG8+dBeiX3CQ4XSA7psKWJ4AGuD04THF84EnAMVeQ95iNp1A8SSYT0UIvGc55/HG4dumZ68DnPMI4uSCAOLc4/HGwbHe2Rvz33yjtkX2HnSn3ijvVb5LvPZkqOO55uRxwizTq3lYSk6N7LXD+yS6ixpN6Qc/ARWg+OD5nEM0W0lswd7BAcdZVBxGOFUIJXc87KYDBUCyBMMZxpP3/OOeeo0UwUDYN74aJFmlbllRUKSVGI8igVwn7PX2np6dLbKYPjjz9ePbYYqJA7aqxoAkNjg5NOPlmau3VS+vaV1MOHSoMTTpAWJ58izY8ZLs3dZw0d+QlXJDUFKERIAcYwBg/K3xemYxwRASV9rbqQO4wNyAjNY5iAn5RCDDHmfdKifGechZ4H7/H4QlgwsDH0iP5Qa0eaFySXKB8kuLQGAgQP4kw9EEYh9z/Ohb2OkOQbUtz7HI9/BsoBzoVrh/FDOimkFi829zwGXlnBbzGaGVciAEQNIKy8DzUIKwPIEAw/am4g0BwrtY+Qp8o+tsKA3CP6A9EgLRojFEOVaCjPoSE6IAJPejTZGgAiRMSLdGwIALqgQPQnQvBbovA4hCqji6zXmdxH3OscA3Im/ziC34celyduvCIfQqOaBeC+z9fJYSiK3IFAIE9yMrMlc88+TY9MTE2OOrkDnAPXkeeEhfMuDHwHoUOXIbdwWDJeNRVG8AwGQ/SAsnBGVC71a59/JrlfTZGAM7C8cvFAIUDyUKa0rIYw4HXEsMEAK80cXEWCY3EGXt62bZLrtpm7aKEE3Gve1q36Od/XdceAoX7KKadoC3VPaDgu5s4h1YPPON7ktFRp0PRAWgeePxR6UYqtpgECA5Grjp5O7iMiORj6pGCRfounF0XPNAjM+0R6blHGDdcYgwGDCbJHFIh7pDwRKu4afo/xDnlk+9z7HGMm9yb3fpTvLa4fzR+IPkLO2Rf1KJC9sj5rvsaNqC5kigXDmdpNPOSVCYw+f90hnJwjablVleAh86ibIkWcDog8azjBuFa1Rc5UBCDOpJozxjj0cPggE0jvg6Dh7ClrOizXievGc8AzgLOwosC+/V3iyaYnOtz7urj3WnMWvJ/4jOcUckQWQpHOypDflOZezMsNOIKXJZn79ktSSrIu8QnR1SH+HHAuQcw5h6IIHteG70lD5Zy9Y6qmwgiewWCIGvKc0AwsXSqZd/9bMu/4s2T+4x+S4wxXJ4GDa/wIFAXkCYLF3DtEQ4iqEMkjnQoBrGYnCsUJ8VLB7Q8iF1i8SHI+/USynQLPHjtWst9yr1844jl/ngScAuZ4UQpENi699FKN0ODd4zMUh48msuSD9yylUHSGygGebIx6IlXvuvvqueee0ygJdThXXnmlRuUKNBspCeH3QTnBfYYzgfRPiAf3P8cXmkYVzfsMwwdySmdInj9SkyFoZSU8PB94wRlj3mNoESXzz29lIpTgYXADyCwpbCpbonD9ogmOiaZPpBIyfnRmxQFAZMUQPZB2yf3K3IjMYcny8ssvKyEjFbs8BM8DJwcOS19+UBHgeeaOJlOB92RXKNFx9zn3OjJF73n3HRJF13d/41iAHCEDi3JasS7dgSOWk0EEArmS7Qhe1r5MSatfVwke24om/DlApj1JLS6dmXPAUYdDj/NGXtVUGMEzGAxRQ96e3Uqq8t5+R/K+mCJ5738geTNm6PQCRYG6I+qaSNekNuLpp5/WpgikepU1fSywbp0jc29K5q23Stall0nuKy9L4Juv3OuLkvWr62XPNVdK1rhxkhXcB0qB4mzmcoPskb6GJx0PHwraK0OvICks1/eGKg0MepqK3HPPPTpfHammt9xyi86DRdSutAYL195d+ANLeQyVkN+ShucbP3DPzfz2Wz3umCB4z1InhEMFUkGqEkZhWQChI7WNFEieB0/wqIfB6KpM8FxjwFFv6b30vEKeaF5S1VKzME65P6+55hqdq42eCJD/Ut+jhmJBZgbNkSgNgOyTnklGBs2Sbr75Zo2Y4ngsD7j/qUvleeYerCiSxz3PtCA8ez7zpFAEP+e4fOQdHVhsamoZ5F1ewBHLrBzJyciSxLQUiU+MfiMuL3eQmRDUkkoG+I7sIRx7/JbrU1NhksNgMEQNeRs3Su7ChWgaiRs4QKR5cwnw2dKlwTUKB4KZ7nuka6JoMcpff/11TVlCeCswToMGqiL8PQteSmdg5ox7VXImvCtxrVtJ0sMPS/Lf7pLk2++Q5L/+U5L/8BdJOnKYZL70lOxzxC/LKXiEPooBo5f94z1H+dNhMdRAVLXh9pPfWtlQ5YDS5npR1/bII49oswpw7bXXKrEjFRcFX2bDGeOhGAOitPAeZVInqQmkox1zoPmoU4H7PFIU9RuO232HZ597nggX0YYc97yWxWEBQeT5YDsAAxNDC+dMRiWnPmHkQl5JH/UyhPvCp5BWNYKHgU0DECLL1Gb6Rh2G6ALDnuZIN910k9x7773y2GOPaWOKiy68UOvnvFzAUTFu3Di55JJLCizoBAhccYAkkgnCM0yDHxwKZXm+SgW3fe5znkVeidRrBM895+gr3ofLPAgezzDr831xka+yAMdRVoYjnPsyJL1Bnah3zwSMK+eAk4nnBVuiJILHOPh1Kop8VwaM4BkMhugAcrV2rQTmzBJJcUL0iMMlrlM7ydu8XnK/nSl5TtijhH4CJ2gRtr7xCk0gyJGnTor6CCIEGI76Sy+42Y5/D4Lv85yiyvnyC8mdN0/imjaTxJ+dLYkjR0qiI2wJAwZKwuFHur9Pl5TzL5CErj0ke8Y02fvJx7LPGYJsk4lPOQYMLNKjIAm0gMfLq7VR4SjsfAyVBpQ1Bjz3DRE76mogT3S8PPXUUzVKWy5yFyOQhkf0mlRlSAnd/CBOP7nPI0Vxv3HfeePGGztlAYYVBiyppd4BwmcQK6YkoGFMzI3aYoDBB9HE+PPHwfF60lfVCB7XgUgSdb/UT2ln1rJce0OxgMhAfnjemMieKShIy+zoSBkRLMYcck23VSKqPrLlX4mMlfTMcP2IECJ7Jk6cqGnQ+Y7KGIJ7mmeRe5400/zjDHnmQ4G85Hnl+fDRr2hCI3jBJitMbp6YHP0GKxw79gHjyzPDeUQq0ypTPlUEqpaWMxgM1RY0Lgms+0Hy1q0V6dhe4gcOlPge3SQvxxlY3y2mZzkSNbj2T4FQxvhGMWKMoxwhVpMmTZKlztjFOCtWIEMwd++W3InvOoXmFPmwoyVx+LES75RtXHq6xGEwofRatZLEQYMl5exREp/tFOK0qbIz2OId1HXrcAx010TBU0tBRJEOn5lOcRqqJqirIeLL/QIppzYMI46oMEYc3vli05YqERidNBrCscBxQpCI5HFO5TZCQn/v3mPUMWE7EQoMIpoGsf/SjouPkLFgUHrwPjRts7LA2NFQI9RDjxHIeXP+HL+hdgJdgyxA31Cr5udHAzwHZJPgaGSeT7op+4WmTJBBooDFgeeKbZAtgKOSGmCieLEG97d3aETiIGA9ngOef4gRr9HEgSYrELz9Qg1eQowieBA8zjuSCJ5HZcqmioIRPIPBUH44YUm3yrwNGxzRypO4QUdKQo+eEtezj8TVa6Spm4GtW3ExBn9QOBDMCGiUKKmSFMTT8QyDffXq1QfS1ooQzHlu23nbt0ngmykS166tJDiCGecUuCJc4DtFljj0cEnr2ElTSHfOmCHZ/J5tu3XxfqKcqYehRormF9QFcgz564EIFIkhdvDKHeOJaN2YMWPkpZde0tpJ6mxIy6S+jchIVQfGFfc7jX64/5hUfe68efke9lIj7DdsAw8/BIf7megWXTWJVpTFc08qJkSUZzKcRBF9hOCFfl6R4FwLI3i8p+aGqKPKEoOhEDB1CfWPOFxYmBbFv8fpF0kTFqZBYbodSCRTX5DWGdPnwekinm/ufXRoJM4sjofnlee/NJGvSBFwBI8UzWy3pDeuJ0mp0Z/uw8s1nmcirCXJMr++H6tok9qqBCN4BoOh/HCKJEB65ndLRbbvlrg2bSWuSVOJ79JV4lLTJW/hIsld8b12rYwECGmiaERf6GxGPR7d5SBYNDjJJ1a89wsC2xmvsmO/xNdvLHGNmxxYpzC438c5oz+xdRvJyMySjQvmHyiGZztBoCCJIlJ3wbEwQTTzp5FuQ81S/jEYKg2QO+qpmP7g/vvvV1JEau0dd9yhU19gqEXbaIk1cCzQ5RLDY+zYsWVP7/L3Z/CVsdrung+i0ThN8HYfeeSRSioj8XiHAwJHnWr4sWE4ESGrzEYm7BciS0MVjLhQ4OkPras1GGKBRPf8QvLIRkF3ENX2taqxgicsPpW0pOea54Tn1Ec0y+LoKQ45WdmStS9D8tx/pGgqmQp7HssLzhkZVBqCh65HfgF+o8cU5eOqCjCCZzAYooI8Z9TlbdkgcU3rSeKxxyqBiu/ZS+K6dBYnUSXPKThnXQXXLhmkmFAPB8kjqsGcRZA8Ul7yjUoUmF+AN+bxlJbgLVXDz/1u3+5dsm39D/mpLaGCHmVBwfx5552nhfmk2jz88MMaGbAIQOUCw4Rup3TI/N///qephqNHj9YmFXTIRHFXN3IHSBej/ofOstxnRI5JgywTgvcy0TZSjZ999lmdKoI00LPOOkuJJHWnpSV4PCeMPxE87wn34D2f4YypyHnAQoHxxpix/9BjA0REeY4rO4XUUHEggo8OQY5Th0u0KuZwzxTpn8OHD9eIH1NgUHIQy3sOp4XXSyWlKnIcue45heywHuQr2vKSyN3+3WxfpE4jZxekJP+oq6MEHFc805w34xwJSUXXY0NwzhBbPaYoH1dVgBE8g8FQfjgylbdqpeQ5oyquRUtJ6NNH4lJTJb5NG7e0krysvRKYM1vy9u0tQKAUTkAHduyQwPr1mi6pk5C7dVA6NJ/AWMcLylxheEGZJw+PaAHDklcnrOPq1Rdp0kgCjrSRMlok3Pp5zvjLpX6INJVGBzqOqYgPE/QQBdrKH3300TopNUbtm2++qURzn1OOum9/HIaYguuNYuYa0Iac+auWLl2q14UGJaRQca0gSdWR3HEfcR8SVRvg7ndSvL744guZOXNmqUmeH6s1jmjRdGb8+PFqYBIhZKwgkUz2HleGceLZ88YkaZ4Y0BhKOGX4m8gpBDBm0z2UAI6LhSglx+Jrc0iXowEGRiHHz3kYaj5oqvKzn/1MrrrqKo3wq1FfAeB5oGkOuouoNnorlrWf3PPc0+w3kgge5QY8o8icWKRoZmdkaYOV+LgESamTLglJ0Y0Qgpxg9I7zzq+lLEYfIxe9M5dzrqh7oTJgBM9gMJQbeUToVnzvNEymxHXrqemZTtJqDVxc69YiDRtI3qzpInj0nXGVD/c+d/Fiyf3gfckZO0ZyXhkruV9+cWDePCeAPcnDKEVBk/ICsaIzGdGNAvVJCPaGDSWuV0/J27hBAt8tdoSyiJQY9jt7tuxa8p3sS0mVhF59lMgVZexiIDI/Hl5gDAQmsP3kk080EhBLhW34EVxnjHJq7ajJ/OCDD5T0EFm9+OKLlYCTUhvtNKPKAHNDdu7SRefsgoxA8ogAYMwUAPe+v/9DQG0N6WDz3bMywT0rpGQygTqpxjSKYBoQpgQpz1hB6iDWPJdcA4hU27ZtZeTIkTqnJW3ieW4qAxhu1M4y9QTHwnuIHc8ukUsaKNEoI6Y1UYYqAwx/5pmkthsZAaGpCECY2DfPG44P5Fd+9kmUgXxEFyEvIC1K8ILfFQZPdEhl5nmBFEZ7XLIzSdHMkqS0FK2/i0uIMuVw5wCx83ZAgXMoRC56sD62hSfCNRUJ7gTvCL7XiTUNBoOhVHCCNLBypeSOGy+yd5/EHzdCEpwhqemYbgls3iKB5d9L3sxvJOHEUySuVWvtaAnJCuzcKdkvPC+5k96TwBdfSmDmt5K7coUkOEMsrmEjiYMkOkGMIYoBCdmjrgaChXKC8OWnZThlmpeQKAFSrxYtFNm1U+Lcb+Lq1vsxZRPlChl128h85hn5fsYM2dShk9Q/7XTp7ohhkR5Md44oAjodYixCLomG0Aq+eYsW+jnHWUChluA9rW6AYBBJgigwjQWpRxjJFREp84YIY05dGum6EAymPzj33HP1mkAmSvJYV3lw/Bgm7hXjg3MkhYpUVAwXSBPPgJ5nqAETct4YkIwVkU1qVyGHXCfIDuNFRKG8Y8U1Z5s4Pajjw7iiiQQE73e/+52SPL7Ln4urgsGzCoGlfhfiz/hxvozBr3/9azX0kR1qBJdjHAyGksD9xbPCM8c9CcGEUEUbPIPUxNI9mO0zp6LqRbd/vcPD7nOcGzQiQk5wfJRDQEKjBnc8m1f8ICtmLpI9m7fLkAtPkrpNGkpcfJSet6D801rg1avV2Yos4hzyx7eQZxsCTIMpGi0hA3B61QSnoAdzOnpYBM9gMJQPTlHkzpnjiNzmA6Rt8ybJeu+9A8ukSZK7cIGz0HNF9gUkZ+58CWzZoj8j6pc71/3u048lccSJkjLmFUm+9z6R/fsk+4MPJeCEdigwFIkY0B0Rj+gzjqBh7KOg8OKhSBNSUyThnFES16evZE/5Uvbd/gfJmjhRcufNldwl30nO7NmS9cZ4yfjVzbJzzBhZVq+e2/dx0n/oYJ0MtkgEv8Popn6JSXKJKn7zzTc6US6RJBSHIfpgXKnneuWVV+QXv/iFTgIOUbn11lu1lTl1LhVBMisMwXuNc8JxQDdZOvcxBQQ1qBA+jDldzy9BMFYYeEQ4//KXv8j06dM1HfOXv/ylki4IVzTGimeNZ4Hjo/YRAxGyxGfsw38WC0M2EmCw4fjhOFgwrjkWyDEGIEt1rdE0VD+QGjxs2DAZOmTIgaYeMQDPPumWOMPYh0am3HMKkQttHubBM8yzSodQZAPEM6pw26fBSuaufZJar06ZUsEjAbqfhXP2qeIqE1mKgI/gIScqwwFVUTDpZjAYyg6nPJhcPDBvjjiWI3nLlkvec89L7p13HljuuEMCj/5P8qZPc+vmSWDZUsnb6ggeZIjfZmYgoSXOGVzx7dtLXIsWThvWl8DKFZK3c0dwJz8CIw2CReoaqVdElDBmmZBc062c0I5Pd8bcqadK5qgLZGvderL/33+RfX/+g2y79dey+Y//J+sfeUgWfD1VPu07QBpdcrn0GXGCGqPFKYRQoBCIJp588slKNGnJT+MV6gP3Z7jzKUG5GCJDnruekBnSC5m0nE6ZRA5vvPFGOd2RFqJZNT0CAwHBCKMjKGSKDpjvvPOOet5DHQq8Z6yYO48mKqSvEk27/vrrdQ5ApkLQsQqunw8Mv0KMv0jB2PuFY2UJ/awyUdhxFPaZwRBrcL8pmSBS5J43CIk6aaIMtslzzlyuCcFn0T+THqxDZ96VK1dqEyKcHvwGYogMoZ6N98iU4o4RfQuhpHHTZ599VmiNcG62I1/OPkhr4I4nMcp0g3NyS647DsYT24BFHbUcdxHH7iOX/CZ8bGoaLEXTYDCUHSgqR3Byxr0qeWvXHKiB69hJHGM6sNSrJ84ylbi6dUR2OgVQp64k9DtY4jt0ONAUxQnbwMpVkucUH01P8pYvV3KX6IhTQl/SNBsGd3QAXlHiESW9wqeY0CofAxjPPAQs3pHEOPc9hDHHKa8NCQ1ko1M2PyQkyrqmLSW7f39pctbZ0uWYYdKifTtVDCrmixP2KIzg9+zDT5KLIiRldOvWrepB5DO2V9NQkSma1KqsXLVKO0gycTkph745CN0laQ5CtKimg/ude62BG2e8zkTnqEHEEOPe557jM9KTqAnF0CJlifRIiB0pikSwqOlTQ4Yl1PDxn5UTNI+gSyeRMvbLc1CVDCcazDBejAvNZWqyUWeouoA8kcqMIwYnITIsWvcixIXGRtT8tWvfXloGpz/xiwfEhhR3GoVRy/7111+r/iIzgmd40aJFOo0IKYykMtIcxnekRbb4hiboPf7+97//rTqZ1G/qXEOxdt5SWTFtgaTWTZe+Jx8u6Q2C6eVRBA5WjpVXHK6QW7cT/a6wfXHsOISxGXB80ZQrFjqsshCaomkEz2AwlBl0vAwsXya5r70mcQ3qS8Lxx0vCyFMlfkB/iXckSpfD+ktcp46OwG0R2bhZ4g/qI/EIVSeI49LSJLBhgwQWzJfAtzMlsHqVCuek885XEkgNXjgQ2ihGnwaGN5Kuihi7RDs0NcwpuWT3PqVDR8nteZDsbdNFAl3c+94HSfzAwdL8uGOl55BB0rRF83wypqqgJOUT8j1eT/YHsUS5oBgxwkkN47OaRvIqguChfLmOpCMSsfv888+V4NDEg4gpr3ic+aw2AeKEQ4F7H2MGA4y0VZwbXBcaD/HKPckEzUS4SWfOH6vC7uuS7vVSAIIH8eS5NIJnMBQOHFfUb1MbS4S9oXtOoumogmjh5CzMAUY0jvpcnENE+DkGXiF2yA9ID89x+MJ36DacSOhZCB8ON7aFvmP+UWoLSSPH6ZqPPJFVM91vHMGr36qpdDqir8QlJ+pvGAeIYnELTaIgkLyy8BkkFnkWqnMgntTls00cWhBcfbrdM/6T59yNQZY7bmQV60NKyQSpSfLACJ7BYIgO9uyWXGf0B8aNl/ijj5HESy+TpGOP1WkSEhyR08W9h6wFyCib/KnEde0i8b17S7xTbkx8Hpg/T2T5EhFSN50Al+RUSTzmaIlz5CmuGEMeIY8hiTKDYNFMAiMOrxzGsKbEOIM3jcheh1bSqlcP6XBQb+ncvat6N1Oc0cw2EO4q4EsS8oV8j7KB5KAkIJooSZQf3tnGbr+ki9QU5RFrgge5YwynTp2qUyDgZcYIouaS5hhc12iSyeoGyBrjgVECuSNyh8HFmGH40CSBDpnU+mBwFUmCI7nXSwkMQYvgGQzFg+eUaBip1ryHEDVu0iQq9yOyERmBTPbkjn2QbglBQi9BzpAZyHEaVqE3IX6QHaJ/ONcgSzRrwYmEzIfc4UhiQeYg/1kf/crCs8VzRVOXUIIXyM2VFTMWycqZi6Rpx9ZSv3sr2bx9q+6f9FC2VdSCfIMIs0+Og/d8zvkgW3Bkefh0UmrwmFLJnztjGj6unCsEk4gl26LcA3lak+RBKMGLczdDfr4GAtBgMBgiRcApjKwXnpfAffdL4i9+IYmjR0u8IzfhyHOyJWfqN5J97XUS7wzAxCuv1E6buU54Z/39Tkmk86YjiHlOiGf+8x+SdN31knjEkYVuywMBjfJBoW3cuFHnx0PZYOTSCp0JbfON3NC0NBBNge62neMUDOksL730kpI8CNC1116rhnZ+JM8fQzVVJuPGjdNaOIx5IkR33nmnEg6UfHmBgsZwGDNmjJI7vMMXXnihTkuB0QBxMKP8gIHCWFH7grFGmhH3OPcZ0WS81/xd0WPFfITU4mB8/ec//6lyZJx7CaOVKR1+9atf1WpHgaFygUOGOlpqiy+44AKdsoOsj2gDWQGxg1ARhSMrgigc5Ik0UWQHRK048JzgrKTTJOmPTDMCiULeIGs4F46f1PnLL79c5+30yNi7X7546i2ZOuZ96TbsMKkzqL1MmfGNpoRyDMUB3e4jeB5k7DAdznXXXad6x8PLRByEkLviZB/bRXY+//zz+hvS/YcMGVKjdAsy2MOknMFgKBucsMzbtFECb42XvKQ4iWvdUqNyhcIJXpqoSKN0Ccz9VgKzZ4mT3jpXnaxYInF10g6kZLZoIXGNGkvuZ59JniNMhQEhDRmAzN11112ayoeywXhDyaBA6LhIB0G8ewoEeOgSTbjtJQaNbDoeHnPMMept/Ne//qUEdL9TVNWd3MUKPmpHqtBvf/tbrSEjDZNskrPOPFPauDE1cvcjGAcINUqcqDFze2F0ce/hvee7yhor9mvXyWAoHqTvk/0AIFw4HsoLSA4ROogcjs4HHnhAOw4zhczVV18t9957r6a7k56J4xNS06lTpwLPK+/JfME5ydQiTAr/0EMPadMmnDZXjB6tuq1r165aZ46sKc5RkrM/0y1ZEh8XL/WbNdQIH/oZOX/ppZdq1I/fEzWEcIYuRBE9AfULep8oHXIuFBw3x1IkuXNjw/jwexaIHdvDZoBY12SJZQTPYDCUCdTfQfDyli2WuG7dDkxoHpI6EYo4mpg0bSZxffpp1828H9ZKHt7DxCRNyRSnBJQEeQGd5LZTiPJAQCP8UVaQOKJjeBhJ00Tx0G2QGiTqlGjOQX0BAh0BH1O446aRRRdndOPp7N+/v5JQ7fA5b57sDvFEGg4AJYtXGaJO5I6oHfOT4Q1mDEmjTS7BI1tbgWGEsYNBhsFDypJFpQyGqg+eVRxXffv0UTIDKct3REYI9Bm/of4MkvjGG2/Ik08+KY8++qg8/fTTBTpLQ9hI22ZqGSJgkCtS3mkuguwg8k/kDbk72pE4uhTffPPNcsUVV+hv+C3ft+9woIkKcqfI9O8Q5GRm6RKfGC91GtaTxk0aq45GtnviCYlkHzipfOQJPeDTLkNBRI/U0ldffVU++ugjTR8l3RU9wrpF6ong5/57nIrU82E7aDpnDdYvVoNnMBjKBidwaYoSmDtb4kecJAlDhkp8syJSKhGiTikEtmzFspe4tu20Ng9CGJi3QEQnI8+TvFUrJTB9qiQcc4x+HxcWESQtjQ5kpLeQUk4qJmkWkDwENp5FiswR/OTt80qKX0VFN2iDTcooXloUCXVJpJngKUSRhtYOVDdEqwaP2gyuCxFWriP1EFwX5mIi3QcPc7iX1hCCUEdIYfDOjAo0XEjbtSYrBkPJ4N5jCgNI2rz585WgEI1HZxSHUFJH1I9njnlYqVWmpo+aOr7jGaSujOg+kTjmuTvqqKM0MwKiBrFLdroyIzNTo1joT+Quzy0ynegehKt9+/Yq34vSm5BH0h2J8CGzw2vwdm3ervV329c6fTG0r7Ts0UGSUlM0IwMdTQSRY6EOjjn4II++dh7Chv5kHx7oBMYABy91edTnQZCpIyQyybrYAIWlqPM3n/B7yB2ZNdgMpJKXNO7VDdZkxWAwlB/Z2SI5uSJNm0visKMloUNHiXPCu1AgYCECyUkS17iJxHfqLAntO0i8E/SBtWsl15ExJj1nmgQn3SX5vFEFumgivCFKEAJSUCAIl112mRx33HGamw/JQIDHO+FONA8yBRGBRFA8zmcoCBRA1I27MIOafbB/lDbF5ESpOAaUGo1XKqNGKhooL8HjGlLgzu+/dCSdCCzeZ7Z1ySWXqJHhibqhGBR173Af8p3/vgLvMWuyYjCUAu7+4xmBaOC05Lnp1bPngfuyiHsT2Qm5oQSBCBa1ypQn8OxBiphGBn1ImQARMuqkIWqQPXRPqP7DEUlaNxkTrAsBpLYO+YszMhIdVRLB275us6xyBG/nxm3S9ciDpXnntpLo9D9g2xwzhI7j47cQUE90+Q4y5gke7+nS2bt3b40gQu5mzJihC3oJosfzzXZZl4X3ahf48wg5H6KBHKs/35oEI3gGg6HciCMtzAnIxEMOlfhWrX8kdyGCtAAQuM1bSELPXpLgjPo48t9TUiTeCfWAI0CBtWskLj1Nkq+9ThKcIRaXnq4/Q8jj5USp0cwBzx7F6aRjorTyCUbIfiFYFGIj3Gl8wu8R6JBBTS/BGAb+N/xd1HGXBH4X9luOCUWEwoLckS6Dh7VL165KivIVaHn2W8EoL8HjGrANDAKuCYoVYwRy19MZCEnVOLpZJRB6H1XwPWURPIMhcnD/QeqIJlFOwHLUsGFKwIqSpxBBCB3zzuE0JBsEgkbK5TXXXKMNqSBKRMNKqltGN6EL0YmsG6kMD0VJBG/Lqg2yatYS2b9rj/QaPlAat3O6P6nwhlzsH31AVI/yBiKPNHZBv0BsIWToCpy6vHKurMM5ELVE9jAP6Icffqjkj/U5L7YZGoHklTEmcuedvmU596oMI3gGg6H8QGiyQJgQkv7v4lDI+nGpadqAJXHQIEkcergSPiV3wW0hwIncPfXUUyrQqRVAuJOOWZRw5nOEN0QPAT9t2jRVRiiMlk6wE+nT7YcTvSiCKRJIgSH1hLoC0kqIWEE8OY78dM0Y7DsWKA/Bo5EKynfs2LGqjCnWP+ecc9RA4ZomWtSuWsMieAZD6eDJBg25lixZoqmKRJSKSuMnKsX6RLhwbtJUjIgd9zQyFF3jCWJJ9zffQ4IgjZQy8Lzy29I8FyURvM0r18maWd/J/h17pPdxg6Rhq6ZFEjzAvjl2zh/dDVElKklkjylgiDKyH3Q6xwtB43Pm+yQdlZRSUlhxpDLVDtE9Mmj4DD3F+LAPFmwClkjGqrrBCJ7BYKg6IJpVr57EN2l6YO47FJwTuigQUi/orPjaa6+pUD/pxBPlyCOPVOFeHLHwQhxFwbqeYEE00pyg979X4R4rAe+2S60FaSgcOyAlB4UOOW3izhWlqojVMUQRpSV4XD9qI6ixowkAqUVELknFpMiflBvIL9fJUL1hBM9gKD1SU1JU/vG8QFZIpSxKHiI70SUQGVIVyQ7xxK4sZAXdyjMLCaL5CVG90vy+JIK3cdkaWTNniWRnZEnfk4ZKvaaNJD6x5OYsHAPnw/FAZtkmETfOm3FCZ/I92QLoH8aMdFNSPRkTooCME8eGzuccIdDofrJ/6tapoySyPOSOc6fLJzqRGsg333xTX4keQijR76UlzNGCETyDwVClgQBlbrsvv/xSW+iT5khqBmksCPPiyF0oELKQCAgdAh4BDEFBcfhc/1gLYaJT7AvPI+dBXSDnh3JqBMlDoVeCIigtSkPwfL0IkVNqRUgpQulR8M91RBmX1qAwVF1YiqbBUHp43UD0rlWrVvr8FHVvQvCQmegzHJfhRBCdgiOTSJ+Xybz3WSrh26VRC+SH2nZq9UhnLM1zURzBY7/rF62Q1XOXSp5b75BTj5S0BnUlPiEyve3B8UDGGCOIrJZXhCF0XCB4pHZ2diQPfUOzFvQ+mTOQPXQXTkfgiWJZiB5ZRTS4eeuttzRtluwUdCP74DuOx0djS7vt8iKU4JVutA0GgyHGQDkgJL/66isVnHTJok4LcgBRKy0Q4Ah+Om6S8oExSoMP6h6oC1MlCPxrNIFwd9uFxOGB5BhIJ2H6ho8nT1YSq+vUEDCWpP6scGNLWi2TX5MqQxrN5Zdfrum1GP+REnRD9QGGTEUbMwZDdQfRJsgdpAAgQ/N1UoRgfRwYkJkdTndCqtA7fB4oZHueDBLRYr/RlsfsL3NvhkbvKIdITk+TuPjoywb24xeA/OF8evXuLeeec478+te/lltuuUVtB8geOunhhx+WF154Qb744guNXkJSGY9Iwbpk4hC1IzOFhm8QdCKHkGUIH+UkTDBPjWVlwrSswWCoUkCAQuzwDBLx+vnPf641B0TAyqSInPDHy0cKDHULCHu2T8MWPHsoOkW0jVOUDgvbdQvz5EHyRjuiQ+SL+Y+oF6gpQMmSnoJX+H+PPaaKlLH9v//7P7nm6qt1fkK8sIaaiVBDy2AwlB5kPrCEzwFXEtCZpMJDLph3Ncf9HmLH5/pMhi4OEDscceyLSFdhkbFywe0myxG83MycA1Mj1K9zoIt2lIF+KWq8mEOVbB/q9X//+9/Lf//7X517D937/PPP64TrNKyB6EHMIiF5jCWkbeLEiTreOIzvueceGTdunM7P98c//lHTXSGSOKhxVFcmjOAZDIYqAYQ0KRTvvPOOTnxNfQGEjOLqcnkZg8SN39PghA5c1157raYcUttHbRhKQhGiBBWh78uCUNLo3qNIW7RsqQXkKNnVq1fra3UxjEkhIorqU3r8Ncly40dtIZ7Lhx56SCOTXLtbb71V51Vq3KSJnrtFeGouLIJnMJQNkAsicExS/vrrr2uqX6S6B92BY42UeDJSkMn+WUTmKnlz73M92Qv+Br3DEotaMSKIGXv2Sm5OtqSkJUsS0yNFWza4cyACxxyALIxBuB71Y4BjkbKC008/Xf70pz/JnXfeqQ2+KNm499575Q9/+IM6fWk6w3aKAteJddB1pMnSAIaMHJzP2Cv8TY8AyDNdv4moViaM4BkMhioByB2FyqRPkE/PPD5HHHGEFlFHSznQBIJ0CkgexGPNmjVa40f+vBItVvL7QlmUZ7+F/JbzgCThNUURE6Fkv9UBKEnqLKih49qQWsT54KWcNn26kjs8yBA/GqmceeaZur6vdTQYDAbDT4GmQEbiaCR9nyyI/RGm93myhi4B1H3R3AvZrIv7zGsiT39Yn33xivNU1w9+Fw1A8LL2ueN3x5ZSN13iSll7FwmIUFK+QSokDWPCyV0oGAfOk1RYdNKpp56q00vwin1B183//e9/mjVEbd2OHTuCvywInNDsy+8PZ6fXbyzYLeyD74qKLFYkjOAZDIZKhfeK0VAFrxeCkZTMYcOGaaSrzJG7QoCgh+TR5ANvHp0c8XwyeTpNIgqkarh1owoUkFsQ+ngJOS9IUzTPL5ZgzGigAcFj3BhLWmyTjvL222/r+EGeR44cqQSahhYoVdYz1Hxg1BRnZBkMhsJB+iJ6CfKBDqIpFToxEvDMQdSIGqFLftLYg/du4Tv/uddB6DrNxAhG+aIFxEDWfgiq07f1YjOROOfNOZMyyXlEomdYBwcrqZvYF0zyfv7552uWEAQZGwRn79atW4O/KAj2SaSVhTEn+hmqvz1xhux169ZNnaCVCSN4BoOh0uAFJlMh0G2RlIbRo0crkShNt8zSgu3SanrUqFFKViAnTL5NTRxdtmJlqKKI8A5CKkkd6dC+vSSTIhP8vioDwkZaCx3T/AS9FJq/+OKL2rgGJUldA+QcYm7ErnaB623X3GAoG9AHpPgRFSIFkChevrOxGKCrqEUjPRPCAYEJh382/fPJdiF5/E2qYVT1LH5M91/mngMRSOrvYgGO3dfPQ44ZP39+xcHrdtW/QUfvn//8Z7nuuutUt7GN0kTeGEuOA7LJdWMhZZMMIaKDfM6UCgUauoUAUsj3EMxIrndpYATPYDBUChB2eLs+//xzrYWDWF188cUa/UHpxBxu/8yvg4An6kRRNOmhkLxYpFYg2rOcImDqAGrUSO1o7xSM0ygHlioObwSgiCDEFK1D8GgHffPNN8sVV1yh6SkYGYbaB57nwgwYg8EQGSAqNKMiqkbzD/RjSUY/zxwEw6dbaiOrEvQJ67JAckJrqaODPAnkBDSCRxplYtpPCWc04KOQnAORMl5LAmMVrts5d36PHUDN+EUXXaSZKJGAa4Ozk2grqbU0X6G2Hwd1//79tWM0EUF6CuAEDa/v4/ekmfI9dYSQwGjCCJ7BYKgUkAYBQXjmmWfU00W6BB2vytVQpZRAKdB4hZqyyy67TFMOmTOLxiva4hiDtaxGq/9d8JVIJSkgCHMiXOwTD2K59lGBwIigPTQk+K9//at6HUlvueaaa3RusUiVrKFmAs93JB50g8FQONB7Bx98sKb3YfgzxYzqoWLgCR5kEPkbiYONbbJAMIqbe68sQJPl5Tnis2uvY2EBSY9RBA/4CF4k5wyxw7FKtlB4MxXOn9RW7BAcr5E6KXFKE2mladtvfvMbmTJlimYE4ewkA4ntMMbo/gIdu4OAZDMfIf0H/PWLJozgGQyGCgWCliJlGqrQWthPgE1DFTpRVZiRGDRI8ZoSyYNw4XlD2E6YMEGFdYYTuhqVKI6AlfA9Ap7UU0gjhBYCS6oj3bfq1nHKj/OtqHMuAzh+xoQGKpBTCtKZ84cumSeeeKJOLBuTVtuGageL4BkM5QMpmqTD07ADmUsTK2RwUeA7yBp6FUJB/RfPYXF6C6LB4omN6twoPruBnFzJ0Tnw4mNSg8c5s1CvGCkxYn3mrMPJSnkBqZPh8M1SIrVBGG9I4fDhw9U5jR2BroRE0uGTiByOT8aYukqONVRGcg34HBDti5RYRgojeAaDoUKBFw0hO2nSJBW6pGTSWjiWNXclAS8maRmkaaBcIaAcH6mIe50i+InhWgpluGXrVk3LpIEM9Xcog4EDB2pqY4WR2TKAc0ZBrVyxQt5791156623tK0043ThhRdqBzImkIcgGww/eUYMBkOpgS6ipX/37t1l+vTp2um5uNQ9dKhP5fQEhWexuOeR6BXRI9aFVERVC7nd5mS67WdlS0JSoqTUi83cp5wv4wKxhUCVBNaDEFIjF63u1VwrsnDoG0Amy8knn6wOXJq2Qc6JFBIRhKxzHdk/xwH88RPZo2aP8gaL4BkMhmoJFA6pCrQhhjzRaIS0SFrqVya5AxAtlB3k5bTTTtM0GeYieuWVV2TJkiWyZ+9eFcj5CCVmvGcJU6j8tcud77czZ2qnSQQ8DUiIFOafr/9dMcq4MoASgoySkvmOI3cvvvSSpgxBxC+//HKNtlrUzhAKnqGq7LAwGKoLWrZsqU3AAPqnuAmz0UsQNl6RxyXqUadrWB8Zz/r5EbyoPbt5krF7n+RkZ0lCSpKk1EkLfh49cKRMxcA5Q1C17rAEQOiImKHnmew8yb2WV/cybj61E1J+3HHHqcOaz2gaRz0/hA99z3ijQyHjgGPhupLdQ5kIZRvRhhE8g8EQc0DuSCMh9fHZZ5/V3PWrrrxSTh05Ur1blUnuwkH9A901zzjjDI00Mvns3Llzi66FKEJJoEQ/njxZnnv+eSW2RL3OOussPV/mHcr/TRU0iiF3kPC//e1vOj/Q4MGD5fe//72SO6J2Vel6GaoGSooaGAyGyFDHERYieGSUMM8baX8FHIwh8JEpXn1EDvkcXwxpg+ywPdZXJ10UdRAyYO/OPRrBS05NlrT6MYjgueNlnkB0LGQqkqZsjI9PS/VdNxVRPHeIZscOHXS6C2rrFixYILt371adTwomf/s59ojesQ62EBE8vo82TEsbDIaYAkWC5wrCMHbsWE1NpH5r6OGHSyLpIVEUsNEAyrFZ06YarbrSkVAija+//rrW0KFQCgCDluP3i4M/X/LwfY0hqRu0TUaxKDkKWV8R+r6S4Ek4ReOPPvqodjbFALjhhhvkkksu0dRVFBjXCwPBjHlDKLgvqtqzbDBUS7jnCKOfaBC6ksySop4tIlkQF5BP2EBR67uF+jP0FJGsaM/FilrQBit5cZKclirJKSWnT5YW6B4ImyephU0NEQ7GiOgZ6xNVS3CvRY1RJPCEMVQPco3YLiQbpy62A+SbCB/NV8gKojkZx83n1AK2b98+f7L0aMMInsFgiCkQctSf0aADTxYpmaT4IfSqKpKdwmjbpo02EaFmDqH8wQcfaOMVPG8oVQS7inYEfFDI8xkpF0z9ALlDSdNABnIHaayqBjCEjXqBd955Rx5//HH1NBLJpEsmtXakn9BOGwVJqind3VBQKCqDwcNIv8EQHUBaaNqBHCa6U5ju4HnLcUSDKBCRLIhLSY06kNkQPAiKXz+qeskd074de9ybOElKTZb4xNik8UOuOBeOX+vA3X6Lkz/oOJ/KCpkqL6lFFzLuoSRPr0dwP2yfa8K+INLMsYeOhfixDr8lgkfDMr6PhW1gBM9gMMQECFLIDqToww8/VIGIR5IJsck3z/c0VkEgbFOd8sO7Rt0cHS+Z1oEUU8gNQhoFGQqENmSWGkOid6RmeDJLjr16DKsYUEicC528iLBSN8A50BmTFFWuF95jFBXnQ9MZ1vHnZwTP4FGccWUwGEoHdBByF/KCbkHe4lQLh/8OskY0rqRIEM8pTkp+B4mMZvQO6PZ37pG4BEfw0lIlLgYEj31gT3AO2BEpbpz850XJIdblN3zPb8pLqLAHqLEjhdZvlwwYsndo0oZDlMYpkHOuDTYAxBp9y/hzLWn4gn6l02YsYATPYDBEHQg7CoiZrJVuUgg90vwoQkboRVupxAocp58S4LDDDtOC9xdffFFmz5lzYO4aJ9DxoO5zAttP/UC0knM/++yz5ZhjjtGCea25q2KAoKJsmIiVaCPz/6F4mGye5jeDBg0qULyOIhs3bpw88cQTOpnrT9JVDbUaGEyx8EIbDLUd6Bq6LdLFOIBjMYTEIMchCxBBCJs6TosgOQDdjJzndxr5ijbY/q69Eg/xSk+VxKTYODYhU5A2ZI53nhYnfViXaBukOZ/gMU7FjFVx4JowZRCTm5N6SWYL9gETnjOpOdNdUK9OFg9RRtIwGW86eGIfoHt5JUoLGYwFjOAZDIaoAyUCuXv++efV03XppZdqHRpCrrqQOw8UAd43jp+IFhG8e+65R0nRIqd0Sd+kbg3iQ3ojQpvieNbHe6fnW05lEm0QeSNFhMjqvffeK5988onW2P3lL3+RU9xxt2nd+ieeYJQYqZtMc8H1NRhCwT1h94XBEH1A7qgDZ2HankDwOeN5g6jhbINE5OvWEhwtEB0A2Yk2OLSMXfu0yUtSapLEcUxRlgucNwSPc+ecvY5lX8U5mRgjdDKvrMdRMZZlyUShsQsROZqQ3XnnnfLnP/9Zbr/9dv179erVOhUSBM/XOELuIHOQcZylOL05FspWYnEdQPWytAwGQ5UGghLPFg066JZJtO7iiy6S4ccco2kK+QqomgFlQKtj0jX/+Mc/quCmzo73V1xxhfz9739XAsRE6VdffbVG7vDKaSczj2IUT4XBKbPtjpBy7Cilxx57TNNQf/GLX8h1112n0coUp4hUKYcBpcr1NSPeUBh4RoozrgwGQ9nAlAlEgogMhXZ0Rr+kpqRo4zJPXEoC8tsTvEiak5QWbH/fzl0SlxCvKZpagxcDuUBaJKQJAlVSuYcnhCzoZR/B46gYwwJ6OkKgN3H40nGbqBwObUoYaKp21VVXacdp0i89AeU4yQIi+4UsIDJn6E7NdSvp+MsKI3gGgyEqwPinfov6LOaP8w1G6JbZuIpNhVAWoAypHRw2bJimbNKABS8d3bGGDh2qUbuRI0fKYYce+uPUD+GKIwaKLlKg1FesXCnvTZig3UwhpAMGDNB5/44++uj8ScvNSDeUFUb+DYboA33StWtXJQNkXdBqX6NOTlZDHJhSAWcqTtQiwbPpFh/xQz9FOzWQ5z9ArduefRKXGC+JaSn6Gm14wsY5FIhcFgHGivVJ08QuIWKmei50KSUYa64JtgBTINGQjPIGiN1FF10kPXv2LDC+HCcNc6iXJAuIKB7z7bKdWOlcI3gGgyEqoEMU88ZNnjxZ0/tIUWSqAWrQago4ryZOQQwdMkTntEOg//znP1cBT7dJmpPUd0o4NuK6bECh42HEY/jmm29qOibpmVybCy64QJvAcI2qOwE3VC6M3BkMsQGEBBKHM3H69OnaXh8ZDmgGhnOO7ItwwsYz6Rf92y2QHAgeUaOoE7xAnmRnZEn2vowD0wXQRTMG0SkIG+mRkCYIUkkRMNYn4sd56yTnwRTN8oLx8w3JyORhWiXsApqyQbxD94F+hYSTpknElS7iXLeSmuKUB6bRDQZDuYDwhEDQLZNOjOSWI+xIV6zq3TLLBCe0k5zCRUjjwaN2TVsd16unwrqA4qhEoxeljlLbvHmzzJo1S15++WWdBgFFQ1oJqaR9+/bVDl6x8iAaag+4h+w+MhiiD2Q2KYFMoE0mBhEgXwuNzqG2HR0U3o2R79HPSvCCzyaRLE/wio34lQE6Jx8Ezy0QvOTUFEmMj67+51wgqRBcjp9zVhuDcywC/IbGMiyQO5qeRUNWsQ3Gn8gq489CtLUwm4drCLkkWwbHKuUezZo1i6lj1QiewWAoM3zqA2kjdFhE+dCBkRq0WM3tUmUReq7+fSWeP0qQeXYozL/tttu0QQpppNTbQb5RjLFULobaBYwoNSQNBkPUQVOPbl27ajkAztTly5erjAfoWSJGSaHRoOCzyHdeD/N8QozQ2XwW7Ro8JXiZWZK1P0vi3bEkpaVEZx68ELnCOWB3+AhmvlM1eI6FAbuErpU0RFMUs24sAfFjmiiyfshwyk8VjRFMuxsMhjKDWgCmQaChCml+RIYoHI614DIUDxQ/UzbQ0YuoHek9N998s6aSMGl5tFJUDAYP7ie7pwyG2IBnq1HjxjJ8+HDNmGHKBOaZ9dBnL/T5c+89GQp1vKAb+AznXrTTAwO5juDtzZAcR/LooJmUEoXukO7Yc93x+vNg8YSNzziHkhyV/vwhWJDaypRTHAPHXFiUL9owgmcwGEoNBCvzvhC5Y7oAphEYMWKEkjuKmM3QqxxQl0CXrqeeeko7meKxpNaOwm9eyf+PZVG3oXYj1JA0GAzRBVE6SgJIracOj+l5SMMvFO5ZLKxDJOmZPKc4+aJO8JxdkLk/Q7LdPqi/I4IXFbjj9bKFV+rKIXmcQ6HOZNb1iwPrc2yQO+yTspIr9kOXTOru6GxKimVVhhE8g8FQKiAo8RySJgLBQ+DSPZLUEerSLO2v4oFXlukpaKRCSuZ7772nCvDwww+Xc889V/P+qQ2ItkI3GAAGE4aWRe4NhtgB+e27U6Nnf/jhB023LAo8i6Fzw6Gr0Qv8HQuC55us5GQ68pWaIslRInjh54C+Y4GwpTiZ48F3pInqa3Bx/+RHLTlnCFpZbRTkXIcOHTQThu7TZMZUZZglZjAYIgYCk4m8v/rqK+3GSJoENXd0YoRAGCoeeGTpYMo8PExPAelmzj46e0LuaM1sMMQSGJ2k/tJkINp1PQaD4UdAygYNGiT9+/eXFi1aHCAxhQFCBMELLh7oCwgOZCfaaYKQq5ys7GCKZrKSvHLDHTvHy8J5cL6cA4sSPORNkMjxHROXk9LpF0YHgueJbXmmAvIE78wzz9R6diN4BoOhxgAB+tFHH8lLL72k6YB0y6QmoDxeMUPZQeoJqbIvvPCCPPjggzJ//ny55JJL5E9/+pNG7bguZVVmBkOkIDX7lltukRtuuOHHOSANBkPUgTznGTvvvPM0ikQHx0gBAduzZ4+SRNI9o03wqMHbv3uv5GbnaAdNSF60gQ0CWSMiR7lBiiNs4WCMQvUeUU7sFYhe+PQFNRkmhQ0GQ4mASJAC+NZbb2nNHdMfEB3Ck2hpWRUPFBWTyjMtxZ///GeZNm2apsjSLZN0WWoD8NDadTFUBJgPimgCcztF22g0GAwFgVznOWOJVMZDjNDjZOD4dMVoP6ukaOZk5UjO/ixJSEqUxGg0WQkDx070jtpDziHZLW4QCkT6/OLHh3XpusnvapNeNIJnMBhKxKaNG+Wzzz7TSBGTdR5//PEycOBAnX/HSETFAm/kvHnzZOzYsdq9FBCtI2VkyJAhamgb6TZUJDCkMJzMqWAwVBwgLjj6cPDRWRPyUxQgeDmO4EF0ID+kNuqz6j6PFgJu+5m792laZEqdNEmOQQQPkko0bvfu3XpOzLcXCs4pdAE+4udJcQFw/lEcg6oEI3gGg6FIIBQp5KahyuTJk1VgMn/L4UOHKpHwAtQQW6hyDkbtmP7g7bffVqWOkiZiR9H3YYcdpuk6KG+DwWAw1GygE9auXSvjx4/XrppM5F0AYcQFcoSDkBRNatGirStIzdy3Y7e+T6mbFr0umiHAJuEcILfYH5GcA7/B+USmQQHnpxufmkntDsAsAYPBUCggFcxz9/nnn8t7EyZoy/1rr71Whg0bJs0duTMiUTGgbgLFTa3dxx9/LE8//bQ2uaGpxa233io/+9nP9L01tzAYDIbaA6JRRLNwwM6YMUO2bt2qejsfIQ5YPofo+NRG9IXq8Cg6aSF4e7dD8PIkOS01Jima3tnJ8bNE0gkUYguxoyadrpue4NVkcgfMQjMYDD8BQhRFQFombffJXb/00kvlqKOOkrp16wbXMsQcwevApLaPPfaYPPDAA6qc6JB5/fXXS58+fYzYGQwGQy0EpIU5aEnRnzp1qqxatUpJXFGA6KDLIYaxSOMP5ORKxo69kui2TYOVhMTo1+NyDjg8yVapX7++nkdJoLEM563rhpwz569jEOVxqCowgmcwGH4ConVvvvlmfs3dqFGjtFMeZCLaSsFQNFavWSPjxo2Te++9V1MySceE2J100knaSMWiqAaDwVA7gfynsdEJJ5ygNXiLFy/WNP7C4CNfkCP0OB0oo60/ct329+7cJcl10iQhOSn4aXQBwaOOkCgkDVYiOQcIHr+jg2ZtglkHBoMhHwhBau6o84JYtGzZUidVpVsmc10ZuYs9uAYoa9IwmY7igw8/VCUGyabW7tBDD9UJ5VFwBoPBYKi9oK6sd69e0rlzZ1m+fLksWLBAdUg4IHh8TkYIaY2RRL5Ki9ycXNm/a7fW3yUmR3cSdQ9IKg1WND3T6cBIbBLSWGm08pMGKzUcRvAMBkM+Nm7cKF9++aV88MEHSiCIFPnOjEbuYg/SSPDAMok8k5bPmjVL6wa4Dsx7REomaSl2LQwGg8EAWWvUuLEMGjhQtmzZoh2Wd+7cGfz2R/j6O99kJSYELztH9u/Y4wheqiTEyAEJwfNz+UUagSRqiW6NdsSyqsMInsFgUO/eju3b5ZtvvpEPP/xQ57y7YvRorbkjWmSEIrZg/Ek7WbFihZK7F198UWbPni19+/bVicuZ0JYpKSIpKDcYDAZD7QHE5eBDDtG0y9WrV2skL7wWj7+JZEHyIHexqN3WLprbdklKnfSoRvDQjyzuH41Cch7YJJHaJZA7fl/b6tWN4BkMtRwIPoT+hIkTteYOYUidF6mZjRo2rHVer4qGH/+ZM2fKfffdJ//6179Ucd15551y4403Sv/+/VVxGwwGg8EQDnQ0zVYopSDCNWnSJNUpoSQPPUOaIq84CmPhLKTJyr5deyW1ft3oddB0x8v8ehA7zofzo4ShNBE8CG29evVqXYM4s9wMhloMBCZpHRMduaPmDiVxzjnnyIABAySefHWL3MUU2cGUzCeeeEIeeeQRbXN9wQUXyC233CIHH3ywpmMawTYYDAZDKCA6OGMhbYCSioEDB0rr1q212cqyZcvyvwMQO0gS+oRIVrRruIneZe7NkJz9mZJWP10SohXBczYItohG63jvjh+HJxktJUXkvPOUceB8qVesTTDLwWCoxYBcMLfa2LFjpU2bNnL88cerF5C6L0PsgOKBWH85ZYo8/PDD2tSmSZMm2iWTee1IzaQNdG0rCjcYDAZDySClf/PmzdrxGkCA2rVrp85Z9Ac6JhQQIwgOxAjdEu10RQhedkamRtzS6tXRBijRAufG8XuSysK5RBKFpOYQMszE7kTxahOM4BkMtRAIyHXr1ukEqRA8QCOPoUOHWkOVGAOP4pIlS7TW8Z133tGieCYqP/XUU/Ua9OrVSz2Udg0MBoPBUBhoNOLr7TwgPWR+nHjiiVo7H+ogJIKFE5Fum7xGu8lKTla2ZO7Zp5OHpzWoG/UumuhDMo7Qn0QuI5kDD0JIgxVIHr+3GjyDwVCjodGjzZs1akS3TPLZL7vsMjniiCN0bjUjFrEBpBqlzKTlb7zxhrz22mvaVIWoKTWPxx17rJJrg6GqAZkRHhEwGAyVB0jLypUrZeGCBQWeTeatPfSQQ3SKo9AIF++J3tGJmbnzop36n7U/U/bv3uuYmEhqPVI0o99Fk0gc503KJVlGkRA8GrLs2LFDX2sbjOAZDLUNTuh9+NFH8txzz2k75dGjR8vw4cOt/X6MQUrNnDlzdNJy6h0Z7+uuu06uuOIKad++vSTXMu+ioXoArznOCRodIDsMBkPlgyjW9u3bZdPmzfp8FnDABPU4z27o50T0evTooUQv2sjNypbsjCxJSk3R6F1cfPRtCc6H8yaKB0EtyV7h3NG7pLHyWmCMagGM4BkMtQQIxw0bNsjTzzyjNXekBf785z+XIYMHa+pCtD16hgPA48iUB48//rjcfvvtOknrNddcI7/5zW9ksBt70jFt7A1VFV988YXeq2eedZZM/uSTQufYMhgMMQbkJISg8BwSlUpOSpKEMLKDrofQPPXUUzrtDrV6gHWoRYtFbXd2kOClpKc5kpcaE50GueO8OR9IbSTgnOmeSf1dtBvLVHWYVWEw1AIgDNesWSMfffSRvP7669pQ5YQTTpDBgwZJg4YNS/SEGUqPPKdkmTieWjsI9fTp09V7epYzlEnL7Nmzpxa7G7kzVGXg/V60aJFO40GXV9KkDAZDxYHIUyC4eEB20OtJyckSF6ZD0Of8hjr7qVOnas03pA9EEvkqC3Icucval6HdM5NSkw904Y4yOAfOGYLKEsl5sD56NpKUzpoGsywMhloAyB01dzRUoRCbbo00VGnWvHlwDUO0gGLdt3evLFu+XN5+6y157733ZO3atdKje3e5+KKL5OSTT9aUzNrmTTQYDAZDdOCnQCiqcQj6hYYqkLwFCxZorX0skZ2ZrdMkJCR5ghd9egHBg6BC1iKJRKKLyaAhS4YInhE8g8FQY4BAJE8fcvf++++rkL/qqqtk2LBh2mXLInfRBdENIh7znUJ9y5G7l15+Wcf/6KOPliuuvFIOP/xwVU6xSJExGAwGQ80DehpiE5rtAcHj8/T09OAnP4LPIXg0TuP777//XufFi2UNWk7mgQheYkqSJKWlSFx5CB7H6ZcQUAfMuTVu3LjE0gbOlegdNg/6lvVjMbl7VYYRPIOhhgJyR4vgt99+W8aPH6+CEXIH2SBlgb8N0QPjDbmjM+m//vUvefrpp5VIU7/E5OVE7dygB9c2GAwGg6FswJkIwSkqgsd3HTp00DnxsAM+++wzJYWxIHlsM3t/llsyJTU9RZLLG8FDT3pd6YmeW7Lc8XMO1NRB2IpzlOoxuXWZb1aJsFs/yQiewWCo7kC4US8DsXvppZd0AtTzzz9fBg4cqJ49I3fRBcp24cKF8uijj8qYMWNU8fziF7+QSy65RA466CD1otqYGwwGg6G8QL/TRAUCA9EpCuihQw45RLtmzp8/XzZt2hSTGlolU5mZOtF5UnqqJLulXDV4bnvUsOeGLUwzRJMVUi29HcO+i4KP4NF1U9erZTrYCJ7BUMNAJGnVqlVa+wXBIw//pBNP1I6NCHojGtEDCpbJZl999VUld8xxh8cUYketXceOHbXmsbhUEoPBYDAYIgV6B4IHgSmO4AGcuzT3ghD5eW+LI0VlAaQxKzNLcrJzJJFpEtJSykfwwmwUT+Q4Z0oeeA955fNCrRn3PeswPpBC3sei6UtVh1kdBkMNAuSOhh6kY9C9kfSN0047TWu/qLkzohEdoDDwJM6bN08mTJig9Xbr169XcnfmmWdqh1JrpGIwGAyGaANCRfMQCE5JBI/mIr1795auXbtqkzXsA34bTeRl5UjO/kzJdQQvOS1VEpOTyj8Pnjs37BW/oHOJxJFuCrnjM/ZAZ1GifR6sB33lFXsIkkdDlqJSWWsyzNozGGoQSMGgocrkyZNVGDKJOYXWTZo2Da5hKC9QGOT1z5gxQ9544w159913VdGSAnvhhRfKoYceWiuVicGAUUV0gfTw/LSoMPA9XnXmgyzse4PBUDT8M4YeomlISQQPItSpUyfp16+fOiEpJdixY0fw2yghO1dy90HwsiW1XroeV3kzhTQ6F1yAJ2yQO0grr/4znT7CL8F1/cLvfc1ebYMRPIOhhgBhBtl4+eWXdY6cq6++Wo499lhrqBJFoEwwTt955x25++671SNK1I6mKmeccYa0bdu21nXqMhg8MDwxIl977TWNFGCEhoO5IZlTjwnUY1EPZDDUdPCcoYtwJFICUBLq168vXbp00Ujet99+Kxs2bAh+Ex3kSEAymZfPEb30xg3L10GzCGDfQOo432bNmh1I0fQRPuyb4IKto3+79Rkn0jpZt7ZNkQCM4BkM1RwYURhVL7zwgqYKUnNH10ZrqBJd0CGT1Nc777xTa+66d++ujVSuuOIKadWqlSoQG2tDbQeROwjc4sWLC40U0LIdI5MoH0abwWAoHXCMeMITaRkAOoou2tgGdNeMJgI5Ae2iSYpmeqO6SrqiDQgtqaXIF5qWaYomZI7X8P25z5EsEDwWSGFh00nUdBjBMxiqMRDyP/zwgxZP+26Z1H8NGjRI51szwlF+oEwxSmlawxgzn9CQIUPk9NNP1yknSH8xcmcwHOjahyGFhx2CRwMiDDMPnFErV65UmdWiRQt7ZgyG0sLpfDJ0eJZKE5niuaTZSs+ePTWiF03kZGVL1v4MfdbrNKgbkwge57tv3z49d46/JBLJsUAGIYVk1dTGengjeAZDNQUCDAOKqBI1dwjwU045RYYOHWqTmEcBKBQiENOmTdNaOz+PEKTunHPOUZKHkYqSNRgMBwgexhcOpnXr1ql8wiDzoIPf5s2b9T2ZBvbsGAylA05dT/AgOZGWBLAuzUawE9gGxCf02SwP8nJzJCfTEbycXElvVDL5Kgt8YxlIGxG5kuwbTwhZWLc2yhojeAZDNQQCmhQniN3EiRM1z/zGG2+Uo4cNU9IRCwFbW8DYokSoFZo+fbqmvtIpE08p0x9cf/31OrcdhdtGog2GgqCZQf/+/bXbHanjkDrAc0UkHIMLB1TLli3t+TEYyoBMR3QgPKUheB48hzhZVqxYoU4Y/i4v2EZOZvaBFM2G9WIWwfOkNJKMGRzgyCDWh9zVxtp4swINhmoGBBeCDmL3+uuv69/UgR111FFSt1694FqGsgLFSeSBRip33HGHfPfddzrVxE033STDhw9XL6gZpgZD4cCYot6HBhA4SUjHxADEQJs6darKLho+EEmw58hgKB14lnbt3q3PDs6U0nZsxl4gK2Xs2LFqQ/BclpfkZWfkaA2eOzpJq0d9XPSfa7JnIGw4XyFrJckOf07IGcbIIngGg6HKg8jdiy++KGPGjNFi6YsvvlgnMbeGKuUHCuT999+Xe++9V8aNG6dTHtxyyy1y1llnaa2dpZQZDMUDGcRzQr2PTyPnlWkRiBpQG0wdkGUZGAylgzpKcPA6PcVzFlHtN0THLw48d9gN/I5mR9SUQ57Kg3jSIDMyJDEpUeo2jk2KJueOjcMUCfnOoeA5KULfO+CopeO1nwOvNsobk7AGQzUBAosGBZMmTZI333xThbRvqNKoUaOSBb2hUKA4UAQLFiyQp59+WjuRkvJ6zDHHaMcxau3atGmjisJgMJQMZBEkjugABiTP05o1a2T79u06bQvPk8FgKD3QV/scwSOKhU4qKfUQ5wppikxjAHg2sR1wWBINo8yDNGof8SoLMjNzJDsnIIkpyZLaKDYpmpA6SiPQx9Tg5RM2jtsfe8g5cN44bBmj2ur8NoJnMFQDIHxJdWIScyJMeLFOPfVUFXZ0rDNyVzagBKhHoNbulVdekQ8//FAVB+TuvPPO08go5Lk25u8bDKHASMQJMmXKFJVD4cvs2bM1JdOjY8eOalxt2rRJ592iqyaGVtOmTbV+1WAwlB7YAqQ5E72r64hOSd0hifjt2LlTn0H0HfBR9NatW+tcrlu2bFEHcllAtD5jf7ZkZzmCl5YiianJOk1BtAGpY2qiww47TCNyavMUsx/fZIXx4RiN4BkMhioHBDppmUwMjDAm2nTllVfKkUceaeSuHEBJMhkzBiu1jIwtE5VD7H521lnSrWvXiHL9DYbaAOQOmQP333+/Tuwfvrz88suycOHC4NqisolmKqR/zZs3T9PB+Mw6zxoMZQO2AMSFyBQEL92RnsQSniXWp5nKokWLVOdB8nBi4oDp16+frFq1SpsfkUJdFqAjs/dkSl52QFLSUh2piNP/og32Q/S/SZMmBdMtvX4O09PIHbpgs66uT3SPpRbBCJ7BUIWBQEdQ0aafOdgQ1nTLPHb4cGnohJ2Rj7IBJbd8+XJ54okntN6O6MJ1110nf/7znzV616Bhw5h4IQ2G6grSuebOnavROubdDF9mzJihXTM98LjTKROjcvz48boO0XCb/85gKDuItO3cuVNflbiU8Cyh66iDJUuFSB02BGjcuLH06dNHI2I4jyF6PsJXGiAXAoFcjdyl1qsj8RDOin68/RiEjAUZB2TneFKr39UyuWMEz2CookAQk1bx6quval0YOfPUhNGC/IAQrV3CKhpAKTKmdA+76667NK2MeQNppHLiiSeqAWrRBYPhR9Bo6Fe/+pU6Qx5//HF57LHHCl1+85vfaEpzKEipgtDRPRNnFXPfkaJpMBhKD54hyAo1rThJSkrPBKzvI38QQ0/iiIiRonnyySers5Nu0dTIlhVJKUmSUjct+Ffx4HggYOhiyCeZNOXZd1HgHElHzU/prGUwgmcwVFEg9CAitDNu3769EpCBAweqwDKUHuTjQ+joQPrMM8+ocqRJzc9+9jM1TDE8UQgGg+FHEIWj1pepQopbcJSEN09huoRDDjlEny+mGOnatavV3xkM5QBEjagUjshICB5OTR+1CyU5vK9fv746jKnpX7JkiaZqlgU5u/aLkKKZniqRTJFA1I+Oug888IDcfvvt8re//U0d2f44ywsltW5Bn6PXqQWuje5wI3gGQxUDQo6Oc59//rl2uML7dMopp6gBZelNpQOeQhScb1Dz9ttvayoZ6WMnnXSSnH766ZqiAmm2cTUYfgqMI59aWdxCyhfrhgIyRwTw5z//uZx99tla42pOFIOhbPD6jLIN7ILw560wsC4L+o1580L1HHV8OHAgedTg4VT2Eb7SIHvPfonLdQSvzoHtl6RJcbZSFsFURH756KOPtJtnWfYfDraR5c6ZsYK8JkdAhGsijOAZDFUICHDyxhF2dHREMF999dU6ibk1VCkdGEs8ndQWMJZE7mj0wPxcpJMRdSAyGokX1GAwlB6QOZ4xnClHHHGENkkwGAxlgyd4OIEhaywlARuCdEhQYHqBIHhGia4zdQLflZZgYZPkZuVo2Uhq/ToRlY6QYkpDJtIyaZrCcdFtl2mgON7ygjGiEQ2NoSDCCTiVaqHtZATPYKgiQHgjuGlGQFomQvCKK67Qph94oYzclQIoQqcoSDl5+OGHtZEKaSGjRo2SG264Qfr27fvjZKkGg8FgMFRxeBsBEkb0jaVIuHVZdA48p/vQdUTUwwkef3fp0kUuueQSGTFiRKkj7GyXJSEpSZLSUg/MgVeCXt22dat89tln6oAl/bt3795K8L7++mv9rLzwBI9tQR5rqxPXCJ7BUAWAwGYOqWeffVZee+016datm1x++eVau4IQDxfKhuKx3BG7555/Xv7xj3/I/PnztTkNUTsKykklM2JnMBgMhuoEyB2OX1IcsQuITuUjSOjCkeXIHWQHoleU3oMAQf4iSfkMBVtLy0uUxLw4SUpNktT66RJfgm7lWDY6Mkc6KE2YiOyTxs3+afRCqijnWR7we86XaCCEtbbqe7MaDYZKBt4mOkkRuWM+tnbt2mnzj0GDBmlKk5GRyIBQJ4efee3GjBkjn3zyiSpBonakYx588MHWSMVgMBgM1RI4gn1kCrsgVJdB7YjwsSjRw25wS7azLwDkrShHMduiaQs6lLRJMl98WmdJSHDkjv8SUxzhTHcEsQR7BR0NuaOjJ02XIHmkcZNuSjdP5q7DJioPGCfIHWOBDVBbO2MbwTMYKhk0VIGMUHdHKiZRJiJ31NwZIgMKD5LMGNKNi0ld6eB36qmnyllnnaV1d6RqGAwGg8FQHeEJnid3CeGEzZOrEJIFWYLg+PTMfIexJ4MhIDK4dOlSeffdd3VOy0jr4eIT4yUpLUWSIXjFgP3RYwACyXFB7mi8hFMbeweCx37R5/lktQxgnFgYI6KctTUDygiewVBJQABtDeaiE72jIPiqq67ShirNmzf/URAbigRjyLihlHwjFcgd0TpqCojckZJpUTuDwWAwVGcQYYPgEe0iIqeRKUiQW7AXsBjCrQZIGgSnQAdNyJO+FCRQRO1wlE6YMEHmzp2rUbZIkJScLKmO3CWlFlMT6MD+KEWByBFZo/YOW4cGL0TzcHYzfcJep9OV4Dn97sHfkELOH51/YIL1whvCME58xz5YjOAZDIYKA8IHLxUTmNMiGFxzzTXazcrSMiMHHseZM2fqRMsPPvigCvPf//73SpRppMLfBoPBYDBUd3i7AbKmjUNC7YQwsuZBzR4kL5KOm3S07NWrl85nyTRNkL2iSFQoUuOSJC0pVdM0iwPEa8uWLdpQBWLXs2dPnYuPaVboO8C+iO7tdgQOUhZKzHz6KM5cdD5kELL3E7hx2O/sAmr5+L0RPIPBUGHAE0XkjmYqr7zyiuafX3TRRTJgwAD1yBm5KxkorA0bNuiE5ffff7+mdTDX1q233qoTK6M0aqtQNxgMBkPNAwSIyBUZKeg3tRSwF9yS675jCUD0QhaIEWTQ60TsD9bjNVxH8jfEi2lNyIQhmoYTtSgQM2wUny4pcYmSlJIkKenFk0hIF9skikeWDWmZEDDSR0nVxBYicog+1zq8oC3Esc6aNUueeOIJdeD+4Q9/kDvuuEOzdiCLeq4HVtTIJPYB0UjSM43gGQyGCgECmrle3nvvPY3e4S0bOXKkDB40SCcTNhQPxg/l8Oknn8jdd9+tDVVQCmeeeaacccYZctBBB2kEtLYWVRsMBoOhZgL9R9TKd7yMCyEudK8Mdw1D5CBVnhTmp3EGiVNhgAjiJCWqtmTJEu1syX6LQmJcgtO3iZKY6shUWvKPZKsQQMZosAJhGzhwYH5dIAQUYtmnTx/V7+vWrdPII2DfROs+/fRTTRmlAR3lF0T/pk2bplMrhEby2HZGsHMo24XgWZMVg8EQU+BJQ1B98cUXMnnyZBWk1IgNHTpUmjnhVlu9TBHBCW2UFMoGr907774r8+bNk06dOukYnnLKKVqwjcfOIqAGg8FQPUHdVebe/bLp+x9k8aczZcEH38iyr+fKpuVrZf/OPRLILd1E3DUJ2BDUn0FcPGHzUPLmbAg+geRAs4iCEYEjosVvlAT6JbheOFiPBmWHH364ZskQUYMkhoMtsDe2k5CU6Mhdis6DVxTY17Jly2TVqlV6TJA4eg/g6KapyzfffKM63k94Tion4Jyp2SOiiBOcrtiXXXaZnHjiiUoW58yZI3uCZBBw/0DuIIiQO86nttoEZlEaDBUEBBdeKBaE3ejRozUt0yJ3xQMBj4JZ4sgdyuDNN9/UFA46ZF5++eU6jw61AwaDwWCovsA437t9t6ydu0ymv/ahTPz3c/L2X5+Uj+4fKzPGfSzLHdHbu32XI3nlmyetWsLZDBA2iAv2w09IiydtbiFNk3WIfqE/IYPpvslKcD1eCwOO5vT0dBk2bJhGvqh5g5QVhuCWHMFL0A6akLyitgvJXLx4sW4L4vjCCy9omqVPubzvvvuU5GEnQQTR8ZwDC5E7X0eIY5zzIb3TE15N5wyC86dOkYUoZzgRrk0wgmcwVBBIy6TmDqFEQxWICcKqtgqfSIFCmz5jhvz9H/+Q8ePHKyG+/vrrdaEwu7STsxoMBoOh6iFzX4Z8P3W+TLz7eXn99w/L/ElfydIps2X6qx/IO399Ql699UH9fv+uHyM2tQWkW0JyiHIxnVIq7f/DbQf3N/aELu5PbA3ek9mSSpMVv37IOoUBkkdXy86dO2tjk+nTpwe/+RHECHMloIQqwZGoxOQkXQoDJA0nLemXkDXIF7V4ED4icywQSaJ21M4R3WM6BQgqJJPsHPQ+c+j5aRRoxkI5BiUapHqGgv1xDnxem+0rI3gGQwyBgEUgPfvss0rwqLm7+OKL5ZCDD1bBVZuFT0kgjWOGI3aPPvqo3HXXXfrZtddeK7/85S9lQP/+tdozZzAYDDUNK2culpmvfyLLvpwjaQ3qSpu+jmQM6iNt+3WT9Eb1ZdOy1fLls2/LimkLZMeGLZrC+dDZt8rkh1/VFM58OAP/u8++lbG/uVfe/cczsnHZGtmyar08c+Vf5Z4TbwxZbpL7T/u1vP6HR2TuhK9k16ZtwQ1UTXjiQiQL/VcY0Ila7uFeIUK+/g5S+BMUoz/ZzqBBgzQ7Bj1M1C00UgY9THQUoml8gqSTokkELz0l+G1BQNSI3LHQTIVmaEzFMHHixAILHcWPO+64/LnyIHucS8eOHbXDONG96667Tue2pWs2dXjHHHOMRhw9GCOIMLYX56xjUUthBM9giBEQNOSIk2fO5Nt4w0aMGCGHHnqo1C1M2BoUjBuCnFq7l19+WdM2KL4+55xzVPjjzatXv35wbYPBYDBUd2Tty3AEb5FG6OIS4uXwn58qJ91yiYy87XI58TeXyODzT5S0hvVk9czvZPWcJbJ/xx5ty79r41aZM2GKbPhuleRm50heIE+y9mfKgg+myupZ3+l2Uxz5yNrrtj9joSz5YpYsmzJXln8z3y3z3PvZmv759QvvyYIPp0p2RpbqoKoGyBWEzTdZYe654gga8EQHgleWTJcuXbpIv379tCYPh2v4uEAgkh3RS6YmMDlJ4otoZsIxQO6I0EHwqJ87+uijNQ3UL/wNWeM962M7+do/yKaP/DVs2FBr71mH9ExIYD4YD3eMfMdS22vyjeAZDDEAHisKhZnEnPlkmGz75JNO0s5RVi9WOBgzBPZ3ixfLG2+8IZMmTVJPHgqGwurjjz9e2rVrp0XTBoOh6gDDCwOMFCoMK4OhtNi9ZYdsWLxStq/ZqISsw2E9pGX3DtKsc1t9bdmjo9Rr2lD2uPU2LVsj+3bslkatm0mXof1km/vN2nnLZMf6LUru1juyB5lLqZMmrXp21GigY36S48hbUlqKtHfbHnrRyW5xOvnc46V+88byw8LvZeFH0zQyCFGsauC5IhoHoYHg0UCkOEDGWB9ixm/LojchU/3795djjz02v+NlKGh3kxhIkuQU5sArevvo9oULF8q2bdu0OyeRN6JuRCJDFyJu6HvI6A8//KA2FL/lPSmcHA+2AF00OSZSPknzRP54UH/IGEGItdOoETyDwRAtIJDwVH3yySfy0UcfqbChXmzI0KFK7mqzwCkKeBqZG5COWONff13Gjh2rxiItkW+44QYZMmSICneb/sBgqHrA0Jo9e7bMnz9fja2qGAExVG1sXb1BdkLQ9mXosnbOEpn5xifyzcsT5ds3P5EVjrDlZudKjtMVEDrWTW9UT/qefLik1a8jP8xfLmvmLJXdm7fJosnTZffWHdL6oM6a5hlKTBo6Ujho1Ai5+JH/c8vv5MIHfyuDLz5JSeD6RStk84p1kpOVHVy76gC7IpS4FJWiGQqifT7yVRbdyW+I4h155JE6jUE4weMpT8lNc8dTp8hJzpEF7P/bb79Vwsl2mjZtGvy2INg+NXU4xJEpdMrGNoDEQfJw8DKtFJ3HmRZpx44dsmDBAnUMe7A+581rYaQ0lvAknPPleoXCjwPfV5QTzAiewRBF8FDzEJNP/s4776iAvOqqqzRyV6dOneBahlAwZnj2IMP//e9/5bnnntN8e2rtmN8OhWAwGKouMN4ef/xx7YyH0WUEz1BabFyySnZv3Ca5jsDs2LhZPrjvZZl093My8d/P6vL54+Nl/XffS3ZGpmxy61KPR6SvXd9u0q5fdyV8K6bNl3WLV8qij6dJHUf+OhzaQ5p1bh3cQ+FITEqU9Ib1JTE5WdM+mYohr6pNxeCeJ4gd0Th0ZTh5KAqQHAgFv1XHcjmfS/ZLp1O2g5s6URL0NT4hXtNqC4N33jKnHuSN6F1R0UfIWJs2baRHjx4qQyB2NFmj6QoOX86BtEvWo0Ed5JVyDgidB+QJIsyxYnNVJMGDaJJaSuSRa+WvE+fCdSBNdfXq1XouFQEjeAZDFIHwfemll7TbI56viy66SCcNtYYgPwVCD+GPcUjBNPV2pG3QMplx6927t5Fig6EaAOOFbnuQu4ryThtqEBzvyM7IViKSlweBcP8H8goukJMgP8nOzHZLjhKL9IZ15eDTj5L45ASZ9fZn8skjr+l0Cp0GHSSte3d2JDDtwI+KAJ07927bIYG8XGnYppk0ad9CEoroBlmZgCxAXCAzkJZIiAtjRqdJModIgXRGSPCb0oFnmueb+eq+nTVLdjhiFYqUOumSUsQceBwvDVMgPNTfUc9XFLCRIG6tW7fWKCXEEJnClAhE4xgDHOicF8SPzzi30PpC7iGOF5uL7yvS7poyZYpO+3DllVdqZ1COFWDnQOzI5Pr1r38tH3/8sX4eaxjBMxiiAIQKXhsidwhBWgzTUOWwww7TvHIjdwWBQch4MW3E008/rZ4tiPD555+v44anr6K9bwaDoWzA8EIGHjDQyxclMNRCOPVYr1lDSa2bro06GrdtKWf/40Y599+/kHPv/uly6h+ukF7HDlTCwiTb7Q/pLi26tpf9O/fK6m8XS93GDaSzI3iN2jRXEhgKmrJ8++an8sot98krv7lPxt/2kMx641PJdYSxbb/u0ridI3hum+UBEcDsTEfGdu2VXZu2a0opXT43LF0tW9dsONAMppTPCZErCBLNSCBJJdXguR3oPihtIOWxxPUjAGnY9BUgGsczH+e2nywJktjQEax6hZNijpsumP/3f/+n+h3Hd1HwETqaqV199dVy9tln6/HTfZxzJk2TTB+6etKVHPJKRBAi54EMApA+SG1F2l6QUebwg9xBQL2zi7GC6BKRZOwIBFQEzHoyGMoJhChheQQfnhnyy0855RQZOGCAClYjdz+CsSKtglodBDTNVBB2FHKTjolgx3tnjVQMBkO00LJlSzWOMRZNHldNNG7fQuo0aaBzqtVpVF8OPesYOeqKM2T4Nf/f3l3AS1dVbQA/doKACkiH0t0qjTQI0i0g0iEiIIoCfqCUKIgiICqgpNIlBijdDdLSLY2IqN/5r/fu63C5nTN31sPvMPedOXPmxN5rr2flOtXSW69dffaLq1fzrLpEtcCay1Tzr7l0Ne28n+r4ZlVN/LFJq2nmmrmaeIrJIn9vuvlnrab41HTV+yf6X/n8glf//lK0YfjLsWdWf663K0+8IN6bfoHZqjk+t0j14fq339VNuKG1S3iiJuv/fvPf1ZtvvFm9jsA99ffq2b89UT1+54PVg9fdWd17xS3VnX+6rrrtwiurm8/5c1TovPqki6orjj+vuubXF1V/veSG6p+v/iO8kv1GPWb1vWP4ZAA1nvtcI+vvMC4jVMb+UNZUhlbEi3dNzpvcOB65N/7xehDJd7733dU73/2uuD9dUQieqBwVMnnjeoPfmnvuuSPXTiEVc3b66acPHQFJVdtAhJRzEOWjKnl4JzvAy1k8eO0eOZUEL5EYAgh9lR4vv/zy6tJLLw3PFPe8/jGT1uQuMQHuE8uaeHnWt3POOaf63e9+F8KclW7dddd9m6BOJBKtA4pUsypTijKowjvbrLNGzlCi+fDRaaaoPjLlR6v3fuB9QYAevO6u6uWnn48QytdffrX6+8NP1uTo+uqev9wUVTT/+cr/8q546T42w1ThfVMl8xNzzhwtFZCOrlDO3++orvmxGT8R/duQu/nXXKqabZkF6++8O8hRV/C6vfr8S/V5PFU9fhcyd0d1959vqG676IrqhjP+GETxkqN+W/3+hydXFx1yQnXhQcdXFx5yYvW7759YXfyDX1e//8FJQShvv+iqmlC+GNf45j//FTmHPDx9AfFFsBA2Hqu+iqaYi4jgvPPOG20F3jWEaBjHQtSWWGKJIE/I1a233FLdcfsd1VP/frn6+4svVk8++kT1xJNPdoZQFvgucikixzH6U+zF/nQBm/29IoeLLrpo6AxCPrWd8h4PXuMx6WCF4PXnt8Yz3lXf8H07/q722muvjr8SiURfIMTEVp988snVWWedFUJXI+5PL7ZYhAc0q7IzFiBwee40MlWMQcljoSb77bdfhGamZb35ocz1DTfcECSdkqEQDoUjw2gTFD7hWxQ4lW+FTjXTfGbpFy4/3fTTd6u8J8Ye76mJ1pP3PFQ9ee9D1XMPPVE9dP1fw7OmuuaD19ay54xLqit+fk6QKYRvsmkmjxYKgfqZPv/o09Ef7++PPFl9aon5qxlq0ibkE/7z5r+r12pydt1pv68+/LFJquV2Wr/a8AdfrWZZaoHq8dvvr95ZE4qPzzxNNeVs03dPCuq1/pWalOmd5zz+fMyZ1QUH/iIqfN509qXVHRdfHf30Hrn57pr8PVA988Bj9fk8FeGgfjfI3Bv/qt7z/vdVk0w9eTXFp6YNT6OKoBMKuvw3irwMJ8w/Hi957eblUMe945nXUiuuu+666pxzz63OvfiC6u7Xnqzu+vvfqrseui+icUTg2G+4yRX9Sg9cHkw9cT/zmc9EATZErhEasqvASQdDbpHF0ZJF5OBVV10VoZraObgX7j3jtnxC9Rk8E+fOIzkSOPDAAzv+SoKXSAwKCAshwhOlWqacOyGGlIjGhN92BxIsOduCcOyxx0ZPQBWyeOxWXnnlENAWgiR3zY8keImeQLHR4oTsa0aC51xSxjQ3PB+EzFPSCw9BQpT+dsOd0dNOlU3ETtuDhdf5XPXJz85baY8QqNeZ5x56MhqlP/fwE9VMi84VeXn64EEjwVPtccaF54j+eUI433jtn9GS4bUXX46wTr323ob63Hj+Jvr4pNXkNRGcbt5PVTMuNlc12bSfqN6DPDnrep//vPm/KpPdQXjna8+/HB5APfd482694IrqlvMvr24597Lqzj9eGx7KB2pC+/At91aP3HZfkN2/P/J05PLJ6Xv9lXp7+bXqjXr71z/+GSTxzX++Uf27/u3/IIv1eYyETOZllF8mB04bKEYTRIves9TSS0exE7n01nhyYNJJJx32ImllHjduXYFQ0SuEhUqRcS+6228kMBCC5/7df//91RFHHBHfQ0T1CGw8V+Gmt956a1QXv+mmm+LzvtJ+kuAlEkMA0qIi0u9///vIIStWJeQuPVH/A6EmlOLiiy8OIsyyRrBRALWNkDTd7jHyrYQkeIme0OwevETzw3hB8D402cQ18fpQNCx/4/V/RmNzxIjna5p5PhUNymdbesEJBVRKCGb9XUSo3wRvoTliHy0SeA6FfL7w+DPx76nnnHlC2f8u49d773n/e6sPfmSiCPH8+ExTRwP26eadpZq23qao/5ZHGKSz5nc8dn63Ee+vP5t8pmmqGerfd63CQ8nPf7/xZvWv19+Iay05fU/c+WD09nvwmjuiKigP4b2X3VTdfemN8e/7r7wtwkQfuvGvsT16x/2x/5N3P1Q9df+jNSGecE2avztukMN6+48CL4UI9tPLxqCNtJx++ulBVHifVl999Xj91KdqsjvjjJEfaN4/8cQTUWREeChCMpTcv8GATsHbJ/+w0XvnGuggCCijs1DOd9fX/75hNMgPhOCJXHIeCs2p4YCUchQ03i/Hufrqq6PCOGInjaWvtlFJ8BKJQcJEffDBB6Ogio2lSg4ZQZcFVSZAToFwTO0PWPu8IsWE2mqrrVbNNddcYd1LYtBaSIKX6AmF4DWrBy/RGuAlU2Bl0mmmqCaefLLqYzNOHR4z4ZazLbNwTewWquZcfpFqsvrzro21B0rwtFEwRj8w0Qerf77yWvXM3x6vnrn/sWrKWWeIBurdVdK0/7tqUinU8gM1CZ2kJnqTzzxthFzapvzU9EH8Pjb9J6pJp52imqi+hvfW54AY+u5HpvxY9anF568W22SlaqrZZqw+MccMNUmcrvMYcghd+0emmKz68Ec/EpucxPe8ryYq73xHFHbhtfvnq69Xr77wcvXysy9WLz7xXISxylF85v5Holoncvf4nfcHcdW8ncfw8TsfqB679b7qcUSw/tu/FYZ56p6H6/0erZ4NT+FTNSl8tnr5mRfq7fkghK/X9+b5Z56r7rrzjur8Cy+sZp9j9mqllVbqNGgLAeWpU1yuEDokR95c8TiNJqxHooK6Go95wxSIOfLII6u77747qlk++MAD4XVEsBAwhWPkEEq9obM4lmM0Hqc3DITgLbTQQkE6eeZU13Sf5pxzziCm4Pd5+OiZ6hbIIRZy6p73hkaC9456ge70JVPKEolE9xCiQBAIydTvhCDTxHy+etJ9uGNStjtYxZ6pCcAtt94aeYk8nUocr7HGGlF4htBPQtCaKPmTFjEe6+985ztRna1rDkSi/cDCfPzxxwexO+SQQ6ppp50253li8Ki1UuvthNDDf4eC/e6a5PA4xbjqqm/XyrCwxmtOuSi8Wp/ZbLVqobWXrQnSBGWYdwwBOnGHA8Prt9jGK1ef2WSV+Mx3n37gsSB/f/3T9dVim65Szbf6EkE0BwNkUouEV557MY770I13V88+WBOoBx+vPjDxh6s5PrdotcSWq8fvAkX+Pypq1q/R789/0ftvQuGVqNj5ek3qXn6teg3hevUf1esvvlL94+VXq3+89NoEz9yLL0dOn8Izflvxln++plJnFd/VN/DfNWlxH/79xgTyUggMAooIv/fD9VYTV0VqeBrfi2zX9+999fsvvv5ydeP9t1UPvfRMtdU2W0exle48c54ZHnHooYdWL7/8crXYYotFrn1/CdJIQpsCBme96Fy3dYtBCmEir4R0KtyClCGrZeMNpLfYF1krxLG7ayIHhVPKU1Tpk+EfYUMakUrV1R1vt912izYQzome5H4pFrPLLruEngRI5gUXXFCdcMIJ4VQgV5FCMrY3NH6eBC+R6AcILhYgPdvOOOOMcJPvsMMOMRm7WoraFe4RQaQ65nHHHReWvbXWWivKHQvjyHvU2kiCl+gJFJtf/vKXoVxQVpLgJUYbrzzzfOTsvfTsi9UUM09dfXSGqcJzBnLTeKIUSRFqOflMU4enrQApe/Zvj1dP3v9oNdHHPlJNPcdM1Xt7aNw9UCBr/3j5lQiVFHb6wY98OMI0B4wOQoj8+t9/u66n9eeOj8T9CyF8dUIRlzfq1/LeP2qS+J8336xeevK56tXnXw4P3YtPPRef89jxcv6jJo+vPfdSx0Hre1Mf94X/vFbd9a5nq+W3Wqfa/MtbRhROT0BMzj777Ag95LnqWuVyrEB/U9wNoeqKopt4RcDkE2rnIMwU6aO/qB1gE32E7EVV0i7PYKAEz73ivdt5553jXm31pS9VX/ziF+O4CPIvfvGL6le/+lV493getYvojlg3IgleIjEAcKM//vjjEX/OAkRgmaiLLbpo9aF6siZxmRArrgegfDskTx8b94hAZAUjEBOtjSR4iZ6QHrzEWKN4zni8hDSqSimsMVBruQyQqllCfN4Y4lmTmH+98a/qzZro8PAJi3zHMI5fBJMHDdkTIvqeLuGlwwVev/D+1dfjN8NT95b3/h33QssHf084rzdjH/fNPSzv8RTyCL720ss1OflrdfKFv62WXWOVaq111wnC0xMQFXlu5ICwfjKhGXQkzx9pEpLZG5BRGyIlnFKY6dRTTx0yDdnjlZy7Jrgfqwlg17VvoATPOdGdrKUK0alNsM8++8Q9U9Dm8MMPj3u5ySabxP79qfGQBC+R6CdYWExWzTUpuGKkV1xxxZiIrDztDMJJzDqB+ac//SliyZFhIZkalCLChFkqeuMDSfASPSE9eInEyMFaSxexvjKWjsbcQniFc/L8ISfH/fLn1Ucn/3i1/gYbhAG3J/zrjTeqM886K7x4iJJ9kZKuxAThHM33ePAUfznxxBPj3+Az9xKRE34pFJMM471TBM4mWouux4vmfcVkvCdCqetzGCjBc36eqwrjCvbZ99vf/nboUAzmRx99dPRZttYKi+2PoTwJXiLRD5h8EnGRl8suuywEwEYbbRSVjEz4rsKknWChIXgo+5KA3SdCT8iqBGLx7IR7O9+j8YYkeImekAQvkRg5IAjy2bUnKIU4eptfPHL/evPNyPFCChCYwa7F9CC1B8h/rVA22XjjavHFF6/eX5OhrqAX8Egp/f/SSy+Ft0szcufq9xsJV/l7tN5rzMFTFKbmPuERswm7pNOJNqLH8Nohd0I0fY740f8iNLOXcNOBEjxA3pE54ZiPPPJItc0220ShKvL0/PPPj3P43ve+F8SyP2ttI8FLCZxIdAOCSp87njsbAaGgCoHV7uSO144guvzyy0OIIcAU/fXWW6/6whe+EKV+CaJ2vkeJRLvBfM85n0gMP5CT22+/PdZaBIp+Uisl/9sKOv4tTNJ+8ruQQv8eLMxpJAWxfOWVV6q76mM+VJNNHrFGFHKnUiVPmbBG3jtECWEqxMlr49+j9Z6N4Vn1z6WXXjr698l323HHHauvfvWr1Z577ll94xvfqL7yla9ESORyyy0X1+w6eO+Qwt7I3WCB/Gq1Jb/u1VdfjVBNhNqzA9481zCY306Cl0h0AUFlop1yyinRv43FhRD4dE3uCLp2VmIQXZYooQM/+tGPIjxT5SctVlj13J9EItF+IBtsiURieIFMIVe2TtBDytYF/6z3L716ldrvSsYGCl4hkTmKq6ggft5550VPOd4nMO9FAGqjc9RRRwWhlMYiB79ZwPtGR6HTyRfWTkBxk3XXWSe8jEiW6xwJEtcXeOkQPBAtpuUM3YruKd/RuQ9G70yCl0g0gMDiuVOalnvcpN94440nxJG3ccgR0qv/2YUXXlgdfPDB1a233hoCf4899oj+LNnXLpFob6QHL5EYOSj6Ie/La4/zzPv1Ro/RsghZsf9QSYvfQzL0/NWgW6jmfvvtVx100EFRWVxI5v777x9hhvbbfPPNh1w90zUwtCtw5zW8lj2hw7gUbZqeeSY8iYV8FrgGoarFGyfkMs6vp3s5inBeIp+QOcVV3NMHHnggIqN4EQd7H1MjSyQ6wOpkcimjq/8Ia9XKK68cOXft7JkSS3/ttdeG8CZ43AsNyxsbvGceViLR3kgPXiIxMuCBQ1B4dPqTT4cM8fYhBtbm4TC+OtbMM88ca7/WR8IdGX0VLbn00kvjN6WwbLbZZvFKLxgKpIJoa6Dv8GOPPdatF5K8QeS0cvCKDDoXeeLdhaW6D+6Hayl5gc0A54HM8Xi6DuG4ro1XzzbY80yCl0jUIAyU95dvR0CIeSbIhBkQVM0iCEYLhIvqTgSr+0HIig1H7pDe1VdfPYivROV2uzeJRCKRSIwWeKYo/op99NUHzdqNDD333HOxNg9XPrxj8CAyfCuypWAIb56UDefG2Esv0Nic/tTXefYF1/zEE09EdW5G5l49eDUUluG905oB0Ws1qO3AgydXkMdSw/UZZ5wxdKzBIgleou1BICIyKizpOcJC9qUvfSnIndDDdoP7IalbiIC+dqpnEZpCBcSsaxMh8XiwYQOJRGL8gQLYDMYeva6E2VP2KImJRKtDFUYGV6SpL8Jm/ba/8e/v4q0aTjB6zzPPPFGsBOlEROadd97oEzdcv8Xojqi6hp68kO6D921iB1w3IujfvtNKYDznxXMv6aCKq/DeDUXPSoKXaGsQHgSCni0qQhIMyujKL2tX75SFhDdTERX5dsiePESVpnjtWPHa8b4kEomeQZbaxhrXX399FFE4/fTTw3DHu5BItCTMp3p7+aWXwouF9PS19hrv1nBeoEKAWnG9dg10D/pZ5MvV11HuR2yNqP9N9pQwziC1LXbNSJ0iLzx5QnHl5Cm+MhQkwUu0LQhL5f5/8pOfVL/73e/CIiV+3Cuh2G4gSPWzk2enx5leLltttVUQO43LCZ1EIpHoDpTIZlAklWiXQ62kvBLxzUA6E4nBQG7Zv2vC9lpNdHinirGiL2MK/QUpEu6noEirkR1A8HjgeeJ4CZE219yTwcZnSLDrDV1lDK5ZawUVxjkMeDSdNyBv8hcZnRif5DB2het1/iIQ5DcK1xxqHmMSvERbAplBYFTKVFRFcqvmknqkEA6taPEaLAhMljJ97TTqlHNHMOlrt1otiBBegiZDMhOJRE/oS+kcLfBc/P3vf6+ef/75UJoSiVYFLURumXmFsIkqekvoYTfzrZAgr8jOe+XCtSjB45Gji7j2dxb9o+u1NNwDegxyO9T8v8Hi4x//eBC7RRZZ5C0tF5yTZ7HQQguFjtmdZw6509rCJh1GeKbvDAVJ8BJtB+RObxgWXj1HNOJcZeWVOwuqtBNUqhKOqf2BEFVVRAkWTUAVmREmQMi0E+FNJBKJRGKsYd3lxUPWpEYI3yv5aJ0rcgPBAeSO54uhQ8uCd48R2RkqEDxRVgzuCFt4IeutURdxX1x9bPXf9BnXP1YRWIVc8tjFM2o4V39739ZoLC8F/hSxE16uOA6CqMjKUPMIk+Al2grIncpMGoD+8Y9/jEko505ZX8KzXYiM+yAUQAUs4UxaICC9SK4eNqphhdeuxRKVE4nE2IDsbBf5mUiMCur5hLDwZFH2J5lkkrcRh66wtiM6PEK8X2PlzRoqEB8bYhuEqEO+xLU3XH+QvHpzn+g00CrRRs6b15E+evLJJ0c7KnoXgud1qPI0CV6ibUDwsWqJjxaaye2/zTbbxGT6UJvll1kAWIyOO+642FjJdt9998hBHGqD0kQi0X4oilYikRgemE8lN8srstOJRqLTMO8QHfvaojhJi67lvJDID4LaE9HxbvmsEOHiJWsFeL50sTPOOCM217zuuutGDh7v61CRBC/RFjCRlA3+2c9+Fjl3s8wyS2dBFZaxoVpKWgWEvspyxx57bPXDH/4wvJlaQnzzm9/MvnaJRGLQIDdSdiQSwwukRdNy3qxuiYs51zDvGLIRI6F+0Kpz0nWXHLwer6F+v3zmuhWi8e+hhjaOFpwr0r7WWmtV3/rWt6p99tkn9FItE4bjuSXBS4x7EBKqQ/LcCcuUwLrySitFsmu7EBqLg+af8g61PuC9U9Vp7bXXjoalisy4F+m5SyQSg0F68BKJ4Ye1G8ErBUT6Ak+WDclBjt5tTW+xeUmOlBBNXsi+dDT7M17T9RAm190KcF3OVeN4nrsllliimm666YaNoCbBS4xrsOqolonYIHcSVxUPKQVV2oHcEXpy7bSCQHL9zYOpkMpKNdHVnLS3MIhEIpFIJBKjjxJyCf3JpysED3GwRR59i63tzp/eQn/jzeqL2DYSvHLdrQJkTnNzBvdSRGe4dLEkeIlxC0KC10rZ/7/85S8hJLbYYosgd5O2QbXMf7/5ZvXiCy9Ud955ZxRSUSnzySefrNZYY40IA1BYpl1IbiKRGFmQI60mSyiQvCNPPfVUj9u/aqUxkRgrIC+IXX+JSyE6PF9COvvj9RsL9ObtNy9dg32Qnr6uoRBC195KOXgjjSR4iXEJE1489mmnnRbNJU34XXbZpfp0TWr0JxnvpIZgfOnll6srrryy2nvvvaMFAu/lnnvuWW233XZhLbIAJBKJxHCAzOlNaWtGqLp3yy23VL/+9a973J5++umOvROJ0YcwRQRPIbT+FN4Qyqkoi321OGrGfDS9/ZA4elp3MsNnrlvKiNSRvgheMdQgeO5Vfzyd7YAkeIlxB4JBIRGl/0vO3SabbBKv7eCtUin0hhtuqI455pjqBz/4QQh5hVRUDJ2rvgeJRCIx3GhFDx5F+Oqrr66OOuqo6rzzzosoB9EOJeLBq6bprUZcE+MDxp3xVzxT/fHgFXJUvHdNOSfrc+qNtDHOI6oIoGvui+C5T+6Ra0UK+9q/XZB3ITGuYKLLuZNrZlPyX56ZCpFiuQmW8QwhRXLtfvWrX1XXXHNNXPeGG24YSby8du3WDiKRSIwOyN5WI0IU4RdffDEUyi233DKiG/RFtZW/PzHVVC1HXBPjB4iO8ccjxzPVOc96mGvK7j///PPxnWYet73JCvPSZp/ijeu87m6A1Gox4Hp5LJPgTUDehcS4AYGgWfcll1xSXXbZZdUUU0wRFSLl3I3nJuasXEKN7rjjjuilcvHFF4fVD7lbb731qmWXXTYqM2VceiKRSLwdwt8+//nPV1/4wheiZHnj9rGPfaxjr0RidIHQiMhp9E7Vb/6P7HRDeBAd4YpNre90c96NKAQPELy+roQOlATv7ci7kBgXMMEVVOG9UjFTftm2225bLbroouOa3BGCzz77bHXTTTdVp5xySuTasfitvPLKYX1eaMEF+xXDnkgkEkMBGdvKcraEtpXNv60ricRYgvGWV854hJhn9SuK9J9uSF7xcgltbNb5+BZZUZ9vV7Ja5iC9pVSVtHdP1yOnDwm2L0KY7Z4mILW+RMvDIizERg6FsExCALlbZJFFwjI7blELxBeefz6qhB522GERlqmPimIyWiAgtvXN6Ng5kUgkRg6dXoUWBOVZqGbjJj+PVyBJXmKsYD7x4BmfnUZaZKfeynzrSvJ8Jpxz8sknb8oCK4H6HF3PO+tX52+ONUoOFTG9Vwhb6DG2HuD+IMHScNQcKGGd7Y4keImWhonNc/fjH/+4Ovfcc6u55pqr+tKWW1bzzjNPp+VnvIFQZ6266uqro2n5CSecEO0ODjnkkGh/IO8wK2S2Hoxl3tgbb7wxQm3POeecKJYTpdrr551INDPI2laVtw8//HC1+uqrV8stt1yEtNs0HramyGdKJMYK5pTK328xVtfvFYLUCKTIWuG1VSJ3upMbDCv0HE3L+2p07lpfr/c3T+l8pbhMJ+ltIL/thiR4iZYFK4+cu/PPP7/6wx/+EMRmxRVXrOZfYIEoJtKqykZveKMWZA899FCU70bsnnjyyWqB+nrXX3/9aumll66mnXbaEIqtINgTE2AhkzOpYt+PfvSj6tBDD62OOOKI6vDDDw/S7m9kzz5IYCLRjCgehWaBqA7GEeStu+25556LNQRY/lddddWIfJCHZxPmrgFxGssSY4Z6PhmjxmBnBc2OOVaIUeg5HbqO9QE5QvJ4sppeD2i8hg4gbMJSXYNrRtgaP+8KMsc187jbt9OwX77Ty3fHO1ILTLQkTOoHH3wwiJ2iKoiNBXnBBResJp100o69xhdYqG66+eYIQ2VZFpKgWTllRGimYgBNG5KR6BbGMUVUmO1JJ50UpdlVgbVQy0F45JFHYnyffvrp1aX16wsvvJAkL5HoB7TKISu1izn66KPftsnVfvLJJ2PfSSaZpNp8882rL3/5y53bRhttVM0xxxz9Kk2fSAw76rUhvFP1+iDkMAwNHeSuEzV5aSQ/1gw5+Egho0UrefDKdbjmknMo1FQ+XeM1doU1FBn0nVJptKtns12RBC/RUjCZTfwnnngiFF+KMShxPR4LqhThxRJ97bXXVmeddVYUkqF0IHZrr7VWNd9884XXLtF6sCA/88wzUSDn+uuvj/HruSrRbhMmNtNMM1X33ntvdfwJJ8SrBTyRGEuQSyr1iSa46667gkxRsFjejdE777wzZDTldLRByROexqLPEIbM6XPXddMjtRA8hrGpppqqmnrqqTu3T3ziE+EFyYINibGA3LR/1euDeWV89seTTFewPnhtCYJXXyNZYvM3IHgl97Uv7x0UnZCsMfc7v9NxvHZGErxES6G470877bQIW7MAKyry6U9/OuLUxxO5AwRAXtbJJ58coXtXXXVVteSSS0bY3uqrrVZNWSsh4+2a2wkW46IQCzHmOfjqV78a3oMNNtig2mGHHaqdd965+uxnPxseh7/85S8xHhKJsQQF8vbbb68OPPDAMK4hTLfeemsYob72ta+FN0wIuSiL0cb0008fBbZKLl1PG++cNSORaEYUT5ZQYgQvjLjW+p7W+5rQ/OuNN4LomJ99eb6aBa7Tho4VstfVg9cbCsHjtYwKmkhtfd1J75LgJVoIJjFPlmqR8pVmmWWWatNNN63mnHPOcUdyCC0hmQjdd7/73bBEu94dd9wxlP9IoE7LcsuDsYJiLL9uyimnjK3R6mphn2GGGaq55547yD4yqMJfIjGWoHQZpyr8/fWvfw0Pnr95ze65557q7rvvjv1Y00cbSy21VBhJFKDqbdtwww1jbiUSzQg6AKJmXpH9Peo49X6x1UCUrBkM38hRK+hFzlFIZTlT1+16IcIty3rYcY1dUe4TYhsVNHnw6vfjeA33ph2RBC/REkDuFFRRXRC5Q+rk3M0/33wRijCewBJFaZJ3ddxxxwWpXWmllaJpuVw74UOE+Hgjte2Isph59Uy7Pld/8zLMPvvsUURHrlCGjCXGGpQuVf2mmGKKkFc2yiU5zStt85nxOtowX6aZZpoIbe5t+/jHPx7nN/PMM1ef+cxnYu4lEs0Ca4L5xEjCexfGkm4Ii3+Ze/Bmvb/v2Rc5anodAbHr2PwNRYaQMZ1hpvU1uS5bV5T7ZB11n2Iedxyr8zvdfK8dkAQv0fRgnUHuSs4dL4eKZwsvvHA16WSTTRAO4wAElCIaV155ZRQHuOKKK0JwL7PMMpGXJceQ0pQK/viBXEpeBIqmXDxFVYwBY74sZhbrT37yk9VWW20VoWWK6SQSYwkyVxSBKpNdjRLkk8/IqmbvQ+o8F1pooTCemWfjZS1JtD7IfzoBTxzigrCB3Ly3kZaOcVsqaJqDLUHwasQ5NpwnssYbV4xIQfC67NMI98j+rr2T4BWU7/Xw3fGOJHiJpgZBJvxHtcw///nPIey22GKLyLEYL9UyXSMBpZ/fZZddFtUUkTsFN+SybLLJJqFIufbE+IIFTJEc+XfGOQOGZy/ETZEKIZwWMMry2muvHV5rBo5EYqxh7DJOdCVGFCweNJ60ZveKCekSDaK9TrOfa6K9QC/gGUdwjE0bShf5avVnhd6Ze4UE0SN8x76tarBA8FyDcy86j6vw7+6uB6GVs8frx2DaOY879m/FezBcSIKXaFoQYpRb+WdCM2H77bcPTxbX/XiZuAT2o48+Gl673XffPXJYhGTutOOO1XLLLhvXml678QmV0RSFUC3T34oHGQP7779/deKJJ0ZlTZ69Ro9eT/B5WfwTiZEGgjfddNPFuG2UxTwHQiCRp3ZWrhKJoQDRKf3gEDib+RR/169vm1u13LevNaCEaDY1rFNd1iprF3LHGweuo+s+XeF66Ylg/yC73Ry7HZEEL9GUMGGRnh//+MdRzprHbrttt63mnWeelgk96BO1AFJcQ67d9773vWjYvsYaa1T77LNPtdZaa1VTTzNNWKES4xvG8worrFDtu+++EYbJc3vHHXdEZUJFdXhx99577/Bg99QHT+88VVZXWWWVarfddotGzmXRSyRGAoxOjE+8eI294ihZs846azWR8KqUX4nEoEDO80qZT505eDWKt64r/l0THesDb5Y1xf7Nqichcs63M9y0AQhe8VyGB8819HId1jmE0LXa3/fiuB2ftzOS4CWaDias8trnnXdeNH6ea665IoRm3nnnrT5UKw2tTu4INEJYIRVeGsSOgPrc5z4XpfE1axeSVwR6YnzDeEbqPPf111+/2mmnnYLU8eIaB/LyjBHGDqHKPHpdF0X9yJA6nyGH+nsVK2giMRIwbnnvFCmhgALliueOV/oD3mtxWZ1IjBX+UxM8FTR5qBhTgtj1AmtCkfm8681sCHdWzq28NoL+h9y63v54Icv+ZFFc97vfPaGCZiIJXqK5YKIqqKLnl2Ijcs+QO3lKE4+DnkWEkVw7/cxO/NWvqmuuuaaabLLJ4hrXXHPNILHRAqEPYZ4YX7DI8YbIB1JACNH70pe+FJsCO+bBddddV/32t7+N/LxG8iYsR1gvzD///OFN4dET3jNUUC7kdcgPfPrpp8OibI5qcq0fn8+6ks1E+4AR6lOf+lQnwZP/YhzLwaNwJRKJgYNMpSsgeOYUotNXmgZZXXLXzEf94JqV4NUn1m2YaSGpJcy0MTKgJ1iPrIEl7zDuU7Ne9ygjtchEU8DENlEVlhCSiQARUttss0214AILjIuGtLx2PC2uTa6VqqDCm/S1W2eddaJSYhK79oHxLqRGk3NGDYu5xYkHhIKsSqxeXXp6Cd30niI8N910UzS/BfNG77H77rsvwlP0AEMGkUB9FPuFrgStQ7lwbojijTfeGJ5D/fqQRmOUp/Dqq6+ubr755hjTevP5TnfHSoxfUDx58JC6YnFXEXaqqaZKgpdIDBLk+r9qecqARg8yl/rSDQo58mr/piV3Bc6vG4LHiOgVubMW9gWk1n1C8OIe1cd07U1//aOA1CYTTQEWG4rqmWeeWf3ud78LV/vWW29dzTfvvNUH+zHJmx2UeSGZP//5z6tjjz02FGTFNHbeeecIzeuPpSoxvoDwa2S/5ZZbRt7l7bffHgtbIyxY2iLwzAnhZam87bbbgniBecMo4lif+MQnouS7puhCnPvdEL3LQih/AblTzfOHP/xhtcsuu1RHHHFEFHyhwCOa5urPfvaz6utf/3r1gx/8IPb1nu8m2geUKuNORWPWc+PD395LgpdIDBDkZ71ZB+gMiEuZV30RFvsXchQe9RYlOCUqhGyx9QX7W//IGwbSzvvUcS9ja1MkwUuMOUxm4V6/+MUvIudOU+fNNtssXt/Rh9Wq2UHoCm0755xzopDKLbfcEk1199xjj2qZpZeO3Ku+Qi8S4xMWL143C5P8OePEYtUdjBFeEnPFPogevFm/GlMw+eSTR84erzCvmuMNNA/PeBXueeSRR1Y//elPo9CRwj/f/OY3g+xpvG+eInzf/va3g3TKEfTZYYcdFtfBotqJtKKOaxiXGoaTY8YyxRK5E2aeci2RGBz++5//hOwWqYHg2Xrz4FkXbGQvGY4QtiJcA0Oh1/7KD5EjNveoKxgcuyvk0i5IgpcYUxBIFEqeOyGLcu0Ul+CFCCtUC4MXRBgbpVgxFZ6Yz3/+81Ehc976OieZdNJ+WeYS4xMIHm8HQsajy4Mn160rLE5IndxNZFAIJiLnfURPURWvFsa77rorKrNa8OzPcNJfvPrKK0EWjVcEkWd5yy22qNaux+uSSy5ZLbDAApEjOMccc4Sn0HtCi/VpXGyxxeK3eaeFkDpWfYL/2xLjEoXgkW2iEBghtEhIuZZIDBwkJbmOlJDhxTPVH0+WNUBuNIIXEUH1MRyrbK0A58kLicz2SlJdT8d1uW73StRXVxJMBpWtHZEELzFmIIiEkimoosEzRXfVVVaJcDQW4FYEgeO6eD4QVr3t5DBRgBTPWG211ap55pknFKFEe4NybFzo6wjCHM2Fe++9t7PctZw3YwnxQpw0OUeyvEZYc/25HD45eL5/8sknR4iz78vDQ9Ts1xcskg89/HAYWnyP95znboUVV4y/nSeDi3O2yY3wXmkSrRCMAkEMGr///e+r++6/P+ZCYnyDQiU/msGBgkVuy8nrzduQSCS6B5lZSB6ZTP7zTPWH4CE5bwnRrBHHazE5zOhPfvR1zeU+uW5rHFL7NoLXsbUrUgonxgQmJG+F3l6qZQrv2WKLLYLctWpBFdekUAZl++KLLw5y529tHvQz07Rc8YH+COvE+IfFSGjb4osvHiQKsdIT8dRTT42iJuaGgkNnnXVWhPiaL8jgbLPNFoq0EJ6nnnoqvH/IoFfjTcikyqzCJR944IE+wzQtkrx+CKRxy4u+8sorx7iNsJderJ8so8ger55iQbw3qn2qDvsyL16bWk7bBZ4/DwO5xhttXGqRkAQvkRggOshYSMz6ldxmqOuvB49hmQ7C8xUevHputpr0df2umxGxzyiAel/X2yPB892ytSlSCidGHSajSfyb3/wmSBAF8Stf+Uoolq1aUIVgomQLUzv44IMjH4nARVoVU+G1i75QiUQDLErIkWI7xghvr4Ir6623Xnh8hfOaG4jesssuG20TZpllllgAheMIb0YODzrooOqCCy6oLrroonj99a9/XU077bRBCo3L3mA+8gIytPDKrb322lH6vtcQmS6ghFDsnZ9FFskTOmoRbucFtl0g+mLqqaeO8YPsJcFLJAaO0tpAiCb9gTeLN64/shjRQQTpUyVE07GiHUHHPk0Na0W90Q1dR3c5dZ1wTfVWchXdKwYm62LAsRJJ8BKjC2EHPAzyfLQLENa16SabVLPWSmurKgWuSVjdSSedVB1yyCERUvfFL36x2n777avPfvaz4Z1MJHqCRUl+25577ll9//vfD0KnEI88VDmbu+22W3XAAQfE+7PUxMvibUFTREUVTl5vynVZ3Cx8FjtePLl73eX1NUK1TUSRF8/vTTvNNL0vrj3A7/MuLrLIInF+N9xwQyy+jB+J8Q2VVXlvFfoh73q1vCcSibfDnOnYyEwbwxmC12e4Yr0vWU/u0qNi/4bjxdbksEpoDYHUIqm2XuVI/dmb9fVaY0oOnjUovtMC1zsaSIKXGDXwFOj3JQztvPPOCwVW/s5c9WsrercIVcJIb7Jf/vKXEVYnvHTzzTevVl999bg+inZasxO9wYIkJ1NIpAJDxo8Klfvvv3+QO8aCFVZYIRRoHm7jyWIuPFMIJg8eMlcWQ6/vqwka0mfO2ac3qNRWql8uscQS1Yc7epoNFL7jOngiWZy1c3iuJo3OITG+odCK3Dte3DRoJRJDA8JCxoP51OmZ6gUiNRibOwlei8E64ZoZHEuYaa8Er4brlXeI2HZXZKXd8Y6JJ56407za775JicQAQXmUH6SIhNwiuUeq71EGW7Ggilw7nhHFLxA8TaUp1PKpQknusCYlEiMBizmvm9BN4ZyKrrwljOe//41wz0frMWqu8ST3BIVRTjjhhJD/etsN1QMjTFmLBa/f+c53ournQMI9E60H8tB4M+5WWXXVpnvejBzWoEknmaSaop4riUQzQzSFvqOnnHJKtcMOO4QRr7eq4giO/YXoM7JYE3rbfziAXKnULHWAQVs6ioiswcLxRKUcddRREfJNlxIR0hsYJ+WNW2vWXHPNKPrF69nOaKxhkQQvMeIgfFTLVKFP8QV5Gttuu23kEo20EBpusDKV3CeVP1Us5LXgYVluueXCy5LELjHS4D02Fs0tynR3hMznNp/1NiaN4d/+9rexj8V1qFDsRajy+eefX2211VbVdNNN15IW5UT/QTkzFoVqCi8eioFgJMBwQWkWzrz85z6XIVyJpgaiw/B2xhlnRBSHnOjePOPm3uWXXx46ySc/+cloXzPSRGe4CR4DjOMxDiJ2CJ5r6Q3uE4LHebDuuuvGfRpMesF4QhK8xKiB4EGITFrl0yl7UVBi7rmrd7YgEVK2mOBV2VBZeoJou+22C8FmYjWbYpNI9AUVOoVMy3n4wQ9+0PHu4KEf34EHHhjN0Hm1GXEydGZ8gyFBiLHWGlpmNJuRS4VXLUMULdp1111zPCaaGvL46ReMb3vttVdEQfRmJKNnSRHhxaOTyKUeaS/6cBM8uXTqMxx99NGRk47gKRTWG5544okgeH/729+qDTbYoLMHZzsjCV5iVCCOnAD4+c9/Hp47VTJXW3XVmLxR5amFyBDhIyRT/qDCFqxpyyyzTDR7psRSjtNzl2hFMLycdtpp8bdG5UOFRffQQw8N0rjxxhtna5A2gTw8FndW9GYjUEnwEk2H/3ao3t3oQSKeFKFT2XiPPfaIsMveZChdS3hm6WG6/PLLtxzBk39njlqDtAOSVmDt6A3212/4ySefjLXmE5/4RNuvNUnwEiMOhIjbnPIoVGvhhReOMMYFNDFvGIDNDoJTGMCtt94a5ef9jdCpFLjYYovF34hdeu4SrQDj2cJcNmExql0yXEhWP+aYYyIndigK8M033xzHMf/33nvv8Nq3u1W1HSA0irfW1mzyMAleotlQKmWaKe/oMh4Vo5Pbf/vtt0fEU9EzesKbtSw/86yzwvPHk874PNJEZ7gJnrxya4aCdQznQr1V5e0N9heWqgaC4mSKjbW7oT0JXmJEIVxHXy2uc2EGhJP4aGGZH5lkko69mh9Iqlw73kd9vZC7BRdcMEIHVMhsrFyYSDQLSslsCybS5tWmEIZNyLTNZ2V/Xmk5SsKBeNgHWwkRgRS+zKjDS68a6Mc/9rHqXenBS4whkuAlmkHsiZkAAJ9xSURBVA1B8GpdiQev63jUdonuJPTwy1/+cnimehqzjkNXOfnkk6MxujxTBGmkx/hwEzxr01//+tfqV7/6VdQzQPDoWD3BdavUjAi7/i233LKaWAXoJHgdf2WbhMQwwoSj4LEiqe4n6Vfooom3YK00tgq5cw0EJeFBUeW5U5JeXLswAIJHZcIkd4mxgjEqH1Q4pBYHLL4qianqyhghvIeB5eyzz65OPfXUCJM+8sgjq8MPPzxeFZ1QWOXaa6+NhVpxDJ6XP9Xz9oXnn4+cjoGCYUeBFR483y9GkHZfcBOJRKIriueuqx5BjyrRFYxkfRE1+9uX0c6+rVpkxJpRWkOI+HibJ66+ztg6/nbd1kDXrqBMXHd9L5Fmn3Xu28ZIgpcYNpigvMBc7EiR0u1f+9rXohWC/l2tANfAk6GVw7e+9a0geKp97rvvvtGPTLJzu1dpSow9zDNE6sQTT4zCKDxlymkrj82iqtiF8ao5+n777Vf9+Mc/jpLbF154YYQbW0BXXXXVGNfbbrNNfG/WWWetzqvH+1/vvjusqQOFhVbOiCJE2oQs/tnPVu+tfycNIYlEItEFtVwkG7vKR4Yy8lexKgSvrxQQZIbewouF4JHtrShx36jPX5SUaxBB0mtYf30/XLdr9orglZDU/9T/dg+T3iXBSwwTeBS46+Xe8B4gdfrcNWPCfU8QssYDwrvxwx/+sJpkkklCSRZ6QPltletIjH8geCqmIW4nnXRSEDeeO2FoxjGyZU5a+GOxqxc9pEvu6Pbbbx/Ebv3116+mmGKKWBhnnGGGSGy3UP7mN7+JUBmLZ3/g2BQSCf6//vWv4xiLLLxw9cl67luIE4lEItE/kNc8eOR3f3qSkr/2F4bP+PyBfnyn2eAa3qzXKtdgPXIdb/PguSZbvW/ZyholUuw99ffeWX9OT7PlypMELzEMIIgodzwEEl4VVOEdmGvOOSdUy2wBKM+rXPzxxx9f3XTTTdWnP/3patNNN43CMJputsp1JNoDFn6EzcLO4yzJXIiOBa8QOpuFXtEUeXXbbLNN9dWvfjXKScvTQO4spMKEPlQfy3xF+oR9Krqi7LaQy96AQDLs2BfZZHXmQUQWc84kEonEwEB+k+NkOxnfV7EU+zPolVDF95O7LUbwgB7JOFnCLXssltJxbTx1rtl+CF4Uqqk/s+YFwW3BezDcSIKXGBJMMOROzp1CDcpkI3etUC2TckohValKrpKKnxRlhVQ0Cl1qqaWiAiCBk0iMJSzirJsIlwJGvHe8bIXIdYUFjgd6zpq0rbbaauGF3myzzaqVV145ymhTHBqtvBZJIdWr1J+rDivnlFfQvBB2Kc/PbyOTtmeffTbeUwhAURUtERQEWHrppSNBfsaZZuo4ciKRSCT6ixJu6ZUMLwSvJ1nvvRKxgRi1mr7i/K1v5bqRNQbM/kRM2d/3yzV3d3/aGUnwEoOGyUSp04yToqcP0pa1Ijn/fPM1PbkjDCmswtp4HhWkgBVXXDGKwujZR9AkEmMJCxhCpS8SUscIIQxSGDECZmFsBNJmkdc/CFFTPXDHHXeMUGPlsyeaaKK3ELtGWCQZNBQSUimWR5BX2++de+658dt/+tOfYvO3z1Q8k6eqKBFvt7DsOeaY439VOHPBTSQSiX6DbmID0RfFk0XWd5X3QA/j7UOQkMG+PH5NhY71wTU0EjxrUV8Ez3d4/Fx75zXX7yXJ+x+S4CUGBYLGZFSJj6InHIsiKfRLuFczgwDgqVNI5bDDDotCFXKTdtppp/Dc6b2S+XaJsYCxaSsWzVKRVvjjN77xjWq33XaLMat1h8V/iSWW6AyFLOSOJ06opR508u0QPR67Psd0/X37IIe8ffovOb5eQ9/73vfit71nnuyyyy7V/vvvH58JZxb66X0NeZ1DJ3ogk4lEIpHoglr2k/sInnWALC0GOa/dGeesFapP2l9hkpYieB3XZCsEzxoUV1lfT2zdwLuuV1RLJ8Gr/93TPWpXpBabGDCEA/AoHHTQQdEKQdsAvVqavaAKQUgg6Jvy3e9+t/rFL34RyuxRRx0VCq1qmW9RThOJUQRrpLDHSy65JMYkT7I8UNVcL7rooljEeMmQLZ6zY489ttpjjz2qmWeeOUJ5eOi23nrr6rjjjgsipifRgLzQFtOOxdE8mH222WJe/OhHP4pQTVU6p5122lhY5dj5HZ9ttdVWUVSpx4qZPSzSiUQikehAh5xEWOhYwHhXSAvdqjv9qhjbvfL29Zi71sSwprhmof+iP97dWwXNDtjfvUJqY52z9nS3/rQxkuAlBgQTitVe3g0PmFDGlVZcMXpehSehSSfYv2phwBui4uAJJ5wQ4ZmUVJ4OBFUz9iJME4mRhgXNXNLHB6kT5owwaXlwxBFHRFjkDTfcEIud8SlskjdOoZQvfOEL4TWTS8coscoqqwQZRMAQMh47RIzXbkCLfcPYp0h84IMfrKaYfPLIq0UWZ5ppps7cPYTS7zPq8BhaYCPJvTvknEokEoneQU7W238aPHjR8qAP+Wl/xkFgBGxVgmc9RFRdc1xDx/3oCfbn9WOMzHSa7pEEL9FvEDoKO8hXEyI222yzVSuttFI1r5y7iSfu2Ku5QHA89+yzkWt3xhlnhCLtvc9+9rOhKFOeKautKBQTrYWyiDEu3HHHHZHLJv/z6KOPjpw64/PGG2+MxVq/xdVXXz1y55A3uXSIHKOEMMhSXc3Ctuaaa4anTyN+Bpd+hWP2F/UC61h+y0Ja5kmxJtvSKJJIJBLDg3/VehbvlPWiMUSzJ/z7P/+JNcN+neSoxcD7SL9E2BjaI+SyF5S11P6uuTPnO/EWJMFL9AmTyeTjaUDu9LlD6Lb+8perBRdYoPpIExZUKQJAyferrr66+m2tPGu+7rzXXXfd2CjDH/zgBzu+kUgMP8wbi+9zzz0XBYk0J1egBLETYikUk7funnvuCWLG4MALJ/Tym9/8ZhA3BU8Qvu48chY3+aPG8ic+8Yk+F8bhgvmVSCQSieEFL5YNkJ1ejXW1HC4evEJ0vLYaCsHzymjZn3WMflfCUlvxmkcDSfASfYKVRCW/U089NbwO+mcJB5N388EmdY2b/E8//XQo0j/5yU/CY7L88stHYYjlll22+tjHPtaxZyIx/ChGEfMGeeM5/v73v19tu+221e677x4eu1tvvTUK+iB0QjMPP/zwIHX61AmJHFZPXCKRSCSaG/W68c/XXw/9BclB2Hrz4DGz8fi9+OKLQYxUSZYL7TgTdmgNQ1wheNZN19yXF9J+SK3v8HKmob57pPaQ6BUmnpCyn/70p+G9UwKdQjrbrLM2rfKpQqbeXcic4hByh7bbbrsIc0Ps+pPAm0gMFkjdtddeGzl1CqTsuuuu1X777Rdj0cK9zDLLRNVJhO+QQw6J3DpeOHmgFukkdYlEItF+QFxeq4kLvQtZ68uDVwyJischRba3EMIWCZ/nRLA2uh5rYH88crycSJ7vJbpHahKJHiEO/K677orCJAiT4g2aJmuerABDswkPpYJ5RU4++eRQrvXmkp/EIyL0TQgbwZE5Q4nhgsWVQUHzcZUueeK0J2BcUMzH+yySGoCrbInwIXRrr712hF7KY1WkhLeOJdJinuMzkUgk2g/8bfQYBA+568uTBdYgxbqsHxHaaP2w1WQpthaAa0DWXLtr6MvIiQiWfa2vnSGd9fs+syWS4CV6AKvIvffe25lzp1qfog/63DVbQZWiZCOhqnt6NeE/97nPRSEV3hFN2NMzkhgKLBosjSyHxhvjh5Dl3/zmN9Xxxx8fbTeEMV911VWx4Goavuyyy0al1s033zw836UCptYGk046aeYOJBKJRKIT1hfrjGbf7+qHwc++r776aqwl9m9F0DcRNtfqOvqjq3FAILVvC+lE7pLkBVLjTbwNBMZDDz0UxSAoq5NNNllU85MX1EzkzgQWmqD9ARKq6brS8vKaKNQUa0o2IZBIDBasqayLQpXvv//+qHRpbiiOolAKYnfhhRdWDzzwQIQAMyzoR/e1r30tclV5kHm/5a4yPKSHLpFIJBJdQacpBK9EdPSGRqOj/YPoIDa24slrASBrNuGZiG1/PXiu13V3XVOT2k1AErzEW1CsQcIyzzvvvPAyyCGaf775YvI1Ewg1DdcRuz333DP+XmONNSK/aakll8wiFYlBwwJSFk8LCWKnUIoedeYDAnfYYYdFrp02G0Iu5dnJVdWIXL7nggsuGMYGC1aSukQikUj0BUSHUTEM0/1YN6xTopgUGmnV+gLOv/Ma+mEE/W99f+ipCF54Ohs8eL77znrLFTcJXqIBBAvPnaqTV199dSiom226aTQzbiaiRPgpO69ohZynP/zhD5Frt9tuu1Urr7xyeEr6IxgTie7wyiuvVI888kiE+upRt+OOO1Y77bRTFEXhKbagykWVZ6fNwXe/+91qq622ipw6Y+8t4SKJRCKRSPQDdBsGRa9CD/uCtUh4I2O36Kr3FVLYYvoPQ6qt5NP1RvCC0Nb7it7idHDdnWtuufYWvAcjgSR4iQCBIsTs9NNPD0+FvloaK88199yR7Nssk4Xw02z95z//eXXuuecGKdVsvdFjknlNiYHCAqlPndBLY+vQQw+tDjrooAjBvP7662MBWXjhhWOc8eAplLLWWmtFw/zZZ5+9mmqqqWKhySI+iUQikRgs6DTWm/6kw5TwTGQnPFml2EiroCZrhaTSQTvX0Pjov/Ge10YEwXvzzTDE+hshzEit7pF3JRECRcEIyq2QMwVVeMIUVGmWJuYEAK+KohZyn2666aYonILcff7zn6/mromoULn0niT6QrGSPvnkk9Xtt98e4/7EE0+M8ErkTmiyhuRCQFS5VFxo4403jqbj8un8W07dDDPMEPMjQzATiUQiMVRYm+g6CEt/UmIQncZ+cK2o/xSCZxOi6Rqsp94vWyP8uxA8+6VRtWckwWtjmCgsQDwX559/fnXppZdGkQg943jD+mNBGmk4R9Yp3kXkTm7gZZddFoo3hXudddapZpxxxpzgiR5RxjlSp0edXE0GAhVitdT40Y9+FOGXmuLzDhv3wi2/9KUvVd/5znei+bgiQ0suuWSQOgtvWgwTiUQiMVywTjG2Izr0mcjB6wP25cHz3a65aK0CpNY1uPbOa+hFn3OtCJ71HLlLA2vPSC2ljWFi6RV35plnRh4bDxhyxxvGkjLWKAKP0s3DohS98vS77LJLFLlQ1bM/QjDRnijEzhh68cUXw5BhnP/whz+s9thjj+hJ97Of/ay67bbbokfiFltsUf3f//1fFEnZa6+9qg033DDyT82FJHSJRCKRGEnwxtkAcekLdDhkx1rXkqGKNTGzRjPiu26F8XrMwauv0XW6ZhvQ/zIlp2ek1tKmIBQee+yx6vDDD68uueSS8NjxWMw666xN0UvF+QmhO+2000LpFjK3zDLLRKXC5ZZbLjyNqXQnekIZP1dccUWQOFVWFUL5xje+Ed5qn+tRt/vuu0dRIcVStt122/DSaa3BS5dWwUQikUiMFqxLNmtPf4hLMWAiRS3pwesgbDyRXq270fuv4+PuYD/eO6RQUZb+FKNpV6SG3IbgDr/77rujvYBqmQsssEDkss0111xNUVBFGJ0KhhRz58i7okG0FghzzjlneBr7qrSUaC9Y5FRW1Zz/oosuqo488sjqgAMOCG8dIwEvHU/c0ksvXW2zzTbhBf7yl78c4+ozn/lMeOpUwBSeaaFM40EikUgkRhN0M6QNUeuPB8++NvoQQthS61ZN7qCQVK8TTTRR9c6eSGqt7xWNDwnmzXOPMoqrZ6QW02Zg/aAEq5T55z//OSoAqpapauZY59w5t4cffjjC6M4666zq1ltvraaddtooaqHoyxxzzDGBgCYSNQh4IbtCeHmhVYBVJEXly1NPPTUKBknElje3/PLLR6EUXupNNtkk2hwsssgi1UwzzRSFUpLQJRKJRGKsYD1D8BiueaX6Q/AQHd4vehGi04rrGGLnGiAInmvoIHPuxVsM+fXfxYMnpBMRzhDNnpFaTZuA8CAMEKg//vGPEbpmMikeMdbVMk3wl156KbyKiKcqhvKlkE5hc0svtVSUoWelSrQvjBOVLZ955pkolCJsVwVMhVIQuxNOOCEMA/fdd1806F9iiSWiEM/OO+8cm5y6T3/609XUU0/de6x/IpFIJBKjDAQPaUHw+iIuhRAiO0Ib7d9S61nHuf67g6Q6d+tyIanvqF+7a1iO4AnPpDNCp15Y34/YEp0YdYJnUNoSowvKMW/HL3/5y+rCCy+MsEd5SUhUf8rxjhT+W0/Wl19+ubrllluiuIV8KMJNsReNy4VkfqAJCr4kxgZkBYHOOGGcaOchh07VS+RNXp1m98aPEMt11103qmIqyHPwQQdVm26ySeSXaqmRoRyJRCKRaFYgLsgOktOXN64QHeti8d61nMGyPt9/1Ws7bxyi6jq6euxia4DrRmyLt7PxPv0n+cVbMCoED7nw8DBu1neVGz1QDyox8iAwHn/88chp47lTJXPjjTaqPjnzzH0KkZEEpf2++++P0Dq5UopiaCQtN2rRRRftV4hCYnyCzLB4GRPXXXdd9Kj7+te/Htthhx0WnjvCXQ9EbQwOPvjgKMBTWnzw4EUsf5fFIZFIJBKJZgN9WISKdQ3R6atgCiJDt7MJ0WzViBR6IH6AsL3NG1e2Brhu+oGoMx6/Tk8nsldvrXgPRgojrt0jckKplLnnofnKV74SvaU0q2Z193ATIwcTQc6dMDY5dwsvvHC16qqrhmfs/WOUz0aQyY0SKnrcccfF65RTThmtDyjs8gLlA+ZEbS+UcXHPPfdEqC6DxHe/+92QFzzP5AjvrjBLLQ322Wefascddwyvnb51eiMaRzzSGX6ZSCQSiVZAiVShL/u7P+tXIXh06FYmeAqsuHYGfet7X04HOq37ZJ1XOK2TFEKu+W/BiBE8g8+Du+GGG6ISoqIHGgv/5S9/CeXNv72vkIb9EsMP91Vem6IlV111VVQKVFBlgfnnryYeg5w7Y4KFCuE855xzItfu0UcfjUblpZCKc2SVSYx/FIslr/7tt9/emU/3i1/8IgxCxsj1118f+2jf8bnPfS7InNBMnt4111wzPL0KpUw22WRvD+9IJBKJRKIFYD0UtYLglJDL3kCfQu4Qnmgv0IfHr1nBe+faXQOiGmt4L+u4a2YILhU0W/W6RwMjRvA8MOXuFT1A7DQaVgURweA9evrppyOXhpIvZNMgTQwfTH6FKOTbCcucfPLJq80337yaX7XMMSJ3xgBF/txzz61+9atfxfhQCEOhF73tTPCxDBlNjA6EYnj2DzzwQBA48oFHX2sDm/Hx0EMPhRdXXzqeXWGYvP/rr79+tDXQqy69dIlEIpFoddCP6MzIDsKCvPRFXOzPg+dVwbyWWg/r642tRknX4o1z3Z3X0JXodXwHV5B3KDQzdYDeMWLaNJatEiJygZXLq9JUWxGNQw45pFprrbVivz/96U/RcJvSlxgemCwmzRlnnBEE2sTZaaedJhRUGQPvGOHlfHhzFb/goeFxUSGTJ0ZoXZa6HR549gRgT5vPPQ/baKEsXn6fV/mRRx6JsFyy4Fvf+lYU+1EYRa6d3Dm96TQkl1f37W9/O8YI45Dm9v0J4UgkEolEoulhHe5Yi62R9Ga6EKLT1zpnf3qzddW62VJVNBvO0/nTERDaHkltg77iHonq6Q8JbneMmKZk4AkLZKmnwMuRkRTpgajgOM8880S5cuF6cvEw8sTQQYFGrA866KDq8ssvD28HD4jQx3eNgWJsHHjGSL1CKrx4u+++e+RVac/Aa5cYHhCSnvkFF1wQ3vGum/cZVHhRhUWORmi054/QXXrppdXRRx9dbbnlltGPDoFzPhYxPerk55500knVMcccU+24ww7VUkstFV46xqFEIpFIJMYTrNf/rklaqfzIG0cPphNNMskkfRI8+/P4WcdbMvqpg+Qha0gb4y1+0BdJta+oP9fvviV6xoiNCDefIqlyJvcxj015eOJmP1wPSLlWWHha5YcHJroeYDx3FOp55523WmnFFau55por7nGj1WSkYRKqgKgBNWIn13KWWWap1l577VDoNZ9u7HmSGB4IfT300EODUHe38Yp55TFTdOfZZ5/t+ObQwaJoDCLxjAwXXXRRkDotDXjvhWEaBxajEpqrSAoDxBprrBH5dJ/85CerKaacMmRGf/IQEolEIpFoNSAnhcwUgie3zJrXGaqIwPRAYuhYCJ7XVk5vEd3FEOx6O6+5Ed7ruE9QPJ2uOSO/eseIjQgP4bnnnguFz8BrdKVyyb5WP1SYfvrpw1IfBCQxaLinCqrIZxIWqyfYIossEsUpKMujCRMWuVckQw4mErHQQgtFUYyll146mpan4j78sEjwhvOc33///SE0GzeLAfJlnHg2CppcffXV8dlQITnccYVeKqCE2B177LHVmWeeWd10000hBxRDUSVVLuiXvvSlaDy+0korxTglA1p5kUokEolEor8ohMZWjKPWUf8ulSFRnZ56u9H5EB3fbeUCY67bNfSXrLlOfIJemwSvd4yaNhWkrh68QjaFbKme6CEttthiQfIyFGtwMPFN8ocffjiqZSJ3ilPIYzLpn61JNrd/dwJiOFEsUJ6vcvYKZSjwguQjdptttlmUt+fJbVVB1Crw3Hlv5b2+Zdtqq2j8zYPKQsi7yiDgGQ0Fnv0TTzwR1XG1vUDsTjnllCCZhLAwYZUvd91112qPPfaoNqnP4bOf/WynF7fR+JNIJBKJxHgHPahs1lBEx2Y9LMTF+6G72bqATm3z/U6PXwvCNbje/lRPdy/sD/ZPgtc7Ro3gIXf6Wwkd1B7hjjvuCAVPAQXeJhYLLN7D8zpUlIGAdHiNSTIO4doo6BRqLSimmWaaarfddouS8vKx3GteHfdhJIFkOg/PVxigV4Ux9t5772qdddYJr12xSiVGFj0SvK23rrbffvtqr732in9/9KMfjZBeRGwoMLf++te/xjM3rxVDQeg1JD/iiCOiAqbqlwsssEAYH9JLl0gkEonEBBR91UZPKsSls3F3N+QNGaTX2ZchtZXXVRF8nZFmvRDVf9V6Ji4hb09ND7pOomeM2ojgYRK29fWvfz16XBnQrPh6oBUL/o033hjhXddcc82QCQlP0tlnnx35SL/5zW9iQIw3kocIC39UmIJyPffcc4enRK6bqkoK2dx5551x330udHIk7gFBQ7E/6qijIr9L1U7noRm1cyGAWtW6NN7wznquEaYKHyF4Tz31VHXbbbd1fDo4eLaMNZ53yfNDJIVeIvYZeplIJBKJRPegl9F5S6hipzG8Xlutnd3pT8VxYf9WXWPpjnRz18IL2Svqe2A/98l1MxYXIpzoHqM2IlTOXG+99cJ7wLqPeQvjUzlPMQ4PjSdBiKGqizxCQ4EiD/KLNE+WF4QIDZU0NhPkTSFvCldoP6BKqXwmOXcUeAJCWwS5TTynilyccMIJnblZwwXHQ8p/9rOfxfkI//N8eRBLFcQkd80FCwFhyrBSBOZQ4Pl61kIxGW2MQV55IRTmeU8LVCKRSCQS7Q6EhV7mlc7Un5Qlnix59XQ96+xbVtj6OLE1MQqptdFZOSX6Al6gEI0qmr6fekXvGDWCJ/dKgQ35N8K1kA8PScVHBEWemIqbyF55eN2BhcNEwPoNcIOj6772UeSDF8/A56XQVJkHazzANSPBcu6uvPLKavbZZ69WXnnlat555glLTsH0tdK9yMILVx//+MejYqIedO43b5t719M97gtIgWcl9JOX1Hko3iGf0rNdcoklIlQ03efNB8+ckHz88cdjDpmXcmCHCuEVxhkhnc89kUgkEon+gU5FJwNkpz9rqPWbLlw8fp1kp0OvU5yl/N2soMu6BkZgkV99ge5Cjy/3KtE7RtWnawAajPrf8fSw+Beioi9XX6Cc8sQhb5dddlnkmN11111BNkrenn0MABX99BJRjl1OkByh8dBrz3U++OCD4ZVEjKeccsroKzbnHHO8rYk5K5Bec8rPEwAaSf/yl78Mkicsz30bKMnjUkeYr7322vDcyfsjkFZZZZXw3M1Rk80P9GOiJkYOxohnq5hR141nG8HnKWf9420T2ptIJBKJRGL0UYzmQEfuT+Exei6CZP8Iz0TwOvQ5/x+sAX+04PycP7JGr+wP3CcbfdbWimGpo4kxuTuInpBN+XcebH8InsGAvSN1cny23XbbyPNRyEFoIGUVPHwkkBvX8ZdZZpnoA4cUsXi0Mlyb60KsVD+UQ7XLLrv0TKrq+zzd9NNHLpR7AAixSof6oClf350HtDvY5z/17z/5xBPx2+67FggqY+60005RSIUH5x054cYc5hTvqmqWjZtczSOPPLI64IADoviO8bPkkktG/lyB52ycOYYNWezP+EgkEolEIjFw0MNEnCEtbyF41t7GrbxXwzpdnCYB7yN59eb9d7WALkZvt9Ez+kNq6SJInfw7aSZJ8HrHqNyd4oZthAfjgXqwvAp9uVyRO/leenypzviDH/yg2nfffaunn346yvIL7QS/w7MlzFO44rTTThtkkseP58mkaEWYBLydilhcf/311cILLxzhrsLrehvk7rFCJwgYTyYBggDLTdx///1D0X/sscfi/vYEzwix5PVRFVHFTsUzDjrooOhlpjm14yaaA+abOaG4TuOG5JXnreE8Ys4A0jh+zCe96xgOdt555wgBLpbFRCKRSCQSwwvEhUE1CB7PFKJWQ5jlv3swstofketsL9DxnU74d9f3mgx0S0RNtFl/dEj6u3shFURIZxK83jEqd4fnrKuSWEhf8eYJ8+sLHqZwMmGXCA7yJuzyoYceCusHGPTCMX3GM2EglH5b9mnFME3kC7lDrBBVTcNXWnHFarZZZ51QeaiXSez+Tj755JEfN+eccwbpdTwtDRDhn/70p+ERdM+6I3mek3wtTbGP/dnPqidqIq2gS+llhuh5dn4n0Rxg0fvUpz5VrbHGGrGtuuqqMW8IUXNIePRaa60Vnl2kvzw7z58BRRVbBgXzUyEk4c6tahhJJBKJRKKZgehYc+lz7+aR61iTrc1B9so24c14sV77PHTAFgSi5po5IVxDpyeyF9Dv6aT0ed/pj9evnTEqBI+CiJjwshnIBqZ8INUdPWTl/PW06A0UU25ZYWUI3QUXXBAeJURFgY/i5uVp4r3wm/YRlnbOOeeE10p4oobM3VlDmhWu69Zbb40m0sLu5NStsMIK1Vy1wv7h0jekD1DsZ5ppplD0kWmWEgq7+6bS6GmnnRYb5R4Bdn9s7pnPkTtFWkwoIX1IA8KoQEd67poPErT1wdtqq61i0/POq+ev2qVnjOizgDU+P0YYc9I8QgKXW2656tFHH40WJ60e3pxIJBKJRDPCmsugyljeuCYjcNJeuhrQCznyvf44R5oV8ghdL12kL4LnWl+t9Xt6q33pOenB6x2jcncojeeff36EBSJf+t3J40LQkAZFQBRE6Q80Zr7ooouCtMm9MykKYcPuET4VM3124YUXRlERXgiTQXEJ5LA7T1WzwTWxVAhLde/cK57IbbbZJpT3Trd8P2ASuL+rr756ePEQZfAb7pmQzxNOOCGqbJbw1vLb7rXfR+ZKBVTeoFYWKuMdnjciz0NnkyfJY7fRRhvFs2P4kMtaDC5gLMiDRf5UQEUGFc4xVp5//vnYEolEIpFIDC8Y3OmoPYYq1uuzNbrounRYzgzfa6yc3koIwvbqq6GvuO63VQ5tuF6w/0u1fkIXQXh577oS38RbMSoET5ikwXjggQdWX/nKVyK/RwNyRT40XOYV4pnrDYgIgiZ8DNHRMP1rX/taNfPMM3e6qP0Gz6DKkn5DvpiiEl7322+/YP3yj1qhXYKJS+E+/fTTg9xRuhWWkU83GHLl2lUvFVbp/jVaPkwcxFfLA7mNKmSaeCVnETHcY489gij0l4gnmguEp0I7q622WghGzf8R+8bcV8/bczdWLBo2+wptToKXSCQSicTwAokphM2a212LBDSHnlYMsgzwCCG0orG9XDPdwnUUwtaJ+nP5h43X7DscOnQUf/uOV1uie4wKweOh22KLLaIPnkGsqIqB/PnPfz6IA69SXz0wEA2hYh6mcEMkRUiZzUDxPkIknFGPPSGE8vQWXHDBePXbfpOHr+TrNStMXkQVCRYiGfdv882rGfooqNIbTAZEWDP0BRZYoNv7zfXt/v3pT38KLx7iveOOO0b7A6S5Lxd6ornhmcvNW2+99SL8luGAp7uePDF/kHxFVhhTCFubuWUsliJGiUQikUgkhgfFe0eXpWP1lPZChyukBtGhJxZjbCvCddMzOVxck2trhNzDUmwGyj70WE4j96nrdxJvxagQPOF9CoMgCrxu3/72t6u99tor/r3A/PNHuGEhLhRM5fd56HbbbbfYfvzjH0ehD20PWDcuvfTS6uc//3l4ILB7D9mAl18nhBO54/FyXIPf5hzkH1FeEcVmBY+KPn8KqvBY6hWIlOlX9r4hWmrcYyRR2J5KpF3J4hRTTFEttdRS1ec+97mYQPIiFVFRiIMgyck0ujCmkW5jolixhgKETcEdoZfmh3HGW/tKR36d3yvGkvKs/W3OWEwSiUQikUgMHxAda691tmsOXoH1uGxQ1ml6Wat68Gyu3fmXAnCdcJ2ut36vXHPRgXAAkWT0mcZ7kng7RoXgeRBCMHnTeO2U1hf2p2CIHJ/ygIQQIh6IhXAx4ZS20iNPOCfCQ0mlcPIq+ffss8/e2RcDieMRbMxRc3yTRu6azwfrBRtpmLSqWcodVPDE/ULu5p5rrrc1MR8s9Mvj4RRu6T6XCWLzb/cOGZ9oooniPffKa2L0wMuM3GtmL19OLqQFYKjwHHnxzBdE3niTc+m3CFuC1oLROD/8zUDSiotIIpFIJBLNDMSFPovs9JiDV6PoaWBfazbduruQzlaA83ftdM1GJ09XlGu2v/vkFcFrVj2+mTBqd8hDMnA9SA/HK2Wy/qBjjyoKQGy88cZR9e+LX/xiePhsSA7vkg1B3HLLLasNNtgg3rf/sssuGyGbNsUhEL+ug97vI3jCHZG8rqDs8pZQdoWkKTZhEo0GDFjWG4o8pZ5n0jUoauKe9LdaZn+hbx2CR9E3uYTtCXtFkIXiIRjuR2LkYYwJW2bQ4H327BW2+fWvfx1ean3rhE4aH8OBQthUYvXcjXUhuc6Bl5uhxD6ev3OzgGhg31eObCKRSCQSiYEBybHe0gN78uB1RSGE1ufQo1sMrtU102sYnW2FyPUE1yuaSThr0VMSvaOp7pDedfK+hJA1bkIui7dJdUBEjaeJQiq/DlHh1eMBFH7ICtLdYEGahDp2R/AkbvJmfPWrX62OO+64qPYpJtrkMxhHEgY6Bf9nP/tZ9Yc//CHI1p577hkeS9cynHAt7iUvHi+qFhV+S9Nr90d47BlnnNHpNU0MPzwDwoqQVryEUUFV2NI4XjGdn/zkJ5Ef51mVBvX9gXHfl6D0uTkjLxXB/8tf/hLGBeG45pTxaOwzcvjb3LIlEolEIpEYPtAHip7JyN4XcbGfiB46hH1bmeDRMVxDf7yQ9pevhxT25vFL/A95hzpg8CB5BpzKlf/3f/8XuX+U7+HKgeoOJqqiMxqOK3CCoCpnP+000wz7AHYNCswgr16Vzj/ggAOCRH/hC18I7ycLksbn+gg2VlhMDB0EsjGmt5wQXBVeFRmyHX744UG0CK511lmn2nfffavvf//71e67797ZpLw/QAYZQVi4eoOFhOFEGLDnrKItzx5B6/y0UVCx1jhxLEQzkUgkEonE8KEYe8H6yyvXFxAd37Nvf42/zQQEzzXTt/sbZup66Sp0qP7co8QIEryiQCrLTkHtzwMcS1CsebO0V5CfZAJpG/Dd7343QuWQL4NxOMESofn6r371qwjN08IA2Zp1llmq99b3b7hgMpkYiB0iKfxPb0JkQB7kxztIAW/oMsssE8VqhIrax6RKDB7un3HjOesneNRRR1X7779/GBD0HSxeOmNOj0PtPHbYYYcg3MJoeXOFL/SH7PPMKWLEE6gZfW+wL4/32muvXX3jG9+IsceDawxYMPSPNO55+oT0OodEIpFIJBLDB0SHvskA3x+CZz86hTWc4beVPXiqaLqe/hA2+xdS21OUXuKtGDGCxxO04oorRi4dojfcoYbDDYRUiCiCxYNGwabY8mTJgzrhhBOi4IV/iwE2QIcCE1oVQyGZiJew0yioUpPh4SqoAjyEcrj8Ds/cbbfdFgIBofOMhOi9q1bovadK6fLLLx8hrNozIJ3N3lKi2UBYsTAJub3llluiYM6JJ54Y4beIvDHkuRNWDAorr7xy5JNuuumm0b6AF5VXbfrpp49cVQK/v4LMfsIuHUMIc1/w/BE481Q4sLFgHC6++OIRyqzn4nLLLRfjIi1miUQikUgMLwrBY1jti+DRO+kYDPbWe3prK67NheC5dtfdH5Jqf9dMb7FliGbfGLE7ZKDyDimAQllsdg8eGDCUXJU5t9hii2r77bcP5degopjzaJx55pnhdeF9GyzJY4W4995745jC4HhpFJOJgirDSO5eq4nG/ffdF+RO2wXkDqkQmkmJ/2AX0q01gh55iCaCcuWVV0ZVTwIl0TuQfr3lFEpBjhE7RgFhmLx2/s0zqmCJObHddttVe++9d/QZFJKp+I/WBYR1fwndSIAXz5gXNio8lHEmm9snEolEIjHMqHVIuiRDPCdIf3Lw6GP2t19/PH7NCtfhekUH9YcfuE9g/1b0Wo4FkgJ3AxMH2UH0FCChiPv7wQcfDE8MhV1fPpNsoCSvhOzxCqpeqDrhDjWRnGP22YfNy1msI/fUJPKUU08ND5L+gltttVVs2iBEyF0XIkFQKKax/vrrR8VSeVmXXXZZ5uJ1A/fYs2SB+mdN7h7629+qiy++uPrRj35Ufetb36q++c1vVsccc0yQaqRJ8RShkN/73veixyNSx0Pm+RNuY0nqGlEsZMa/givNdG6JRCKRSIwX0B7pEfS1/pI1xIjHzzrdWY2+xUB/spU+1W+5Bjp12Rr+TQ+lbyGF9k+9pG8kwesFJhuPHi/GPvvsE0q7ELZLLrkkcvVUPtRWoBEGoK07rxdCyHMn/0r4o3A6eVfTTT/9sLmb/bYiGXKoNJQXJihk74gjjogG5pT23n6LkNFuYs0114zcMMU25OM5bmICCFdhrwi6QjybffGL1UYbbxyGACSPAHLPDznkkPCcInoqY/Ka8tI1e7hyIpFIJBKJkQWSQy/knaJv0Q16I3n2p1uKGEJyGOpb0YNHn5T+43ronF1JahDAjr8L3qjvE1LXqtc8FkiC1wcMJBYG+XlC6+TnKURSiqMgecLyTFID1r+vuOKKt+WumZC+o0Inz5iQvBVXWOF/4atDtEaYEEruCw/U5kG7A2RCLqFCN7xFqiH2VXGpeHBco5BRnr/zzjsvwg9ZmdoNJRzCvfWc3QstDA4++OCofHnaaadFXiaPFwLNQ6rlhFf3XT4dwiw0k7HAsx4uMp9IJBKJRKI1QW+jV/Hi0Q/e30dOnf3tSx/xPfu2oifLNei9i9h157l0TV2v6uV6f9/x3UT/kJpmP0Ep1ydMnz4kT/EJpOfcc88NLw2vnrBL4ZDIlfYKxYvnVUXK3//+90HuhEjKc1III0Ilh4AiILRa+N3vfhc97OTNIY4qKfod5G4gpXRNrplnnjmqOCrGwtuItBIqfm+8owhReYiqp3puJ510UoTmCtFF4hVKsZ/7LKdR8/3SgN89R+wQbM+3FQVwIpFIJBKJkQMdouiJhej0pS/QTRRyg4Hodc0EOmsha0HmGq+5/N3lPrhmWzs6GgaLJHgDgMnHE6OkvOIYQix5uFSnPProoyNcTzgjQvDnP/95AiGqJ68JLKTPpjS9yqKKnXx4ook6jjw4mBzy+RR9Qe6U4fcbCqUoEKP0PoI2GCGAmCiZLzxVSKLiMnIQeSLHI4QMEB6eJ0/dddddF4VRTj755Ciu84tf/CLaZjzyyCPRXsK99Rx33XXX2BA794qnl8e3NytcIpFIJBKJBBSi15f5vBifhXQihNJBWhFI2ksvvRS6ZRDc+rpiK+iG5NLRXH/Jv0vDed9IgjcImFhzzTln5FXJtUJ6eHXku7FKIEKKk1x77bUxKHn/lKFXaEPuntL0Q83DMslffPHFaLFw6KGHRs6dEEzVGW0qcwq1HAqQFcVl5B1eeumlcT3PPPNMx6etjyIsPSPeOl5XJFkfua233rraa6+9IgxX3iRvnLDLH/7whxGa6TOFUhB1oRUZdplIJBKJRGIgKESFHoL4FI9ed6Cz2EfaCMN9qxI8eheDerl21K5Hctuxj+uVp6gwXZK7/iG10sGiHmC8Zxo1qu7TOClLvt1vfvOb6oWahJmU+pppG6HH3JDJQH28v9UkUv6XXDAVPdddd90gIMIqeZCGYwIQHsI7tU1gMdI2QShoy6O+f56JPEmkVfN3BWl22223aEKufQUItdQ43D3W8N79FXqpwmj2YUkkEolEIjFY0CFKVUj6CNKD/PSEYpQGUVZDNeKPFVw3R4mif66hV321vmakFgF2r7RtemcSvH4hNdRBwCQz2ORhKbDBk9YIn8vPu+qqqyJ0kterVDwyqAcLJNJvKfQhJPQvf/lL9alPfSrCRT//+c8HGVM2d7iIh0knHBGpkTeItCr7j9S2GggIAtQzO+fcc6tDatKm19u+++4bXjphmQqlaDyujcEBBxxQ7bDDDlGkBml2n90Lz9CzTHKXSCQSiURiUKj1RERF5BWiIz3kueeeC+9cT6BbMrYjeYhRKxI811AIG53qQ7VO1Rth49l7o963tOuigyX6h9RSB4lCfoRbIlZCLhutECapdgWKsCiwwjIzWJgQvi9UUCgogvLoY49Vn/zkJ6OdAU+Tv3nuhhssJvIGVYg0KRUdQWp7szKNNdwv5ye+m9B0zoh2yaeLQjhnnx0FbwgZ4bMrrLBChNDKq9t4442jAqYcRBUwWYyQukQikUgkEomhooQlMsqr7UBneazW66T59ARGfhFidBshi0NxGIwVXAO9i45Mt6Jj0p178+LZV8Sce5RtpvqPJHiDgIFocslPQwYU2FDYhAeosaCJSSis0WbiIh4DhQHN84SkIIuqZLJkKPLhtxV86UouhxssJksssUSElz7wwANRgMQ5DOZ6RhIEh/NC6pBq4ZfCLRE6Hs/jjz8+etc98cQTQVpXWWWVyKMUhqkfoWqYPJUZ451IJBKJRGIkQYfihUPwppxyyjDi018Y07sDHYdeaaOjtGIxN9eAsCGyrv3djOe96FvuEVJbCF54LVM/6xeS4A0BiBVi96UvfSnC+oTyIXklfM8kRewU7hDa2NOk7QkmgkEt1FN5fgRl8sknj5DMTTbZJEr0NxLKkQILi5YOQjVNyhtvvDGE0FjDxHePTHphC84NsUPqNHbfc889g7zJsROaqaIoMv6tb30riqUIz1xvvfWi3x8BWyxJiUQikUgkEiMFmobQxPfUOhyj8nzzzRctrqSLqDBJt7E1wr+RnULuWjFVhL5GV6NDOv9ur6HW7eh3qtDbEFo6nn3Da9mh+4WTwZboFknwhgEq+yy++OLVgQceGIU4VFZsjI1G7uTLaWfQ38H4z3oSIyU/+tGPonE5i4ciIPLGEJLRdFObVH5PmCaS5DpU1fz3AAnrsKK+j4Tg/fffH+fy/e9/P7xwKogecsghcb+dtxBWz+XYY4+NV73qeD0R5WxlkEgkEolEYtTBmNyxTfThD0dKCKM9kidKCqnpSn4KOZKOQyd7l89bjOC4BpFWItO6EtiucGX/rvdRx4IzQ1qUsM7/1NccBNA2YddEN0iCN0SIJRbyJ4RSdUUeoS9/+cvV8ssvH8mzLC28cMIFkQ6kJKwOPcCAZ9kQSviDH/wg2iCY9I67Qn1M1TiFTHZr9RhB+D25as6FJUUbCOfp+kcLLDkEAy+dPESeORUutTVQKIVgdM+Fr/KqIsRInwI0iyyySOQp8tSJeS+9VBKJRCKRSCTGCvQR+qO0HzqOtJ7rr78+dK1GfZF+6D1eLITnHfRAeox9etErmwnF8yZiytaTob1oZ3TMUr190prcfbijSjzvp31Si+sZSfCGAK7ykhunwTnyptqiAh2KdQgHVICFN09stebnN950U4+hmiwzCJ2m4ggMCw5isvrqq1dLLrlkNdXUU0+Y1GNETFR6EpIqF09FzZvqc3XOIwWC4B+1sFOsRljoeeefH6GqGsprPK5wCrJHQCy66KLRl27zzTevNt1002gbob2DsFL9/PSqS1KXSCQSiUSimYCoITtzzDFHhGrSU6644orqkksuqR5++OHO9gl0ItFcvHdI3tv0mRYgecgdhwGdjLG92zSjjusSJfb8889HYT9eyymmnLJzf9ce19/1HiQ6kQRvEDBAWRWQNvl1v//97zsnILKBACngoal5aYYNGqFfeOGF4ZouJK8c6+/PPRck5qyzzopjakWw/vrrB2FZbLHFwi091jCxND3Xzw+Zvfjii6MdBKEzHHAv3Bf3UuPxe+pJfdXVV0dbCIVSELsjjzwyCDWvqXBRnlJeuv322y/y7ZBqVjCkjkAYbU9nYgRh8Spb+XdfaNy/EV3fL3+X97t+3ht62q+79/t7zMTIo/EZ9+e5NO4Pjd/t+llBd+8NFN0deziOm0gkmgbIymSTTlotu8wy1aKLLBLGc7rl5ZdfHuk66jkgO7ZC7uhLNmGMnWGLPGS2jn+HrLA1CejJzkskGh2tW4JXw/W8XN+DUnhmqqmmiq0TSe76RGq/g4ABioBoZK4AyjTTTFNtvfXW1cwzzdSZe8fCIpzxK1/5SrX99tt3ut5ZZBA9k9cgR+7EF1/65z9HYRCueQVN5NrxBHLbN1OumGuVAyjvkAeNd03IwFBQ7gNiZyLfcccdQeIOPuSQavfdd4/cOU3dH3nkkbBwybPTeFyvul133bVac401gtBlkZRxjsZna8Hyb699oacx0d373ivbQNH1XByj8b1yzonmQONz7s9zadwfGr/b9bOCxvf6M1Z7QjlOOYZ/D+V4iUSi+VDPa5FSSyy5ZBir6TWiw0455ZQw/HMC8OjRJTkBGNgRPv2Rvff6P/9Z/bPWx2Kr/w7y1+H5K4SvbGMFup5zdU705Z70W+f/0EMPhc7MmD/jjDNOcHTU9yj1vP7hHRNPPHHnk+7asDvxdpgwLCmHH354EBHetTVqgjHXXHN1GwJocr3y8ssRzmiCKgiCICF+M9WEUKgjouh95EVPO9U4EbtmJCwmpes+4YQTqqOOOirIl0ImiN9ggBwidQq3EF6leTwCbeITcO4X0qvnoEnOtU8wsGLZJ710iWGBRc98K4tfLiJvATl1zDHHRNEonvPvfOc7Me97ssC2NcpYGkmMxm+ME2y00UahLGqFwyiYa0aimUHPQoQ4Ah588MFIRUHsRC4xqtMLEUEeMHoQbxjyowZB0Yu8KkpCXyreMn/7btGbyt82fw9E33R+jz/+eLXssstGGtEWW2wREV49omNddf7XXX99ODrUSkDeYg1pWHddPz2QXmw/VePp2BwLAznHdoR7VJAEbwBgdVDIQ5ilIiO8chQdIZgmT29wb++/777q2uuuq6655prot4bcqALJCoO8OB4io8JjMytNCNkf/vCHKGLCyyiMFCntz6KpOujzL7xQPffcc3Evbe4BQaEYDcsSoaTBuHxGRWX0rFMcRQsKMds5wdsbJYzXGGLF9G/oaVwYU+Uzr+aWcaTvULEgdv0uw4wcWOHUfqf8xkDA4MNA4bfey/jT4krleCN4xgVFgqVYFIWxNNBoBDKPUkXZmrgjzzfQMJ78DmXIGsDaTmkzvgYCESFKqZfGwAoMNP5GonckwUu0Kqx11iEbGVL0JGtSaXpObnnP5t/2IXPICjKpkcz5Hnli7fN5IX728bn3fOZ9f5PvhQRay7zn7wETPKjP7/4HHohINbqf6DbrsOMJKxVqSj4y+KtvQV7SjVWpJ/tada0ZTSTBGwQMZgPuoosuirBMA5nnbo568H24nhz9gcmoGtAvf/nLaBhuIiIzCoEsV0+SaaebbkwqZA4UzpuSJ+eN8EDw3AuKzttQT2iTlnB6/LHH4vpNcIut2GqKFcHjPshdpBArTKPiJeWR4PEbBEAi8WKthLNo3nnXXfFKZhVluStJK7Do+ax8bixZvBgQeM0ZERqFYgkN4U1mOS15pv2dl36v7O83VJ/1OqVw6xZeoMYbwXutVpwefuSRUCYYmcgocr43GEOeb4FnTEa5D7PWcmu2ej2giJSxQvGSX31bPZbIfJEJJV97IKBwieqYeeaZYzxNM/XU1Xs68nASfSMJXqKVUdYUcsPmb7KFTsnxUEge+eXfSJJ1zHsInc1n3rNZA21lXaRjOZb9vO/fPIDmid/2m+S8AjDWMutlXwTPbxc555iO5bfUVriiJng8kgge3c/1OG/6oAgx667fleakrRUDmmMk+kYSvAHAIDOQKQDnnHNOeN942HbeeecIF2QJ6Q94rp6pFUVWC6GaBjEys8IKK1SfW265GMCtYuE3abnZhamqDMqLt9lmm4XyUeCeCU19up6wFGQTtkzcouQgs0gdJZtgMJkl0RZSl2hjUKIblFfz0HjiAZd0LrTZgoSo9UQwyuLVCAtJWQTNXeG/rIPz1wsXQ40FjsJvXF999dWh9NvPWO3ud8pvOG75t3O1iLKiWpR4o3m4eegRgVZdqFqW4BlL0DEWPB/yh4FJJILroRCROazTXccMlOcMvm+Dopi4BwwFSyyxRDxni6zPhPMzCMoj4SGk5PT0G11RftNxKHDkrnWCrFyuXjPITuOyP8dqdyTBS7QjrJHWu0aCh3gVMuhz65RX8olcbNzffmQjGUfOLKMAzKKLhrHJ5z0RvP/UsopBi/5HVjZ6Axlmb7rppvg97b94Bf0uPVEIqrWdXFOx3W99tJZ59Y/HcRN9IwneAGAQIyQajosFFkLJ6kBp64+iZnAb7A/+7W+hTPz2t7+NkC9er5VXXjny8FpR4VNFU68+1SsRMw3eNUIvcI16/51xxhkRR/3kk0+GAiXcUiy1yatfHWsQi/dIKylFIStIpaiJUZ5VxzMSuvFmPYf0BWJUoKjJfWVYUNGVQOvvHKIkI228cxdccEGMUePXfNSSxLg99NBDIwSbsUEPRUq7ccuL0h9QyC2KjELmvJBu1lCLoBYeFrRWVDBbkuA1zvuO8UR5IctdD3lMbrkeMslz7u/1kCmIl8gOBacYHqwX3/rWt8LS7TOVhvXrRMxUVqYgkXn9HUvgfFm7jUlj1u8pwKDKMqNaGsP6RhK8RGLgsF4ieQigVyQNWSNzeiJ45CIiKVKNzPI9ThGGe8QNz/A93xeNQBez7iKa9mMMtb5bf3OeDhyNBO9d9QPbt+Pvaq+99ur4KwEGqYX12GOPjf50FECLqvDB91AC+iAJxfJ69TXXVL/+9a+j0Tmv3Q477BALvQHcqouziWcgIXkIMIsOa0shTpTo6667LhQcHhBKlEVWsixhwO1OOTThR3ISF2FDeDgnijcgBCk8mhTGUMPcKkYWPRDNJ94LCi5jC7I0EAOJ8VnC3cT2m6Msiiq0yqXVkoOXnhIuAXzppZeOEBIErb9GAfuZ15T6Es7Ck8NjFM326+O14rzn2bzhhhsiBxexIMOEZTf1PCpjqeHZsRSX50wuFcVEjhtyN5DnbOyVnGHPWQi6NYOiUjzBxtu2224b94v8768Hr8C+xnkJYad0Oa4IEmsIGZroHYg8xdKcp0AO5P4nEs0Ea1YxWI/0OCbbyUTrHz2O7CLz/K7zoFcdf/zxYSRlbJVP5zMbuShCZuGFFw75Wqpg2hjSyEykz98+Jx+RRev6qIZkFiPgOJEJCh8WJMHrAZRK4ZQnn3xyeA4QEhUuhRNGWGYfgwGpoDRaWCgTFFMEiEeApZgyYdK0Kkx894E1nyueEuP6GkOGCANhS6uuumpMXgKAxzKsObXCQskdSeWQIsRTo8wwT6LN3xR6woNCNhBLemJsgJTzuAhtthCYh/I0B2McMDZ9x9yjNBvDLPvCQhgceNtYKI3XJZdcspqkHiPy5sqY7i/sb2F0jkgQ44J5YtzNUpO+kTZsjARakuB1Rb2Y//XuuyNkklVa5AHlpBgK+v2ci4JVXzs5ZszYrBuIo6JQnrfIBX2tKC4fr+XeQAwFBfZ3bsaq++1VE2Syi3KkCl2idyTBS4w3GMOjMY79BhlftvKbPRE8sM+H6jXuozXJo++Rh159zlBFD2T89DpTTfzoiYxViB35Nlrkjrz+x2sTchgHI5ubEY0Er7U0jFGCh424CLvhuWPZlyvHGmER7w1IBW+D/J3TTjstXNQWYmFePFe8gAZxU4c1dUGZyJQVoZmu0UQwIUxq1S1ZrSnJ9gX3yWLqmt07IUuszxSU8F6M8ESS8yjf79RTT43nwNNIORWSd+aZZ0ZfGUpS8eglmhfmI+8Xq2UpwDMcxNw4ZEVkWSToeUWMGeO0lGQeKixUFi5WSYub8LoXakVT2F1i9KF5LgMPcke5ECJkLA1oYS8W3wYwZjEQMHIZp2ShEF1jbJ55560mHQaZT7li/SZXzQHyGNlOJBLtg05JVcuZ4skDfzduYwnylEz8cK0H0vmspfRexigEz5pr++TMM8d6y9tHZxxIBMVwgG7xRC1H767XfTrAeEMSvC5AXih5vAVImoV0s003DXLHytsbfBfREYqJRMg9M6A33HDD6gtf+EIoE63itUPUDP6na7KqH4mytiqI8og1kiKKK+uLhFkhmRQnwoVia8IWV/toTlo5W85HeKiG6ZQg936llVaK8D5CBOFTNMfzGmthmOgdYvgZTSwSrICd89Bz6++z62FfnjTEi+LMqMOAQVFHygLDMG7NeZ4WCxul3LwqhpDEKKHj2bvvxhJSR7ZTQkI29XcsNe5Tvgf16wc6PGoUGnJFRTgy0Jgdspez43fIUuO/GCUUP0gkEm2EWu6QWSERyIUO2UCPId9sodM0fDYmIB9tfYDRzTYWID9F8IjSE3U33pAErwGs6vpuCOdAzuTpyJdjMaUI9gSTiRIqUfSss86KnD3KIs+VVgKlzOtokpyBoggH9wBJo+gidufVRPewww6r9tlnnyiogjBRkAoow7wgIIzO98baO/Gv+vdZZRA4Cpy8yf333z+KZxx00EHV1ltvHWTB+fKoJMFrbpT55VX/r+gB5pn1ZwGxX+Pzbfy7Bg+LPABKueMLDzHvJ60JX+e+Xb4zUFDuyQ+/kxgjNIwTzxlJUp3t3SUUqIyl/jzrxnHX8Eq+lzAmyoJX48pzHzLBK7/TAb/VqcglEom2gvlfSF7IgHrz2riNJmkqv9lqQPDkTSfBG+fwcIXUHHDAAfGwhVR++ctfDvdxb/HABjVLLe/WTjvtFDk8kkpVUlOZj/W2FcIxeRWELv3+97+vjjjiiCgw8cUvfjEq5fFIskSr+qm6kZDMAn/zjiGwwpKUuR1rV7dwUtdi4zWRN8mTWryKqncipazscnFaUTC1LSi6ZesPGvfv4XtFMfcKxsk7zfmybzffGSgaF8CyOCfGBuX+d/sM+nouvX3e8JljF7I33M96yGQxkUi0PEgVxs6QLx3yxtoV6xfZM8xyZ6TwLudNTnb8ezQhL/e+++4Lh4zINEaz8YRcKWogNwoIyNXyoCVhIzMa10ZIZQ8TRe8OOXq+J6fL4FBERSnmBeafvzPXbrgX+KHCefLS8TgqJMPriNRJztQOQjESVg1hakrRawuxyy67REECOSaNuUmECbKECKtOhyS7nwVjQZ78Pi8j4h1x4B/+cGcCLcHHqu59YVqeUaL54dmN1Dwqxy7H9//mmrGJEcEIjKfuxmnXfw8VaZBKJBIhv8oW//zfOhYyp2zDDHojh8Z3v/vd6gc/+EFEvSkspR2MNkb+pl/2C43nOQLn2hdcC11XETTpE/0+7xZB2xM83iZ5ZTxvN954Y7XQQgtFlT65ZR/8UPcFVeTaIQ+KMiBDcs8kia6xxhrR60iBhomHoUDDcIJS4Fp52FynCap1w49//OMIKVXpU0gmQirfcJ111qm23HLL8EKuu+66kbumUIp8pa55hIggT1m5lyUvhHWkVN5D/EwmoXYjDc8HyStEs6sVXX6eMFLn7Vk1fpZIJBKDxWiQryR4iURirEC/uuOOO6qTTjopeomKmBK9JSWmpPC0ShExxE4kF2Kn6j2nzXhC2xI8iySywT2rGbHqivLJ9GnrqaAKz9err7xS/e3BB+M7PF8IjfA/3+O5483iHWoGuL5S/ZKnTqEURE7rh1/84hfViSeeGJVCkVXFAUpPKN66HXfcMUgewosICW3sKTRImKbvyzMqhSrcKx49v6ngjAa9CptcVf/7lptvjkI2eoOV3nRCZAmOkVBenAvS6Tr9ptw7uVfaVSi7nwSvNTBSiq3jptKcGC7kWEokEuMVJadY8Tr6FDJH5+M8YDzn7BDZ1eygb3I6uAYED9Ebb0Wr2pbgGZQeLJKjXL6KanLoFFRRaKErLNrY/V16451ySvW9730vBjPv1q677lotsvDCTdHbynm6Nm0CTDhkBhF1vprtfvvb365OP/30sFaofqmIjPDMH/7wh9Xuu+8eXkheLZO4v8QHWdLnxPGUszdpEDYePV48pI+lxzns+tWvVrvvsUf1/e9/P85Dfh+SbHK5n7xuvjecZM+5yMdDZpFbViZEfO21147nngSvNTBSz8lxx3reJsYHylhKmZJIJMYj6Mf0PcXIGoHU0RvpVK1QLZ6uyeiPqPqbjsghUiueHXu0PtpSq0GAkJ+jjjoqWiEIPdxss82qGWqC0q2iVz/wF55/PrxQYo698m7tvPPO1fLLLx9Ny+sVvWPnsQEyhBgZrAirXLq99947SJvKkRp880rKqdujJlgHH3xwxFBvuumm4cUyYeWkDUbR9R25bEgTS86jjz4aXjl9poR4HnLIIVG8xvkoXCOPz7ny7Hl/zz33jCb7Pkc0zz777CB9vHv287y0PhjsxBMjrniMSqCeuXPTZFMPlvd1CCKEsvxWd/D7iGKcRxeU79r8nRgZjJRnxHF5eROJoaKMpZEaq4lEIjHW0Faos5VQB0R50SMRwFYwcAkl5Yygs5HZIt04JFRhHy9oO4LHFas0/s9//vOII15mmWWC9ITVofRE6oBFmtfummuvrQ4/4ojw/LBQyE3judMAvRRSGQsgFMIgFXpBlhAp5E07g1NPOy36e8iZU/jlm9/8ZlTE3G677eLfGq4jYM7fhBxKMRgET5im4yFICJ6JwoqD/HofiV5yySWrVVddNfoCalXw9a9/vfrqV78abQyQTASTFUUPQq0Zdtttt9j8fcqpp1aX/vnPQfwc33PpL5kijISfapXg/sxcEzuE95fHHx9jwHMWQ44Uy0vsCqGud9x5Z5DVq6+5prMPoO85B/32kFOVU4WhJlkYGYzUouG4rbAgJZofOZYSicR4hzBMvTgbQZdUi0FEVyvIQBF8SF4heKLaOBVGo07EaKGtCB43LILAm3PTTTdFDpZqmXLuuva585CFDVLeT6vJkmIhXNKaZSNIs846a1RjHK1YY2QCeRIjzPvo/HkSf/WrX0U+nVf5da7POSFMCr5stNFG0e5ggw02iOIxrtkkdO7DSUwdjwfP5EbAeM2cs4nud3gPCYXStkC7BfdeA3ibe+p8tTAQIoqYOhaPoPxBfQmFmnoWXuVO9jde2rN1zPXWWy/uw7LLLhvnxtP5+z/8IQgb641/u689oat30zGQ7KuuuioqR2mv4ZXA8FkikWgv5LxPJBLjHYzm6i40kjlGftXUx8rhMRAgdI8//niEaJLZdDb/prcmwWsxFEUcUUDu5KXNMsss1cYbbxzVMrmWGyEOVxEQhVTkjskr09sOORCSqbfdYEIZBwMDkbcKqeNlQiZ4Eo8//vjq6KOPjhzCyy67LFzNCBaipK0Bz5e2BnLqkDrWlZE8Z/fQ5DbxETyexf54snjtFKlBSN1bJEwPPvmQcht5zTSKR65LnLTnx/Iy0ImI+GrxsOQSS1Sfrgmm8+Nxc769Hcv3/D7PozzDEl/u+8YKTylrFk8lKxDi2Z9rTwwMI6U8O24q5onhQo6lRCIxnkHfowcz3NMrbXQ/hnn6UjN78AofYNQvjggbHZoHj545XjDuCZ4Hx/OFqfNyaW3Ai4RAyMNqLKhCKafoKwqCQCFPlHV5Y0gHkteVDA43nK/zcM5yvgxA3kOkTn6aMEDhgEJMEU/EgpfO+4ceemi88ogpFsNjNlrJrrxkYrKRPK5vuYA95bP1BudLUKhoytO39NJLx73/zn77RaimMFPPg0euu0qn/YFnbgwgewijMM3eJrXnoQAMMkgolOsiJFh9CAbN3p2v/ZBPnyWGFyO1aDjuaBlsEuMbZSw1s4KTSCQSQwF9T75dcRzQ2+ibCF6zyz46NqcJHVWEWHlP+lapBDpeMO61Goo7z5eCIsL65NwpLMJr1BheiUwJyUTsVHjUt03IoO8tvdRSb2nuPWKoBxmPkN8WkoiwyVWTN6e4i/A/58zLhewgeZqT83Jpzj6ansWuMKmRX3mJSKmJMqwlZ+vjI2aIn5Ba19of8opo2d7iUauP9Y76PnHLu98mem+EzH6uh4GAt85YAdcnLBOpRfCQbeRU379hvfZEgBAeCRSjSiIxVJSxNFJjNZFIJMYadDEEr7REEImF7Hmv2UE20/vodGpFNEI0F31wvGBcEzyMnPeLJ05u2uKLLx55aELpxA4XYOz64P3sZz+rfvvb34YnquSFKb6isEojGRwuGGjIA2uCkNCzzzmn+slPfhJVL1W5VNIf2UNmVlhhhSB7qmIKvUQ+hV4Ky1TIBLka69hn/f/kJiKZJgnP1nDCcT23gRSFYaGRY9dI4ChgxoZ779kSUr3dO8+J1871RCXNjueGyKrCith5DsI3bZdffnm4+u2TGD6MlGXQcZvd6phoDeRYSiQS4x10PTl3UlfoTggePcrW7KC/IXai+hC9Rog+8/54wbgleEjTjTfeWF144YURyojcyfFCQBAED1k45v333RdVGxE74XqqPa6++upRdRG5CyI4jAu23+VVZClwfgqjHHPMMVHBUbEURV2QOr/LK6fCJA8dr6O+ba6Bl6w0H+8v0RkNOGcEx+RHfoab4A0GvLa8bMZA8eQ5L/fYREaOVdUkoHqD59YIRE8opuP6DKEtlh9GBcceT8m6iUSib3SVE4mxATlPRjPu2RjoGNwa37Me5PNKJAYODg/G8eIsUWSP925UIt2GCLKB946O2lVHo7fZSpRWq2PcETwCm3dGWKYqk8Ll5GtpbVCamBP0PDu8eufX+yBZwjO1Dthxxx0j70sI53B4xJyPhcSCghAo9KJao98U8qdQyk9/+tMgoggC4oZc8tJpbaDQiJYM8v9ULXL+YxWG2RMsnu6n83fvEU4TSPsGBVEQHp+PhUdLzpxm6saCENfrrrsucul42XhuFdvhfSv98PoLlh9jRjGZUrxHUR6Ez3NG4D3zxPBhpJQxx01FLzFcyLE09mBEFU5vrSX/rU3WoAceeCCKkl155ZUhuweTJ55IJKqogUB/kiojyszGuN/sQPDM/UJMGfcRViGmdH46LAfReMC4I3jIFMX7lFNOCQ8Zjx2yVDxLJbROLzxeM2GQvDg77LBDkEAkajgKkxhEhdghGQq3nHPOOZFXp7G3MExeQ0RAJc9tt9028v00/v7KV74SIaKIh8HX7CE/JoNCJSqOKgaDOCHPiCuC+n//93/x+VhYRYRPImOnnnpqtcsuu0Q+I+JsgZc7t+oqq1STTjJJ9a4BknlewLvvvjuuCZGVM2nzNwHBc2icJYYPIzUPHLfZjCaJ1kQZS80us8c7KHCMbgqS6bWq/c3f/va3WIOlOeyzzz5hmLNGJxKJgYOzIfpH1/oyvRnBawWQzfTq+eefPxwnnCqKxiyxxBLVZz7zmSgUM14MP+NKqyGslalHohAq5fX1gDP4MHSki+J90kknVfvuu2+4YoU+brPNNtGXTcjjcCzMzgOpo/D/+Mc/rr7xjW9UO++8czQg/93vfhcTQw84RO/www+P6pjIJQ+iwebzVgJrqRxGxWncW5Uli7cSkebNG6sJg+ALc0WYhQ8gZaw0Gq4j/ksutVQUXBko5NghcMaOYjennXZabMcdd1yE1Pq8GUJUxxNG0oNHNiQSQ0UZS+nFG1sw5pLzZDRix9DK8EYu0xHk4FDyWsHjkEg0I8wfRnKhmorftUKBFUBI1bTYa6+9wrGz6KKLRi6hCvQMP6uttlo4fcYDxg3BI8CFY1KwecWEOSJRM804Y/WuWoEn6FnvFFJBRuSxKbevcTkrBHI3GCu+hRzBQWKEI/Ji8c7xEiGaPFrCQhA3OXRf//rXg9gp/S/Xb6GFFopJwj3MisBt3GreBPeOq9t5894huAidBZWHC2E1qUaiUE1fsIDzkLr3LLeqkfIoKljDAKDqZSH1FDOknxeubAgha3AjPG/7URLkSWq3wdtq8zdLkPuA5LoHieHBSHlFHHekjp1oL+RYag4IH1MEwppqPSqku6QJUEhLD69EIjFw0OcYzek8cvHoUq0A8hkp5XFUFIaMYAxC8njv6LJjoauOBMaFdEMieIoUSxGWWaplKl1PsMuLOvvss4Pg8S55f5111qmWXXbZUMoH4jErFtripUMq/a58umOPPTa8OX5HSKJBgkjyFm2yySbVFltsEd4khVIUcynWj1ZXCFhy5Cwiyl2vpQgB93isJo0Jy5PneesZyEKjAqkJXhZ45+25em5CS23yI4XRyiG0HyHgGpA3lmBkPPL3GqzA/ibw7G8f+yYSifZAeu6aA9YkVngyvuuaxNhIRlPsWn3tTSTGCnQceh1dlh7E0J9oLrQ0wbOY8pAoqPLHP/4x8r5KSB6yoRfZzbfcUp173nlBupCyJZdcMvrICclErvprwSuFRBBECr8iHY6pBYPqlzx3krl5deR98R7y0inaIr9uzTXXjInAjW3xQRTGy+LiWlg/eMqQnsbrKgTPNff3Xo8E/DbyxWpLKCFrjefJ2qsYDwuOkB6bJH2eWePI5wii6yz7L7jggqFENBJXx/XevPPOG/sYc4nhwUgpz46binliuJBjaexBDpO/jKhd151ihBuIYTeRSLwV9CdzSWrRdNNN9xZDd6I50LIEzyKqxKl4emGZV111VTTA/trXvhaDjVIuB+6oo46K5uXe8xkvmso/jUp5d3D84ql7/R//qJ568snwDiJyhxxySIR3CvmTc4YEIJby6OTT8f7I8RMWiPQIv0R8xissoFzd7n/XsBf32fWPNcHrC8i3AjcXXXRR56bypkI88vd8rtIpA4FnutZaawVx73pd/qY4bL/99vE9CkZieDBSBhHHbeaxmWgdlLE0UmM10X8wLGqB0zi3rUc8DQzASfASicGDjHt/TeoUKlHEkC6UaC60rFZTKhVSwPU0k0+1wQYbhNWOR09xkxNOOCFi7hGxnXbaKax2/SFavHUqL+qLd8kll1TfP+yw6iu77hq5c8ibcvs8PcIuVb5E6r79rW9Vm226aTX3XHNFSGC7LfCu2WJaSs2CeyAchkervJdIDBYj5RkpxpxEYqgoY2mkxmqi/xChI5qmcS3mZbAe2caz0TWRGA0oUEfnYzTpy2mSGH20JMGTcydXiudOEQx961TFIbz1IlPN0efy35AwOW88eCx2PREvRFB4pUIp8q6OOOKIKMZh03KBp1Bitnw6ZFG1HRUU/Vs+1/QzzDDBU1X/RjsO9A998IPhrSrtKMC9togKSx3NxZSwkWe54YYbBvFvlepOid4xUkYTxx2pYyfaCzmWmgdy7BQ348krazIvgzD7RkNkIpEYPMytjFpoTvSL4LFGqhyI5AiFPOuss4Jc6SEnDFJOGo/XaDSyVi1TqKRwuXvuuSeqGCpz6vy0IFDwhAfOe4ppKLiiAAiC0TgAnaucOtek+fWZZ54ZRVKOOeaYuC5EUfVLVkC9MYRbIosbb7RRhOfJx0IgLSDCEoPAtPEAf3d9/RZNvUXcD3C/3Rfhm6NJ8Py+cFFtEBrz5hKJRGIkkZ675oE1R2U/bZKK0ZGR13og0icJXiKRGM/oF8HTyFpPM6RKm4FSav7ggw+OSoM8XMIWn33mmRHrd2bhlA+HTJ533nlB8ijxqmUilxdffHGQMt49RVZ4b7QgEDpYvo/UuRY5c42FUn75y19WP/nJT+LaLrvssiCRqgIplKJ/nZYH8q0+v/rq1fwLLBCEMd3RbweLKWJt8SwWnbEI0WSl5W1daqmlqtlnnz0suInWx0gpz46binkiMb5gjRbN0ZgfVLx6DLe5hicSifGMPgkeUnR3Te5OPfXUyHfj6UL2FDjRJuD3v/99kCOk76qrr45+c8OtLDkecoeYnX766UEmhQOqhvnwww9HawKeRYVOvvrVr1arrLJKCHEC3Pk7V8ROPzOhm1omCONUCOXAAw+MwimOrYqiypd77713ENhdd901+uQJ74wFIS1+vQKZU8BGSGSxmLKiZr5DYjgwUiEgjptFVhLDAWOpbImxhTmN0DHWFoJnHfdvBsd8RolEYjyjV62GN06Y4k+PPjq8YwiUgiI8aIqPqDSomIlQSAVJeMLsJ/RxOKGginDM/fffPwqoCMtUhh6xcz4IhXYEvG1yr8IyV5NClTSdv9BN+6l8qYqmwihXXnllhG+odIjknXjCCdURhx9ebbbZZlH2lZeukJRE/2DRFP6imE3x4rmHox2imRifGEkPXhZZSQwHylgaqbGa6D8KwdOEmScPobPmlz6liUQiMZ7Ro5RD7ni8zjjjjCBVPDOqVK64wgqRe+bfysUvs8wyQZoUG3n66aerP//5z9F0vL+wEPKwKXDi+zxpzzzzTIRdOgfhko7361//OqpmCr1D3K644oroScdbJyRTXzuheL532223Vb/57W+rww47LEihginnnntu9dRTT0VVLaTuK1/5SmxaG/DSzTX33NVUU08dxMSikBa+gQOx9gyUoEbqePRYTFlPc0FNDBUjNR8dN+d6YjiQY6m5wLAo2keqhvXI+iQiJ59RItE96ON6AGsHJjrvhhtu6PhkAqRHqVVBr1bk0P6J5kSPWrdcNuGPPHIUdIVGVCScYsopwytDQCJBvGdy3ZAm3htk8Oqrr+5XwRVhl8gcUigE1KApuXDCJoViKuIiT87fzuOFF16oHnvssfht1TFXX331SKI2IPUt0xqBV1ERGDmDPIusd4p/COkUgrn55ptH0RTkFFnlrSshHInBw5iwiPL0GguIMsKcuQ6JRKIdkJ675gKCh9AhdkiedAHFwJLgJRLdo+jlqsnTqbUha0SJiuM0oYuPVN2NxNDRI8GTs3bvvfcGQ6ewI3GTTz55x6f/A0FJkdcqAFniQbvpppvitbewJ2GXSNkf//jH8BIaMH/5y1/CM4fUCQOV76eRuFBQxA6x5OUjtIVoaj793HPPxTHsJ0RUBUzH4REUmqFQimqKwje1NVhzzTWD7CEgKmqlZ2l4YTzw7iLdFlSevERiODBSyrPjpmKeSIw/MARbi4Rm6l1bjLlJ8BKJ7mEt5OBRY0PUm4i5RuAG9HCf0eNz7Wxe9MhuhEYieIjSHHPMEWSpJ08MYUloIlwUeqGT2g/0RPD+W7//aP05EieMUiioPnYKm/DgfeMb34ju+EIzFU9xPITxb3/7W7XgggtGdURWBnl12223XRRL0brBgBMeqE+dgjA+3+2rX61WW3XVuAbl81OwjzyMFWExDAI8vHnPE8OBkRpHjpuGnsRwwFgqW2LsgeDRSaxF0jOQvXw2iUSiHdCjVqOvHGIl1FJ4Ay9dXyBIeW2weuy/pzDNV+XQXXllhF0qaPL1r389QiZ55ZAD5G6LLbaodtttt/hcjC9yKZ/Ld4488sggbwqlCLdYd911o5WBmGEFVLRIkB8oPPA9732vVbfjlxOjAWGawmJKsZVcUBPDgZH04I1IkRXn27D5ncatJeA8W+Vcu0M5/1G6hjKWWub5tgEYbxC7mWeeOSJ30piTSCTaAT1KOu0OJFMiVzxfwhn7AhIojNJ3b7755vCydQcxvbxzFkHkTAgoosYLiBw4Ds/PIjXR+9znPhe9zBDGEu9LUCOE3/72t8PrJ/RSkRfePcQCqXAspDDJxejDPUfUheymBy8xXBipceS4IzZGG47rN8gkCmbLzAnn2XGujffJa0tch/MrW73elHMeqfMeyWMnBg/VtUXxWI8SicTwQs4evqD+hpDOrgZT/+Yw8vntt98eEYKJkcc7Jp544k5To3DMAsVVFCNBrIQ/aoXQF2655ZboL6doCuKGgPHodYXcOgmaPttnn33CQ9iTVY2XTm6doiuIHkEtDBOB0MD0I/Ux3tEGFrliGYZWUKyQeEV6EG3Nz3t6volEVxjbiiGQDww+cnWPPvroKJjEmLP00kt37Dl0MELJ+T3ttNMirNxC9X/f+U5U561PpGOvQaLBi3P3PfeEzJNvLCdYCLNrayXIbXYN5rYoCwWrRG20zNwmQ+vNNYguMY6+sOaaQ3/OHXBMRki9WCk5ZLaoFJEoxvNw3CfHlHd+1FFHRX684maMncMFx2fUdf7jqXiCytquiwEY0UskEt0D+aLLb7zxxmEQ2WGHHYILFBx//PFRCBFf0GJMypScPLUwrA3WTjU5OGqs5WSKiEA9rFXCn3vuuasVV1wx9P6xxuWXXx78Qu0PPb1V6W91NN7XHgmePnf6xlGuKCUIXl+kgtcOwXOzNtpoo2rPPfeMsMqusDhdd911QdYUPylVObuDpuqULz3vhGtSjFwA5cjAaRdQHixQ4NqbvTKlXoiScZ1nevESAwFFWMVeihjPfiF4qndtu+22w07wyDoy5tFHHx0ZglcfRx9PVcl++tOfxnWRi61m9HB/LOAKXilYYaEW2dFKc9uaYRwxEqqqnATvrTAfXANrvEicEQldHgNQWoVpeh4ihhKJRPcYDMHzNyeMYon0eoZYDhi6PVlI5nL40AfJLFt/ogJHGm1L8LhS5cZ5VZlSOwIJy70BaVM0RfilQfHFL34xWhR0hfw5+xC2BkJvBI9CgfnruaESlgqajftaNC1C5T0L4Hh8D7lTaMZ7QmZL4/CR/t3BvteIkfqNfG98vmds83KpgMviPhoePDKGx3lYCV4DEDytYA466KC4XtdZrrlVwKNT8qqL97HVrgFcw7LLLlttvfXWw07whCEVguc5txrBY5Rj8DBO77zzzs7n3eqguyD0cvt5nxOJRPcYDMGjwzMKWeMUT1QTQxszxY0UR2RA9Zme1euss07UZ2gGtC3B089OMRMP02JiIUEsesOf/vSnqF4prPN73/te9M7rLgzJw8b0hfeomCkUqydFQZNFypfwIAVUhmuhbDXccccd1fnnn1/NMMMM0b8vcwkS4xVkAdnAoEN+tLQHr+MYCJ5ICP05LYiurdm98EUmIxVAFlsXhN4g36XcfKPsLvs2C7peA2jjo1y+ljkj4cHbddddIyTJb7YawXMNoi8Q1XIN4wHuvWgA62Zfekwi0c4YDMGzJvgePX3vvfcOAud7vOXIE4OR9lkMt1J2msF7B21L8FizKT0HHHBAtccee1QbbrBBNcOMM3Z82g3qheDEX/0qHjw2r2m5cMrulBiKgkEibnf33Xev5pl77gnVLruA14rb9+yzz44Fcr/99ouTb1Qo2gEWXfHNvJiU2w3qZzEeBmIi0RMoZDZzvWVz8BpAGZf7RZYhAAw1yKvro0Q3vkIzvAeN7+s1euGFFwY5VdyqURaXV+jpeGPxXiO8B541ZWSJJZYYEQ+e59uqIZrA88hbW+7XeICxUGTKcDyHRGK8YjAET6QeuWGtFvHHGcGD5/ui9UT3iQhccsklo5JtV9k8Vmhbgvf3v/89Cpx4KBqDIxXL1IrVB7sJubSwPVsrRgcdfHB8R1N0jL0kWXYFJap45eRCfP7znw92z5NH+Dqe+H+J0eecc070t1O0hdKFPLYb3C9EF8GzoAstoiAmEu2A8ULwLHoXXXRRRDfIUygesEJGikLdTO9B+beIDmE2vKsWeNWKuyrLfR1vrN+jhDA+8rQJ1cscvEQikfgfBkvwQIi3aJWDay6AQ4gCAHKQXJy2JlDv7kgvagaMd4LX44ojjIESIsxSaNRll11W3XvffdHh3iIJFpt/vfFG9fd6wbm8vkFCX4RBLLbYYvHALardwT6f/vSnq7nmmiv62qnSScni2TOwrr/++qjiqdqmxUz7A9bWknfWTnCPKZ6KzSC9ChyMp+pmiUR/YS6MBBx3pI7dHSj6Ihts5e9mfa/r+wVymhr3KVtfxxvr93pakxKJRCIxNHDqcNZII+KYocuTuWussUY1xeSTNxW5awf0SPCQKVWnJESKl0XwhBixpovRZ6HE9B9/4onquvohnnDCCcHeWUXF2PYGC61Kcjx3quXx5PH4id1VaUdenmqcSqr6XOPyj7Vp7h0yx3PBKoJcs5okwUu0I0ZKOXfcdpQtieGHsVS2RCKRaCeQeyJTOHkUWMEdpppqqqi4/L76/cTooketxoMSDsnTpoKmv0855ZQgYcgYAnbIIYdEjh43rXBKrtqVVlopcu/6gvwTTF8rhn333TfcwXpnzDjjjDE4hCEie0JQDJT6hDq+2V5AmnlQbYgdcp0EL9GOGEkPXolKSCSGgjKWRtMjnEgkEs0Ack9YpsJlTzzxRPyteJnovNc7wjUTo4dezdas2kI1VUxDwIRKKr4ifBLZ49FT3RH50xJhrbXWimbk/cmTK0xfPyU5e6uvtlr8huPooec3hXDKXeirPcN4Bje3VhEmC8WB11SuRyLRbhgpr4jjjtSxE+2FHEuJRKJdwSGBEyB46kQoqiJiT80NOqyc98Tooc+4JIsVr9oKK6wQoZLCKuXlzTPPPEHMvK+3hR4z3LADrXLp4avKNn09GOacc85IxhS+KdkRufR5O+Pee++NPiKIHYKXIZqJRCLRnEjPXSKRaEeUKsJqajz77LPV4osvHs6a+eabr7r55puryy6/PBwWGS0zeuhX4ol8PISrNIdVVUcp6J133jlCLFXYVJAFIRuK9dJ3eQ3TAjpBUdAmQolZRVb82wTKIiuJdsVIKc+Om4p5IpFIJBIDh/WTbkpfVSladXyFEUXiLbfccuHE0fuad0/9jsTooN+VBZAueXNKZMudW2SRRcJjJ4FyqMQu8XYgc8rMmhCsHsDy8fLLLyfBS7QlRkrGFMNS4u2wcJM7ZSsgn2xJjN8KY6lsiUQi0Q4QennnnXdGNXz6qbodmp1LsRKVp5aGQoGq5heHRWLkkVpNk4L37q677oq+SsXiYVKopGmjXCUS7YSRWhQKiUm8Fe4J2fPkk0/GosxCSy5JnJdPIXle6xbvJSagjKVUYBKJRLuAE+Kqq66Kdl5rrrlmVNMvfVLV2ZDaxaunbcLVV1/d2R8vMbJIgteEoBxQrMQtU66KAuV91hGTI5NVE+2GkfTgpcfl7WBIYnXVVHu//farLrjggiiyZRFXPVn1Y2E3JcIgkWMpkUi0NhQ1VLl+7bXXrlZdddVq5pln7vhkAvxb6CXSJnXL/vTSKaaYolp66aWD4GmQXoojSvFC8qRyqcqvTkcaBUcHSfCaECzAiqqwdGj03tVbp1IR5SuRSCRGCqyvZM1NN91UXXjhhdEKh8cOoZNncf7550eEQXo//4f03CUSiVYGQoasIWTImpSsRvj3aqutFgRQSzREDmnjtROaqUiiCvkFDF7SuxRdWWWVVSK1y78TI48keE0I3rmnn346FCt97xpBgaB0pQUk0W4YKeXZcVMxfzss9BNNNFFsDE4iB1hqySe5wKIMhOFY3BOJRCLR+lC5fuKJJw7CpgImstcI3j1V9Oeff/6Q//afbLLJgtjJt9PcvGsUA2Oh7/lcbt4HP/jBjk8SI4kkeE0IpE57BHkuXYkca3l68BLtiJEKfXPcLLLydrgnyN1MM830tl6k7pniWhZtykBiAtyXsiUSiUQiMVZIrabJwJOA2F1++eXd5tkVgpcevES7YSQ9eBlm2D0+9KEPhcWVN68RrLaS5pW/TnL8P5SxlB7hRCKRSIwlcmVuMpQQKAqV+GZWcn+/733vC7e2V6FSSfAS7YaR8oqkx6VnIHiIXNecCQSPZ4+HL/E/5FhKJBKJ1sAMM8xQrbPOOtXuu+8+LlMNkuA1GSgHKg6tuOKK0VR+9tlnj3+LXV5rrbWiqpFB2ZjEmkgkEiMBBiXyh6eu0YvnbwSPASrxP6TnLpFIJFoDUgwWW2yxKBozHvMCk+A1GeS6KD2L4G200UahRE0//fTVsssuW2233XaxLbroopHcmki0E0YyRDPRPXjqeOnIpLIAes/f5BIPXyKRSCQSrQaRKYyXiJ51bbwhCV6TQqimRsJ///vfq49+9KNRzWiRRRaJPiO8elm5LtFuGKnQtwyr6xnui0VQmGYJx+S9UzWNZy8jCd6KMpZyPCUSiURiLJEEr0khD++RRx6JcuS8dZ/4xCfGpYUhkegvRtKDl0VWukcheDPOOGNnOKYoA1ZPJC/7Gb0VZSylVziRSCQSY4kkeE0IyoEeU9dff30UVJl66qkjRCqRaGeMlFckPS69g2FJwSekDrlD6vRGEtYiRy/xP+RYSiQSiUQzIAleE0J4ptDMq666KkKg5LpQphKJRGK0geBNNdVUEUmA3GlkO91000X/u4wqeCvSc5dIJBKJZkASvCaEPncPPPBAdeedd4bnTqGVLGaQaHeMlPKcSnnv0OdOvp2QzNKuhUxC9tJblUgkEolE8yEJXpOBsvnUU09V11xzTfXPf/6zmn/++cODl4pUot0xUnMg51bvQPA+/vGPB8ETUcDYNPPMM7+lbUJiAoylsiUSiUQiMVZIgtdkeP3118N7d91110Xey2yzzRaKVSLR7hhJD1568XoGsqKCpkJPwjT9/alPfSoJXjcwjrLISiKRSCTGGknwmgzPPPNM9de//rX629/+Vi2wwALR1DzDMxOJkfXgpceld/DiycOTe8ebh+h5L/FW5FhKJBKJRDMgV+gmw3333VfddNNNUWhFc3NKVZYiTyQSYw0RBTx3ZJJCK0lk3o703CUSiUSiGZAEr4mgNcJtt90WHjzFVRZffPEIz0xFKpEY2RDNRN9A7ISMywkWnplyKZFIJBKNsJ5KNXrllVeql1566W2b97X/4sTorf/sG2+8EX2g7d+MfWqdU9fz0r9akUTn7frGWrdIgtckMBCEZd5+++1RXOWzn/lMNW1N8rLPVCIxASNFKJKo9A/CMnnwZpllliR4PcA9KVsikUi0G5Cehx56qLr11lurG2+88W2b90WqKSaIDCFC3eHpp5+ubr755tCJkb1mAV3d+Th3WyO0N7vrrrviGpuBmCbBawKUAXPZZZdFgRXeuyWXWqp617vf3bFHIpEYKWuY447UsccTPvzhDwfBm3POObP/XQ8wjizqOZ4SiUQ7gi77i1/8otppp52qjTfe+G3bFltsUe24447VvvvuW5122mnVI4880i0RuuCCC6ovf/nL1W677VY9++yzHe+OLch1XjppVBdffHF1ww03dHwyAXpX77333tU222wTbc54MscSSfCaAAbM/fffX11yySUxIBRXmWeeeVKJGmlQwlIRa0p0VZC7U5iHpEQ3PPuuHhfvDuHIE1Afe7wp+VokTDnFFNVUn/hExzutAc+h8VmMyHNxzHprCu+dcxljy3EikWhPkK8vvvhieOjotpNPPnnkb5ftox/9aCdJOvroo6tf/epX4fHq6slTrXnqqaeO6s3vbhJnh3N0rj//+c+rc845p3riiSc6PpkAPWL1jHXe1suxXguS4I0xTAZu3r/85S/V3XffHRPgs5/9bPWxj30sq9SNBsZaGUsMDZTZYcSYK+dNDAan93/gA9UH6kUs0Q3qsVPIYyF6YzaechwnEokxhpztzTbbLLx5Zdt2223Dk7fkkktGLt4f//jH6k9/+lP1+OOPd3xrAuabb77whPk+stcM4Gl88skng+SJtuvqoZO+sP7664fnUSTeWBdITAYxxqAQlN53k0wySbXIIovEwG4Wi8W4RipBTYv+KMZDUp59t+P7jR6dtxyzvD8YElkfZ8yU+8Rb4DnEs2ggX2+Dz8o2GPTwrI2txvE1KnAuPZxPIpFIjBZmnnnmao011nhLiOamm25abb755tVWW21Vff7znw9v35///Ofw6DXKytlnn71ab731Yp9mahWG5P373//uNqxUW7OVV165WmeddcJzOdZ6fBK8MYYBjeUjdhtuuGG11FJLhfcukRgvMMYJQ+ENBONgFF5Kue/Fdxu/P0RFtpxL4+t/63ONf5djD/Y3HKNji+P6O9EU8Cw6F2jPxTMu22DR5fn2pggMGDl2EonEOIC1HGHj3ePN4/W65557ogZFY+VJxQaRP5U3yVAbj59/qzgvzNOrYiacJI1y1t8+L/s3fqenddj78gftZ3+VMB236CyO6TOb92z+do7Otfym7/l+47V4tb/9fF6uy7/L8Qv87Tiuy+ac7ONcfLfxvPrCu973vvft2/F3tddee3X8lRgtCMNUKVPpcQNevHFWzkyMFxShKElaCIa/CXiWrf6GIBOEt9xyS4RGzD///NUMM85YvbMo4wTjYJXy+rv/rIWnKl3XX399nOszzzwTlkPzcchWw45z/E/9Ow8//HBcg4Ty5ZdfPpqFp5d+9OFZeA6PPfZYPN9555svxmG3Xr0BwoL73HPPRW6GY1qY/cZCCy0U0Rmd430wY7Zhf0rLNddcU73wwgsxVm2JRCLRDEBOFCBB2njwOC1UYO4KMlfOGr3gwQcfDNLyuc99LnqskpXk6He+853q0ksvrT7zmc8EsTnllFOqH/3oR7GeynE7/fTTq9/97ndRvVIbH7qz49I3hFGef/75UfBFwRZ1LhxX67H31GvvO4o8roFU0TOuvfbaOOaJJ55Y/eEPf4jfFB5qs2accMIJ1fHHHx/pVH7Tq/Qqa7k1XZVQ53fSSSdVc8wxR/WRj3wkKk5bC+gvruVnP/tZnBNC61753H0o4Zzeo4/84Ac/iH2sK9IjLrroouqoo46KcFay37EVPuu6fh144IEdfyXBawp4QB6uAZvlx5sfLDN6FRIALCyEV9dYa/tQJE1+k5VwmWKKKbptEE24XXfddVFeV9w2QXPllVdGhSbKHMHVDCDsKJaEjvMiXIzZnsA6JeyCkCU0f/vb31ZXXHFFlFB2DwhE470v+C0CnfCdsSZ3wiAIxCGRO6i/S1C610ienABJ0xNPPHHc8ygm4vhD/B0Ll2fpdxx7ueWWi0UmiyiNPizqFloVzlhR9Ro1d4dD5pq3+phaiEulUXLAQs9wF8/bWIJB/p7FnhHizDPPDGVGOP8nP/nJjk8TYwlK3B133BHy0ThA6snHnOeJdkJ/CR7QfRE8RIl+YQ22L8KEyKiySa6uu+66cVw6l2P7m7HUv801UJwQ6XG88847LwqhlM+1ZfAb9957b+hs1nc6hLlZDHN+CzHzHeuD73hllHZcBuDf//73ocM4J/PdK6I311xzVbPOOmsc32/T5VZZZZXQ+RzfcRSTQVDpUI6tLVr5HVF7is+Q6a6NHCHjFarxfd/5zW9+EwTSb9joRLyf9LBGY3ESvCYEBaNsieYGa8/1NSE7sZ6wlEUVTynujc+OsDIhCQ3EhJBZeOGFYxJ3XfBZdVirEL1ll102FDjfvfzyy4MQ8gA0A1jFzj333DhXQoWXixLTFe4Pxfbqq6+O6xBfTxj7PkFKsPkbuZtpppl6HvcdyjDBSpgiSfbzm8jhe5HDQc4X56i4EWJNYDu+eH+9d0qy99Q12XadcW6D+Z36N/5V3wfCWCK5V4ud51ksb4nRhWfJ8GBhNd/kScRYqkneUJ4HI4TnSzkgE8xj3rvS62m66aarPlQrFLEQD3LMFnJnzCKR5InQftcwXHDulAnjldWaEtTVCGMuM1yxijNeFSMXWdUI75N9DBuUINXl9LVyjxjIzOPO+TXGIJeOO+64kDFIGcVsoDCeKGUMWZS2ueeeO+R9V+NfIjGeMRCCZ+5bcxlYGVfnnXfeMOCaM9Zl3jnyR6EV8s979CLrN6MZ45bWPV7NN+s42UjGmNOMa9ZbnyFRjHrIE8JmjpM/zz//fMgoXjUGX8f79Kc/Ha/Ojb7ifEKG1zLd9ZHD5CP5u+qqq8b+9CHXTN8h95FSMs+6cNZZZ4WhG4FzPosuumjoPoy/pc+fe2R/QEZdA12EvkhW+n2GQ3KWDCZj6J6FrBY0ErzUMBKJAcKEe71WEk1cgowgQUIaQVBQFihCrC4sPzxXJnQjfA/50z9FCAAFkMXIBOf9YqVpFlCMeSIpdd1dS4FrYtk6++yzwwpHeC2xxBIh8FZYYYUQloQgrx6B2/XeBTrIHRBowtCEZ7ofBB/v6Av1d1+tlUj3i4L9ts37jVv9nn0pnhRO12ExIMTnn2++WAycJ4Uc6da2xDN5qSbrPf6GrfE36s2+juEeeI6evUWFABdqYnFJq/4ooWEcFVgQLd5wxhlnBGFCbIyLgY4l2/P1WEIYy1znVaOoWMgpEeYAOXFfPXeM2X7/Rr2V33Bu5hwFx3gq3jtVl4cT5oL5JTzIb5mfjaBYudZf/vKX0cfqgAMOCCPWk7Vy1nUeOxaDkFLo5js5cGV9zB//+MdhXXc93c79MQCDk2s56KCDQm4PFK6jEG/3zziwBlBKE4lEz7C+I3GM4owkCFRvMNcYkJEkVTn33HPPau21146oGKTnwgsvDJ1MsZOvf/3rIadsu+++e7XSSiuFXGKc8lt0GGu87yBnZLZj7rPPPtHPTkVMazldwfkp+EKP0QYB4frCF74Q+xXPY1fQmcgFv0f+Od4ee+xR7bffftU3v/nNasstt4z1iHy00UsaQYcgc13LN77xjTgveYsLLrhgkMgiZ3pCErxEYhBgmWWBYXUyCQmcRhAilDJWHmGXJmlRIhtRBIzJT+kk7Frds+NaXCvhwzuicta3v/3tEITf+ta3oooWaxoCizASgm8Dq37H9u5a+Nufpcz9pEiLkedpuL0mTrwB3W41uXrL1vE+Qk15FQvPw+D5CKf4aL1AyAFgFfNcTz755FBQnaeQi7ccu3Hr5ncowTfW3zvhhBOC6BofLJlCKtKiP4po9A51/M0ayuLKYGCMstwi88ZFj8+5m2eMvCPuV151VZAcnm0wTj1ni7CWN6zUxqvPjVlj423Ht3X9jXrzG87Jufm+8WQ8rr766mH0aLTcDgdYtBkgzGHXRqkhuwr8jZixLFN8yC9K1fO1ktFVBpIB9nUMEQ7yXt6sCY/5bmsm8uO6kGzXM9DzonC6F8YQeZZIJAYGc8jc4xnra/7xsNO9EDxePDoGwkVvIid53JAvpGiG6acPY5g1l4dtscUWC28eGWw/hIr+ZR3wufQJ6wKyyJuGwAn9ZJC1r+Mgo37L5t+9pVYhX2S461pmmWWqtdZaK0I5yVjGOYRTxU3XbA149NFHO745AQyESKd1xHU6r7KuIMLOmweyJyTBSyQGAUSD5YVSY4JRDhpRioIIN6DYA6FiojeChdx3TXj7jhcQdsLUWKwII6ENBKJX3g0KMGKMaPFQvA2Uyo6N2CRACVrWK0LXffza175Wbb311rFtt9121fbbb9/r5rv29YpoUjKd3xabbx4x9PKzWOG22GKL2J+A531g0dPXxvf8TnndYYcdOo/b+Ds+07/H58JJeFqUhCbcMzRz7GGxnn222apNNt642nnnnWNsHXnkkW8ZH/0dT56r1AZz23j3t7Ad89lYMvdZXuX6CXtkUTaWyvjwO2VzvK6/7e9yTkL/LPjG44YbbBCGicbci+EAImbcO39WcHOzeNmQIEoFb5e/KVVklnlMjnU11Pg+4sMYZg4w1IxHuEfC0SlyZHkacBKJkQN5zUhHB2uUf0gSrxwjOtImckIaDeOareTX0deQNWGONroEI5T8foSxhJpbJ8hYXv0jjjgiCONAIeKIp835IqSN679XBjrvk5HOo2vEFnlM5junQiARSnoUuexaevN4Zg5eIjEImFgWdBZ53gDCwWSk+CB9wg9ZiFhrTGDWcBOzVGgsIXosvkKuCCcWHmGCvH+swV4RD4ojBYpQIrxM9J6UiGJNplxRxJwLIUiYdGdhKkqb4yOkhWyV7zTCNSsgwNLEyoVwddfSw/cIJPfE9TZWhnUOrFq8EO6JGH0KMcH3FjjXhs333l3fM4onxdL3VJ31XblIrFwsW71tZR/f8cxY6zyb6aebrlOoq875ofpcCFW/4fn5nu94Lcfw6vobj9u4OSfHXnrppUPJ9xy7y79sVvDgGG82MN4ax4/xakEqYWg+7zpemhmeg0VSIR1VWUsIcBlL3T3TrlvZz1jynBkyeOHLIm4z7j13FmWf8Q77jt/p7pi2rr/t38aScWRboD5P1tzhJndAfrAiCyty/izeCJ/75TOKkPBMHjwWaHORh7HkzpCBBbzjwh0pYnphuQ/kJeMXWUjeOUYzjBuykkffPSUXzO3+oMwDucbkfWPO4mqrrRbX51oTiXYBfaK/OXiAlJE31hokiofNnGE0kSpBTsvBI3/ID3qDdXnFFVcM2VLWJcYV4d/0MrqTV8clh8pG7/B7dBnHcF5IHuOb3yXL6SvlmGST3yfTrXHmO51NFBGZSE5YNwpKuo11kfHYb/m3eyLqgk5U5EMBHU0IJ/2LvCBzRUX4DesH3cNvlHOyNrs20UXyr3kBrS8FmYOXSAwRCAEliwDQpJ5wQpYKwbLoEwxCCQg5pI6lm2BptHQTAL5LeCAvXYFwIVRyhY455pgoBCDPw3cIm4JCLAkYE//YY48NqxNljLBl0WrcH5yrUESx3yo8Ke/LY+W3KGaEkuMOFAQfRY9CywLmPjSC8HMv3EPJ0T2R1e5A0BKSPCI8ebY111wzYuP7s9m3fIdC7rl8sMv5va8+H4o/5dp31urYn5Lq3+W1p83n9uexswhR6hHhViF3YLG0MBk/FtlGD7VxZnwbJ4pKUPC7jq2mR71YWjwt5hZQIbpdn3N/Ns/YeELwjPdOhaNj3iAMrLeS4z9XE4c162Pbv7vf8F5375cxaywtWCsUCNdIkSJz0Xx13oieuVosxOSFeUuW2AfxpHiQdwifzxpBYUEIkR6KVKOBAMgW3zV+5LhQWvy7J5lDFlKujEuef+Gf/3y9+zxgcN6Im2NTlshGhq/hhLAyCiLDF1nHQNed0SuRSHQPa4u5Wtb2rgSoO5AlZGCjTCGfyBxzkv7B+ES+N27We8YoOXN+i5xjNCdbHM8a3VVODQXkp+M7Ntna9dj+bR3yuf3oh43wftfrHAiS4CUSgwBhJETTK4XHxCwky98mNsWGUEEEeYQoQNz1lB4gkJBDwgW5E1/dCESQkiUBmCItz+eEE06ITdUnXjfH8LuOQUGidP/617+uTj311Ajp8mp/SrpjOT8o5I5iYn/5ZqzQPI/InleWMkLHvkOB33Qcv8eqR+GiaPHAKWrSlQB2C0pfh5AjhJFDHoGP2WqFqs+ty77utWN0kq4iQL3Wm3BNgnfSWjn/aONxetq6nkvH355rd4K9FUBx5V02Fjy7ougbv7wwxgxDgLHekvCc6421GAmL59z4DPvaOvY1lgopCnRDUHyG/E3W2/F7+qx+31intLy3HpNljI4EnKff8XslfInCBEg8yzhZQ64heIwX7mGRgQVkBo+WsUJGNlrawVhybHJJ6XB5kGQVqz251mgwsC/ZJdyZDORpY8DyNws9mVrkWoFzQeiULGekYBwTpmU831vLINc0VLlG7iKQKoMquMUDIPR8uPMiE4nxijKHyAlr5VDCzskXa7r5J0KihMH3tIkgQAKtz0ilcyn6VIF/kyUlXH2gsLY4vmOSUY3Hhsb36Rv90oUGgCR4icQgQJAgbcgbBYTCQCkpygilg6Ci/FGYKGqUICTMZwQHAkdhMql5+RDGRlB0lNAVS074CfPzSqn+6U9/GgoY4WBzbEoSkkZxEnJGgHHdU3TEn1NuEC1wvpQr5I7i5Px4IeTK+Ayp/MlPfhJKmpCAocBv8kLyLMp1QiAdk7eC14Ng6xM9KbT9VXTt19e+3X0+2OP393tNCuMM+eYpZUwoITTGLbLnWVr0hA8La7GItSS6PqeBPLee9vV+d5/1dezejjdKYC0m0xA385byVRQbso08YHHnkSNbyEByjlwzLigqNvsKMyLjHI+8bCR4jF3InKpwZBkjFNmgkiWZV37TsRgQyDX7qu7pbwYv+37vwAMjvKqRXJLDZKRwLYWdyBvjFcnznWNqcijXZahyjdzlUZTXQ6l0z3hXE4lEP1DPbXOQbkBnIUsYjgZL8BhrGY3pXDx11qau0RDCplXy9hkdCcEzZ33HuZBbZA54pQsJ7RQxMJiK5s7D8ckKcqyrUclv0PP8rnNhIBpOJMFLJAYBFh9WadZpE5TCYpJSaCz6JjPCJgyAsizcz76UJvsW4cFyRTA5FiWoEYQBRWrzzTePsrr7779/9cUvfjEUK6EIFG5Cye+LLaf4UDJ222236uCDD47kYK+KNTgvoZg8aH6bolYUI1Uu7Ve+oyiEEAYkj6Lkd4YCwpsSpCzw8ccfH4ogQYYYyHlLNCeMM/kAXoUFGzvGHQXcgifEtRgdEuMHyAplA9kjn8gpeL0mdldfdVW8R17x8nn25BaZx+BEziBYyL+/jZ3ulBYhnYwGQmMVPNpxxx0jvBEpRPxKuCfZplKc0HQEcYMNNqi++93vBlHbYostwrCluqjzqgVbfIdsKz36eBkRQ7Ltq1/9aoSE663FK/1sLZeGAuRXeKnrlrcnHL+rDE8kEt2DnHiglhvWE6ROuDcdidwZDOhRDMbkFx1DdFSRCUDvsX7Rk77zne+E4ZxsY9xmhCdzGJaQMSjGTNECjOeI6EDBIylPznHJyEYCCW/W//Y+vVAUCZI7nEiCl0gMAgQSQWJBJzQs9hQahIuCQUggeDb78Yzx1PHe2b9YdAgQgo5g65qMT4mikCiwIPmWNQhhJAiKQiVnBQFjQXdcCc1yiop13XckLrOi2z+EXg2KlBwW71OyeBDtT7ET3sB747iEWqN1fDBwXQQdQocU+M1Snl5vsKFa0hMjA2MSgeNpRfQZBHhCLIy8rsaNcTbYBTnRnDBfKT0IFXlF8SGvXqqJ3UMPPxxWdmSG1ZuMIivIuGLoIs9EJpjXZJVjdQWFikK34YYbxvhSkKD0oDTWkEi/KUeZcYGyJd9RixX7y0tUXZQl3m9dfsUV0aqBDDY+hUyy5gvT8j0FDhiy9LAyZo3j+2tZiLQOFkLYkVT3yXHJ+sF6HxKJdoF5zQB00803V0cfc0zoJPQPRvChrCXmHgM3/QJpROTuqeUAEuc3GZp546QWqHpMTjFQkWeIIZ1I6gHjEzniHBmm6UnWwq4RVshaOXZP4L0jK12XcHFRU2Sq79L/rq9lnegq8o5uR88bTuTKnEgMAqxFJr3Ja3ISHqwwwpdYdVlpCBoeOOFrJq79WZwJDILBd/ybsmzfrmFuFC3vT1kTLx5DnyOJ9qdM+V2CAgEjJClUBBuLtkbCxfKkyIqwUb916623xrnZHylFMHn25KnYn6WcYKRkOZ78EgrUUOAeLFKTxu06ysDr+0I5FPrXXcGYRHPAgmmBYjSgpCtuEYvmPfcEUWe0SO/d+AM5Y86SMwgWhYTCY56SBcaCcYHU2YcRgKzy2VNPPhn7kkPkIQLY3RhxfONHJTuy0StZSuaQn77rb8oWZcxxEDPfoyzZHFflTgoWeUa++Z79yUeWc8cupIsxroSB2Z8hDmkdDMheMtJxeB6R1Ylq+Z5IJP4HhmeESnh02RRys8mlZTRkhOYBZ5AZCsxzxaxEH5nrUlLoNI2/fdppp8U5IXSM2eSKV+kp5AhdiQ5kX99V08CxEEfyhzFH5AL9hTELYaNjiaAiE7qCjERcP/OZz4R8RObK9fsNepfvChdlyE8PXiLRBDDRETYVmRAmyk8hXZQbRIwgIByQQRZrk9fnyBbhYMIjZxSmEhLVCN+jQCF3fs9WlJtGOAZFzHkIPTr00EMjhKlswpMQO4SScAP7syDJz1M9s3F/ZXbl5iFdPHiubShwn4Rp8SSutuqqYbVHGhwfwUMyEdVE84HiTvHWAN74QfiNS828KdD9qXiWaC14pjxvnq+oAHIKcfI3WUCWIVcUKlvxXCFjPHz/eO21kDcIGkLmWF1B8fE9Mg2MM7KSTPA7vssIxopOPghxYn3neSPjyoYMkmOMVSzw/vZ9MlHOjHBMRomyP2OWzxniELzBRCeQs36LBw8olK7xXR1EMpFITAA5IJe/6BbCqw8//PAgfUKx6T686wgeY/ZQQC8SKSSyBGHz7/PPPz+qiR922GGRi0v/YZChiyCWjFl+VySACCNrHHnhHBnJGY0QNKkK9DlrH6MRoxaZh+A5NmM12dMV5BtyyKgtssrvS1M55JBDqqOOOiruAeIoP9BvZJGVRKJJgHyVIiGIG2XERnEQWsnKTSCY5PYhWCgCZV/KEqsRi7KtO4QC1KEE9QSChVcQWM8pLxSixo0CRSlzHhQUyg9CSqHqbn/nRfhSuroSykGh4zreWd8PQpjFimAVakrhoswlmg+ePWVcsRUKP7LOa8KwYSwlxh+KQYoS4+8ir8gMMsu8/ehkk1XvqsdGIXgs4fYhh1559dUgXI5BrnVH8HyPTCoEz2v5u4BconA5Jq8cQ5RevXvuuWfnxnrOo0yWCct0fogmAiYPT95v4/6MXSz7DEqOO1DjFdmJfCpMRW4Jq+K9czyyl9wUTmq/xvf8O5FoB5jHiAovF/3BfCl6hTntM6RH6xdzco2a3CBbXfUM30WqiteeLCrHJW+600vIFfNROPZWW20VpMp3EDk6mXDtPfbYIyJQilwihz5Vf7b77ruH8Zkn0W+Tc0Kv1T2Qy8vw5TfpdQipYzg/12Sum+PWRMf1vnOxv/O1fn7lK1+p1l577ZCJZIJr0PrG+0gpvajIQMdx3UVna4R9vOc3/Jbf6QlJ8BKJQcLEMtlNfMqNHDcKCdJEYHVVbFhqCJtCyIT3UABMYsrQYEF4UcIJE1YhTdK1P+i6UWwoOASE/Z0365kwie721ztKuCdhNpxoVO4ojTwE7kOiOWHx4imhOLNoUp4pt8Z5YvyBHDE/i4eN945c8+yRF+GUUzJI1Z+RISV3xL7kIPlmo8BQksi8wYASRClk/GFcYGFffvnlu9185hyMVefr/Clq3e1bNgS2O/LZGxzfPFBkyD2h1JkPZCj5KiKCV9A5yzMmixmxKLmJRDsA+VDoTXhjdzqF9k08WDvttFN4v7WO6Q7yckX48PbRs0Q57brrrqGTMPQgQN2B/Jp5ppmq9ddbr/re974Xv+c7dCMpIsgaAkdeFfC+i1SR48uQdNZZZ8XvKv7EGE2egO+Qec5b4TvHNe99D3EjV4R4Mi7pWep3gAzURsXxREfJE1YJGMFdZumlw5juvMH9k48shFVlYY3MG+FYq6y8csgWYaTIck9IgpdIDBIsSsXCYtGXkyE8kxLUnWIjRNOEZ92mCIi9tvDzigxWCQIWIknK4HwQSZ7Fzu2Tn6ymqYUjJakIRdYsfxNczqvr/jPVSpv9yzkPBCz+8rWEORCUxbtY4P4gB4QlYuvae7NCJcYOFFqKrNwE49Ri59lZwHhNPMvE+EJRYsgSJKt4xYRKUkLIBeQN/BtJIksYaezHYGPMkI8MSV0t0P0FmeD75JsQ7y9/+cvhkVN1s+tGcRPiRFY5N9ZwyhZFsLv9bYq1IIUDgbFfPJUMdEI+Gc3+7//+LzZKG6MVgivfhiJrH0Q1kWgHkAn0Boaft+gV9UbvYPxG2MgM85uc6A7kCr1GxAh5ZEOEEDHf701neM973xu6hf2chw1BJEvoPIVMNcLx/SbDlt90nvYnvxrJoL/pLOSg4zof1+L7ZA+Z4n2yqPyOV8exH/3MffAb9MQP1sdqvAeOb611HHKsq/HfsSaq33MM+xTy2R2S4CUSg4RJaUKbsJQb+WrChExa7xUlqIDgIBRYd3lEWHYJQvsPVgkCQoMgZE0W400BISScn+3lV16pzjv//Gj0y6rsM/v7HrIpxAkIDvv/q1bqVJ/Sc4oFjbdmIHAeFBqWLTkwGgs3AgF0TEoQAeWeDOX6EyMDz9FYkl8gZ1NRDLl3FkoWSOOdtyQxvkA+UFbIJlBkhbxivEL6Sug2kBmUETKMsUp4OrmG5FDeKCeDNd74DWFIzoMSQ2YtsMACEXZVNkojOUtuUbqcn/0pas6TdVtV4LI/K3oJh3f8gZ5buTeUKwUdzAX/LrLW5wX+7f7YEol2QtEletp83jhXuoPPy/4F5bj9mlP19xuP0d/fbPyN3vYv+zWez1vOuZvvNh7f1tPxG4/T3T59fV6QkieRGCRMLIqHxd5EK5XZWF0s/F29cqxJSB6rOOWY4sTSQyHx/cECUaPosDYJg1C6WyEXoUJ+Q3EC1ZpOPfXUCCcCypLz9DkS5n3KPMKHJPLQfP/7349ck4HmqSBrCC5QCpUCfqRW+JyP3/Ae7yUPkHAJ96Q3K9RIA5EpXkV/JyZAboFxgeQj4QrjCOn1zBB04TbGT96zt6KMpVb2bgr7ZsE2lz1rcxZxa7RWAxlon7IvYmdf4wKRQvwGK9vIBOOO3OQVZGQgQ/5b31djjhxV1vzss8+OcuYKVyF2jEY+dy62Mq+9uhbGCWFSDFsDzf1FCMlruTxyfLpuyyyzTJwv0im0arPNNgtSWghxIpFIjBaS4CUSg0SxoiBWQtkoIJQgVmQLfFGCClizfabXkwpsPFiUJUSwNytMX2CppkQoxXvNNdeE8iI0EjlD3n76058G8UQm5Z34LSFPLNr+Pu2006JYgYpQ4roRQfHzrOeOS0kbCCiHCB7LOaULWTy1/g15K+X4iCjLP0VJG4jBWvmHAxRxih7y6TXDDieAMsxYoGG0JHDjBblD9Cj6xhZjACKYmABEgjff3FZNslXJr/lIXpBtwi3JNe/x4nYNGQKhuww15pDKecgUIxKCNlggjL6PPJKtIgIcW7+7l158MUJGkbtTTjklxihZTJaWaAYh80KLkUNyyLmJYBDJQL4xZg0U7gECp0DElltu+bZN9T7ElmxbYYUVIjeHDB1LA1YikWhPJMFLJAYJ5MiCX8gci7KNkmGB70rwhCz5jIteOJN9Eb4P1Iv/4OldFd+fbdZZqx122CEKC/DYSQCWs/K1r30tFCOhSSo4UcSA4ibcTrlgyhgS6PuSgJU1pvxsv/32keyLQA4E7otrl+OCFLCiS3Zm4fYbypW77g022CA+d1/GEgg3r4OyyDxWSVgmFLgoCrKxgtRRbI13nl+ePCQGYWesaFUiM9xg6OEZUmr72poc+3crgoziDSOvRAOIODCvjQHEqyuKoaqQKDKFYahrmPpAgLAha+SI3+VJFlUg123/Aw6ovv3tb4chi0FJKXPEyt9y7/ybgYIs23///aNEO5moaIH8Z/l6oh7I6UQikRiPeFctrPft+DsSkhOJxMDAws1CLAxHKwTWXZbursSF0kTh4yHyNy+XkB5etUlrJboA4UCKHE/JX8pKgRAlFmkKtd5kPCmFTCJiFCKWd1Z2v8+Lhtg5J5ZkxIqi5vcpZEJJVcXz6n1KDwVpvfXWixAjVnkKnc8QH8oe5Q0xK20fuoP9nZdEYt5CCppzFM7KG6QvjEpUlECtE8YS8sjkGPEGKP/Pa9DuFnfjDHETRqtHkDLPnqdxg+QZX/YxNjxbpM/77Q7z21hCfJEbc6SroadV4FlfeOGFQVh5Jc0LsoSM6SrbyDTEjoetGEh4rxicGq9f8SVhleYX2Sec0u+A8WYOGlMq6PnMd401csK9VcTF/eU5JnPJOgRQuXGhk+SOc/Md8lN4ubxox/Zd76m4ufnmm4exy799h0FL1TpjWNVgsnIwQB4ZRsyb1VZbrc8iCIlEIjGc0Me4IAleIjEEUA5YjREhXjKW4cammI0opMe+SNWiiy7aaXluVAIoPIgY5Qj5o7gUlJBQnyGRSB0lyHcoK4gaUkUJ810kSr8WJMsxizIFztuxhEAhisidc+e1K+fl2M4bvFJa7ad4QSF/PcHxS4iV47tmyhWyME99r3xWjj2WQKh57ijl7pV76F62M5B4z95YQuaNwULgSiicMc5IQYk1jrqO93ZE8eAJbTU/GAwaCU4rwfNkvOKdQ1TJK2TfvO16TeQKEki+kQ9kIUOOe9AocxgFfLeEiBtD5XPFl5BD30WyymfmIgMCkmecMSr5NxnFyEVekS9lfHq1H/nlXJ2T8esayB7fYfgqBgsQUcHjR2Y6HuI4GLgGMC8cp7t7lUgkEiOFRoL3joknnrgztobVKZFIJNoJlFjk7ogjjqj23nvvUGQptYnEQIGgKPihRD7jiia5Yx2CPBRoBxCFTf773yD1yDyjTiNpAx484ZnmUvHgIXoMQo1GHMVX7Ic8lkJU5XPeNrnCPmOgQsAaIT/WPkKDGSCQOPOUcazr+YAwY8YbEQ/OyXPwHd69rt5mx9ZMvZzXQMPSC5yfe4AwuleuPw0fiURitMCQX5AEL5FItDUoZCrrFYLHi5kELzEYjDeCl0gkEonWQSPBe7vZK5FIJNoMvAhlSyQSiUQikWhlJMFLJBJtDyFoWQkykUgkEonEeEASvEQi0fZIz10ikUgkEonxgiR4iUQiUSNJXiKRSCQSifGAJHiJRKLtUUI0M0wzkUgkEolEqyMJXiKRaHtkkZVEIpFIJBLjBUnwEolE2yO9d4lEIpFIJMYLkuAlEom2R3ruEolEIpFIjBckwUskEokaSfISiUQikUiMByTBSyQSbY8sspJIJBKJRGK8IAleIpFoe2SRlUQikUgkEuMFSfASiUTbI713iUQikUgkxguS4CUSibZHeu4SiUQikUiMFyTBSyQSiRpJ8hKJRCKRSIwHJMFLJBJtjyyykkgkEolEYrwgCV4ikWh7ZJGVRCKRSCQS4wVJ8BKJRNuj3bx3rvXf//539dprr1UvvPBCbK+++mr15ptvphczkUgkEokWRxK8RCLR9mgnzx0S9/TTT1d/+ctfqpNOOqk64ogjqh/+8IfVL3/5y+riiy+uHn300eqf//xnx96JRCKRSCRaDUnwEolEoka7kLznnnuuuuaaa4LQ2X7+859Xv/jFL2Lz94UXXlg9/vjj4eFLJBKJRCLRekiCl0gk2h4lRHO8hyf+5z//qe68887q1FNPrc4+++zqjTfeqGabbbZqrrnmqt7//vcH8fvxj39c3XDDDRG+mUgkEolEovWQBC+RSLQ92qXICoL317/+tbr22muraaaZpvrOd75THX300dXPfvaz6oADDqiWX3756sUXX6zuu+++6plnnun4ViKRSCQSiVZCErxEItH2aAfvXQGv3euvv169613vqiabbLJq8o9/vJpyiimq+eefv9pll12qn/70p9Waa65ZTTH55NXf/va36qCDDqo23HDDaq211opt3XXXrb74xS8GIbzssssi5POxxx6LcM8DDzywuvvuuzt+6X+4//77wzPo80QikUgkEiOLJHiJRKLtMRyeOzlryJPQxldeeSVeecyaCa5zyimnrGacccaonHnOOedUf/jDH6rb77gjzvmTn/xktdxyy1WzzjJL9aEPf7h66aWXquuvv766o/5ccZaJJpqo+tCHPlS95z3viWIsl1xySXXbbbcFybv99tsjxPPvf/97x6/9D37r5ptvrq677rqOd5oLntXLL78clUQVmPEs24XwJxKJRGL8IQleIpFI1BgoyUMEhDM++eST1YMPPhgE5+qrr67+9Kc/xSbXDeFrJrzzne+s5phjjgjFnHTSSavf/e531fEnnFCdUG9nnHFGnDev3Wv/+EenV9N3Zp111mrjjTeudt111/Dybb311tXiiy8e14jUIYJ9eUH7+nysgITzOl566aVBdq+88srqlltuCa+jYjPPP/98eDyb8dwTiUQikegO73rf+963b8ff1V577dXxVyKRSLQHeG8QNERlySWXjNy0D3zgA52EBAHg0fnXv/4Viv4/avLjOzxYiMFNN90UoYrI0rnnnludfvrp1Z///Ofqve99bzXPPPO85VjDvRX0l5za76Mf/Wg17bTTVh/84AfjunjgLr/88jjnq666KkI3p5566iCA8vB85u+VVlqpmm+++apPfOITsc0wwwzVb37zmyC6/kYMee8WXXTR+Nyxy4Yo8QS6f+uvv37H2fSNco1dr3s4N8/117/+dXXMMccEyfU877rrrhgTTz31VHj27IPoeuXJdE3lvArcW5898MADcU+nn376uF+8nYlEIpFIjDQa0yDeMfHEE3euUKzRiUQi0U5AYoQa6ge39957B0GZZJJJQpnnmaLg2xA6xUco/pR4yr/PS3gfbx0F34YgbbLJJtVWW20VeW4jiXe/+93V+973viBm/QFS4hyFZJL5ruvhhx+OyplnnnlmhGB+7Wtfq1ZZZZUgZt/73veqj3zkI9V2220XhKV8/6GHHqq++93vBpFZZpllqrPOOivCMDfaaKNq7rnn7vi1CVDYxbGRJCSqPyjky30dqVDX8hs/+clPqtNOOy0Iu/voniLoSPCHP/zhuCcf//jHq5lmmuktm5BVn9fraPWB97+/+kdNYHkB9RdkLJCr6BiJRCKRSIw0rNUFSfASiURbA8ETmnjYYYdVX/rSl6opppgicrGeeOKJIDjPPvts7MM7RUb6DDkquVpla/TmELKKliy44ILhwRspICKzzz57hEtONdVUHe/2D0iTjVcNSb3nnnuqE088sTrvvPOCmAjJROT233//uH7El3ezkCKFVRDLJZZYIn5bHz0kDjlGeBrhfrmPiyyySL8JHmLHq3rjjTfGd3nIbMNN9jw7VUV53TSAL/BbCCnCZ0P4CtlzfbyaH/vYx4L48VhOVW+T1O/xZP7xj3+sVlxxxWrzzTdPgpdIJBKJUUESvEQikegALxzlXsGRhRdeOEIwebR46bzKsbORj4hNf4DUIUPTTTfdiIboOfanP/3pap111qk+9alPdbzbM5Az1ypcElFSFRMhQ2R45IQq8mSuvfbaQU6QGq0U7r333gjD5I10D9wj/+a5W2CBBeIeareAKCO1QkAbgSwLfXQ/+kvw/AayKfQVmQSkq5FIDwfcB6QMmUdE+wPEGtmbfPLJo2iN6+XRU7wGoTNeeDs9G/cwkUgkEomRRhK8RCKR6ADCosqjUEVKu4qQlH1bIXc8WN4nI5EAIZk8X75bPGGNniVCVv4d8jOSHjyepTnnnDPCAYWF9gXnyMumFQJvFTLn+5qcKyrCCyevbtNNNw0PHu8WD55wVOSXp8r1I1wIzRprrFHNMsss8V05bEJYd9999yA2jUDujjrqqChYMhAPnpxAZJQHbySALLonqnuqFOo5F3T14LlHjSGZ0WKiJniF5PFiegbukX3tY1/HSSQSiURipJEEL5FIJPoAcsOLhJSQjQgRjx4SI1cLyUEMhTeW8vqNOXhy0YR8jnQOHg9Rv3PwakKDNJ1w4onVRRddVK233nrVZz/72Qg3VFgEwXMtu+22W7XqqqvGNTbm4CGtiK5qoZqjyzPUVgExQvAQvT333PNtBE9+H4InzHUgOXju6Ujn4HnOcvAUxyk5eDb3lDdOSCZih8SpJspTKu/Qv3k/3RtELoupJBKJRGIskQQvkUgk+oHi4bEhAjYEjudOWGIhfaWkfilYgiDwbm2zzTYjTvB4iAbiJeINU1Tm0EMPjYIxwFPlGpFFxBRx006BV6trkRXXj9AdeeSRQWqWXnrp8GIdd9xxw0rwwP23jSQ8yx/96EdRAdX5CSMVXoukI3JCUf3NI+f+CM+0uWdlG+gzSCQSiURiuJEEL5FIJIYIRIeHqXjwbGQorx4iKC9LARSeoGYCQvPUk09WV19zTXjzVL50HcjMQgstFOGevFS8Vrfeemu3VTTtL6zx7LPPjn1Vzfztb3877ARvNIDY6mGInHturpVnjueOZ44XT5gtUpdIJBKJRLMiCV4ikUgMM4qXr+TlIQTIXTN6dpBTeYSlmIxz5oVTJMSr8+aZ0vC7K8EDJA+RlcsHvFxy5VqR4IF8SvfEs/LceCbTK5dIJBKJVkISvEQikUj0CSGcctN4sfTFU1ilAMnT801OHkKIvKmWqaLnbLPN1rHXBMhbvOCCC4JUfvOb3+x4N5FIJBKJxHAhCV4ikUgk+oeSA9edN6u7/Lge9it7plcskUgkEonhRyPBe2fHayKRSCQSbwdC1hMpK581bt2hfj9DHhOJRCKRGB0kwUskEolEIpFIJBKJcYIkeIlEIpFIJBKJRCIxTpAEL5FIJBKJRCKRSCTGBarq/wGc4JsKJNRROAAAAABJRU5ErkJggg==;" parent="1" vertex="1">
          <mxGeometry x="90" y="610" width="888" height="513" as="geometry" />
        </mxCell>
        <mxCell id="Y-nA7XGKgMrDhnrAmV-W-1" value="" style="rounded=1;whiteSpace=wrap;html=1;" vertex="1" parent="1">
          <mxGeometry x="1280" y="620" width="40" height="83" as="geometry" />
        </mxCell>
        <mxCell id="Y-nA7XGKgMrDhnrAmV-W-2" value="" style="rounded=1;whiteSpace=wrap;html=1;" vertex="1" parent="1">
          <mxGeometry x="1140" y="620" width="40" height="83" as="geometry" />
        </mxCell>
        <mxCell id="Y-nA7XGKgMrDhnrAmV-W-3" value="" style="rounded=1;whiteSpace=wrap;html=1;" vertex="1" parent="1">
          <mxGeometry x="1280" y="820" width="40" height="83" as="geometry" />
        </mxCell>
        <mxCell id="Y-nA7XGKgMrDhnrAmV-W-4" value="" style="ellipse;whiteSpace=wrap;html=1;aspect=fixed;" vertex="1" parent="1">
          <mxGeometry x="1220" y="651.5" width="20" height="20" as="geometry" />
        </mxCell>
        <mxCell id="Y-nA7XGKgMrDhnrAmV-W-5" value="" style="rounded=1;whiteSpace=wrap;html=1;" vertex="1" parent="1">
          <mxGeometry x="1140" y="820" width="40" height="83" as="geometry" />
        </mxCell>
        <mxCell id="Y-nA7XGKgMrDhnrAmV-W-6" value="" style="ellipse;whiteSpace=wrap;html=1;aspect=fixed;" vertex="1" parent="1">
          <mxGeometry x="1220" y="851.5" width="20" height="20" as="geometry" />
        </mxCell>
        <mxCell id="Y-nA7XGKgMrDhnrAmV-W-7" value="" style="endArrow=none;html=1;rounded=0;entryX=0;entryY=0.5;entryDx=0;entryDy=0;exitX=1;exitY=0.5;exitDx=0;exitDy=0;" edge="1" parent="1" source="Y-nA7XGKgMrDhnrAmV-W-5" target="Y-nA7XGKgMrDhnrAmV-W-6">
          <mxGeometry width="50" height="50" relative="1" as="geometry">
            <mxPoint x="1010" y="870" as="sourcePoint" />
            <mxPoint x="1060" y="820" as="targetPoint" />
          </mxGeometry>
        </mxCell>
        <mxCell id="Y-nA7XGKgMrDhnrAmV-W-8" value="" style="endArrow=none;html=1;rounded=0;entryX=0;entryY=0.5;entryDx=0;entryDy=0;exitX=1;exitY=0.5;exitDx=0;exitDy=0;" edge="1" parent="1" source="Y-nA7XGKgMrDhnrAmV-W-6" target="Y-nA7XGKgMrDhnrAmV-W-3">
          <mxGeometry width="50" height="50" relative="1" as="geometry">
            <mxPoint x="1210" y="880" as="sourcePoint" />
            <mxPoint x="1250" y="880" as="targetPoint" />
          </mxGeometry>
        </mxCell>
        <mxCell id="Y-nA7XGKgMrDhnrAmV-W-9" value="" style="endArrow=none;html=1;rounded=0;entryX=0.5;entryY=1;entryDx=0;entryDy=0;" edge="1" parent="1" target="Y-nA7XGKgMrDhnrAmV-W-4">
          <mxGeometry width="50" height="50" relative="1" as="geometry">
            <mxPoint x="1230" y="850" as="sourcePoint" />
            <mxPoint x="1290" y="770" as="targetPoint" />
          </mxGeometry>
        </mxCell>
        <mxCell id="Y-nA7XGKgMrDhnrAmV-W-10" value="" style="endArrow=none;html=1;rounded=0;exitX=1;exitY=0.5;exitDx=0;exitDy=0;entryX=0;entryY=0.5;entryDx=0;entryDy=0;" edge="1" parent="1" source="Y-nA7XGKgMrDhnrAmV-W-2" target="Y-nA7XGKgMrDhnrAmV-W-4">
          <mxGeometry width="50" height="50" relative="1" as="geometry">
            <mxPoint x="1200" y="660" as="sourcePoint" />
            <mxPoint x="1220" y="662" as="targetPoint" />
          </mxGeometry>
        </mxCell>
        <mxCell id="Y-nA7XGKgMrDhnrAmV-W-11" value="" style="endArrow=none;html=1;rounded=0;exitX=1;exitY=0.5;exitDx=0;exitDy=0;entryX=0;entryY=0.5;entryDx=0;entryDy=0;" edge="1" parent="1" source="Y-nA7XGKgMrDhnrAmV-W-4" target="Y-nA7XGKgMrDhnrAmV-W-1">
          <mxGeometry width="50" height="50" relative="1" as="geometry">
            <mxPoint x="1240" y="680" as="sourcePoint" />
            <mxPoint x="1280" y="680" as="targetPoint" />
          </mxGeometry>
        </mxCell>
        <mxCell id="Y-nA7XGKgMrDhnrAmV-W-12" value="" style="endArrow=none;dashed=1;html=1;dashPattern=1 3;strokeWidth=2;rounded=0;" edge="1" parent="1">
          <mxGeometry width="50" height="50" relative="1" as="geometry">
            <mxPoint x="700" y="830" as="sourcePoint" />
            <mxPoint x="750" y="780" as="targetPoint" />
          </mxGeometry>
        </mxCell>
        <mxCell id="Y-nA7XGKgMrDhnrAmV-W-13" value="" style="endArrow=none;dashed=1;html=1;dashPattern=1 3;strokeWidth=2;rounded=0;" edge="1" parent="1">
          <mxGeometry width="50" height="50" relative="1" as="geometry">
            <mxPoint x="700" y="830" as="sourcePoint" />
            <mxPoint x="750" y="780" as="targetPoint" />
          </mxGeometry>
        </mxCell>
        <mxCell id="Y-nA7XGKgMrDhnrAmV-W-15" value="" style="endArrow=classic;startArrow=classic;html=1;rounded=0;exitX=0.5;exitY=1;exitDx=0;exitDy=0;entryX=0.5;entryY=1;entryDx=0;entryDy=0;" edge="1" parent="1">
          <mxGeometry width="50" height="50" relative="1" as="geometry">
            <mxPoint x="1160" y="950" as="sourcePoint" />
            <mxPoint x="1300" y="950" as="targetPoint" />
          </mxGeometry>
        </mxCell>
        <mxCell id="Y-nA7XGKgMrDhnrAmV-W-16" value="" style="endArrow=none;dashed=1;html=1;dashPattern=1 3;strokeWidth=2;rounded=0;" edge="1" parent="1">
          <mxGeometry width="50" height="50" relative="1" as="geometry">
            <mxPoint x="700" y="830" as="sourcePoint" />
            <mxPoint x="750" y="780" as="targetPoint" />
          </mxGeometry>
        </mxCell>
        <mxCell id="Y-nA7XGKgMrDhnrAmV-W-18" value="" style="endArrow=none;dashed=1;html=1;rounded=0;entryX=0.5;entryY=1;entryDx=0;entryDy=0;" edge="1" parent="1" target="Y-nA7XGKgMrDhnrAmV-W-3">
          <mxGeometry width="50" height="50" relative="1" as="geometry">
            <mxPoint x="1300" y="1000" as="sourcePoint" />
            <mxPoint x="1300" y="970" as="targetPoint" />
          </mxGeometry>
        </mxCell>
        <mxCell id="Y-nA7XGKgMrDhnrAmV-W-19" value="" style="endArrow=none;dashed=1;html=1;rounded=0;entryX=0.5;entryY=1;entryDx=0;entryDy=0;" edge="1" parent="1" target="Y-nA7XGKgMrDhnrAmV-W-5">
          <mxGeometry width="50" height="50" relative="1" as="geometry">
            <mxPoint x="1160" y="1000" as="sourcePoint" />
            <mxPoint x="1230" y="980" as="targetPoint" />
          </mxGeometry>
        </mxCell>
        <mxCell id="Y-nA7XGKgMrDhnrAmV-W-20" value="" style="endArrow=none;dashed=1;html=1;rounded=0;entryX=0.5;entryY=1;entryDx=0;entryDy=0;" edge="1" parent="1">
          <mxGeometry width="50" height="50" relative="1" as="geometry">
            <mxPoint x="1240" y="1107" as="sourcePoint" />
            <mxPoint x="1240" y="1010" as="targetPoint" />
          </mxGeometry>
        </mxCell>
      </root>
    </mxGraphModel>
  </diagram>
</mxfile>
